<ttFont>
    <TTGlyph name=".notdef" xMin="256" yMin="0" xMax="1280" yMax="1280">
      <contour>
        <pt x="256" y="0" on="1"/>
        <pt x="256" y="1280" on="1"/>
        <pt x="1280" y="1280" on="1"/>
        <pt x="1280" y="0" on="1"/>
      </contour>
      <contour>
        <pt x="288" y="32" on="1"/>
        <pt x="1248" y="32" on="1"/>
        <pt x="1248" y="1248" on="1"/>
        <pt x="288" y="1248" on="1"/>
      </contour>
    </TTGlyph>
    <TTGlyph name="ampersand" xMin="106" yMin="-47" xMax="1304" yMax="1452">
      <contour>
        <pt x="1009" y="684" on="1"/>
        <pt x="1173" y="684" on="1"/>
        <pt x="1173" y="492" on="0"/>
        <pt x="1054" y="309" on="1"/>
        <pt x="1304" y="0" on="1"/>
        <pt x="1081" y="0" on="1"/>
        <pt x="954" y="160" on="1"/>
        <pt x="854" y="61" on="0"/>
        <pt x="796" y="27" on="1"/>
        <pt x="681" y="-47" on="0"/>
        <pt x="526" y="-47" on="1"/>
        <pt x="288" y="-47" on="0"/>
        <pt x="174" y="121" on="1"/>
        <pt x="106" y="221" on="0"/>
        <pt x="106" y="360" on="1"/>
        <pt x="106" y="526" on="0"/>
        <pt x="212" y="635" on="1"/>
        <pt x="286" y="709" on="0"/>
        <pt x="438" y="797" on="1"/>
        <pt x="294" y="977" on="0"/>
        <pt x="276" y="1075" on="1"/>
        <pt x="272" y="1102" on="0"/>
        <pt x="272" y="1130" on="1"/>
        <pt x="272" y="1288" on="0"/>
        <pt x="405" y="1384" on="1"/>
        <pt x="499" y="1452" on="0"/>
        <pt x="622" y="1452" on="1"/>
        <pt x="806" y="1452" on="0"/>
        <pt x="901" y="1317" on="1"/>
        <pt x="931" y="1260" on="1"/>
        <pt x="950" y="1217" on="0"/>
        <pt x="954" y="1167" on="1"/>
        <pt x="956" y="1149" on="0"/>
        <pt x="956" y="1130" on="1"/>
        <pt x="956" y="989" on="0"/>
        <pt x="843" y="889" on="1"/>
        <pt x="784" y="836" on="0"/>
        <pt x="673" y="774" on="1"/>
        <pt x="946" y="440" on="1"/>
        <pt x="1009" y="552" on="0"/>
        <pt x="1009" y="676" on="1"/>
      </contour>
      <contour>
        <pt x="583" y="883" on="1"/>
        <pt x="749" y="987" on="0"/>
        <pt x="780" y="1063" on="1"/>
        <pt x="794" y="1094" on="0"/>
        <pt x="794" y="1135" on="1"/>
        <pt x="794" y="1241" on="0"/>
        <pt x="702" y="1288" on="1"/>
        <pt x="663" y="1309" on="0"/>
        <pt x="616" y="1309" on="1"/>
        <pt x="493" y="1309" on="0"/>
        <pt x="452" y="1206" on="1"/>
        <pt x="440" y="1174" on="0"/>
        <pt x="440" y="1133" on="1"/>
        <pt x="440" y="1065" on="0"/>
        <pt x="491" y="993" on="1"/>
      </contour>
      <contour>
        <pt x="856" y="281" on="1"/>
        <pt x="528" y="690" on="1"/>
        <pt x="335" y="567" on="0"/>
        <pt x="294" y="465" on="1"/>
        <pt x="278" y="424" on="0"/>
        <pt x="278" y="375" on="1"/>
        <pt x="278" y="242" on="0"/>
        <pt x="389" y="164" on="1"/>
        <pt x="460" y="113" on="0"/>
        <pt x="546" y="113" on="1"/>
        <pt x="684" y="113" on="0"/>
        <pt x="823" y="246" on="1"/>
        <pt x="839" y="262" on="0"/>
      </contour>
    </TTGlyph>
    <TTGlyph name="asterisk" xMin="450" yMin="903" xMax="1071" yMax="1493">
      <contour>
        <pt x="696" y="1493" on="1"/>
        <pt x="825" y="1493" on="1"/>
        <pt x="815" y="1264" on="1"/>
        <pt x="1032" y="1341" on="1"/>
        <pt x="1071" y="1221" on="1"/>
        <pt x="849" y="1159" on="1"/>
        <pt x="993" y="977" on="1"/>
        <pt x="888" y="903" on="1"/>
        <pt x="761" y="1094" on="1"/>
        <pt x="632" y="903" on="1"/>
        <pt x="530" y="977" on="1"/>
        <pt x="671" y="1159" on="1"/>
        <pt x="450" y="1221" on="1"/>
        <pt x="489" y="1341" on="1"/>
        <pt x="706" y="1264" on="1"/>
      </contour>
    </TTGlyph>
    <TTGlyph name="at" xMin="69" yMin="-290" xMax="1947" yMax="1518">
      <contour>
        <pt x="1361" y="1026" on="1"/>
        <pt x="1531" y="1026" on="1"/>
        <pt x="1347" y="453" on="1"/>
        <pt x="1322" y="381" on="0"/>
        <pt x="1322" y="350" on="1"/>
        <pt x="1322" y="295" on="0"/>
        <pt x="1382" y="268" on="1"/>
        <pt x="1402" y="260" on="0"/>
        <pt x="1425" y="260" on="1"/>
        <pt x="1556" y="260" on="0"/>
        <pt x="1664" y="408" on="1"/>
        <pt x="1769" y="553" on="0"/>
        <pt x="1769" y="731" on="1"/>
        <pt x="1769" y="977" on="0"/>
        <pt x="1570" y="1159" on="1"/>
        <pt x="1367" y="1348" on="0"/>
        <pt x="1079" y="1360" on="1"/>
        <pt x="1048" y="1360" on="1"/>
        <pt x="747" y="1360" on="0"/>
        <pt x="515" y="1151" on="1"/>
        <pt x="446" y="1081" on="1"/>
        <pt x="243" y="850" on="0"/>
        <pt x="243" y="559" on="1"/>
        <pt x="243" y="270" on="0"/>
        <pt x="458" y="72" on="1"/>
        <pt x="679" y="-133" on="0"/>
        <pt x="1011" y="-133" on="1"/>
        <pt x="1173" y="-133" on="0"/>
        <pt x="1406" y="-67" on="1"/>
        <pt x="1464" y="-204" on="1"/>
        <pt x="1234" y="-290" on="0"/>
        <pt x="1001" y="-290" on="1"/>
        <pt x="632" y="-290" on="0"/>
        <pt x="364" y="-71" on="1"/>
        <pt x="114" y="133" on="0"/>
        <pt x="75" y="434" on="1"/>
        <pt x="69" y="481" on="0"/>
        <pt x="69" y="528" on="1"/>
        <pt x="69" y="844" on="0"/>
        <pt x="264" y="1110" on="1"/>
        <pt x="321" y="1190" on="0"/>
        <pt x="393" y="1253" on="1"/>
        <pt x="614" y="1454" on="0"/>
        <pt x="923" y="1505" on="1"/>
        <pt x="999" y="1518" on="0"/>
        <pt x="1075" y="1518" on="1"/>
        <pt x="1415" y="1518" on="0"/>
        <pt x="1666" y="1311" on="1"/>
        <pt x="1904" y="1118" on="0"/>
        <pt x="1941" y="842" on="1"/>
        <pt x="1947" y="799" on="0"/>
        <pt x="1947" y="756" on="1"/>
        <pt x="1947" y="508" on="0"/>
        <pt x="1771" y="299" on="1"/>
        <pt x="1615" y="117" on="0"/>
        <pt x="1390" y="117" on="1"/>
        <pt x="1193" y="117" on="0"/>
        <pt x="1165" y="274" on="1"/>
        <pt x="1030" y="127" on="0"/>
        <pt x="874" y="127" on="1"/>
        <pt x="706" y="127" on="0"/>
        <pt x="610" y="268" on="1"/>
        <pt x="540" y="369" on="0"/>
        <pt x="540" y="502" on="1"/>
        <pt x="540" y="725" on="0"/>
        <pt x="702" y="897" on="1"/>
        <pt x="860" y="1067" on="0"/>
        <pt x="1066" y="1069" on="1"/>
        <pt x="1238" y="1069" on="0"/>
        <pt x="1316" y="891" on="1"/>
      </contour>
      <contour>
        <pt x="1054" y="938" on="1"/>
        <pt x="919" y="938" on="0"/>
        <pt x="817" y="793" on="1"/>
        <pt x="724" y="664" on="0"/>
        <pt x="724" y="500" on="1"/>
        <pt x="724" y="362" on="0"/>
        <pt x="821" y="293" on="1"/>
        <pt x="870" y="258" on="0"/>
        <pt x="927" y="258" on="1"/>
        <pt x="1046" y="258" on="0"/>
        <pt x="1136" y="391" on="1"/>
        <pt x="1204" y="489" on="0"/>
        <pt x="1236" y="662" on="1"/>
        <pt x="1245" y="707" on="0"/>
        <pt x="1247" y="741" on="1"/>
        <pt x="1247" y="755" on="1"/>
        <pt x="1247" y="856" on="0"/>
        <pt x="1163" y="909" on="1"/>
        <pt x="1113" y="938" on="0"/>
      </contour>
    </TTGlyph>
    <TTGlyph name="colon" xMin="225" yMin="0" xMax="438" yMax="1073">
      <contour>
        <pt x="438" y="213" on="1"/>
        <pt x="438" y="0" on="1"/>
        <pt x="225" y="0" on="1"/>
        <pt x="225" y="213" on="1"/>
      </contour>
      <contour>
        <pt x="438" y="1073" on="1"/>
        <pt x="438" y="860" on="1"/>
        <pt x="225" y="860" on="1"/>
        <pt x="225" y="1073" on="1"/>
      </contour>
    </TTGlyph>
    <TTGlyph name="comma" xMin="178" yMin="-301" xMax="393" yMax="213">
      <contour>
        <pt x="178" y="213" on="1"/>
        <pt x="393" y="213" on="1"/>
        <pt x="393" y="-32" on="1"/>
        <pt x="393" y="-301" on="0"/>
        <pt x="178" y="-301" on="1"/>
        <pt x="178" y="-223" on="1"/>
        <pt x="266" y="-219" on="0"/>
        <pt x="287" y="-155" on="1"/>
        <pt x="301" y="-116" on="0"/>
        <pt x="301" y="-36" on="1"/>
        <pt x="301" y="0" on="1"/>
        <pt x="178" y="0" on="1"/>
      </contour>
    </TTGlyph>
    <TTGlyph name="dollar" xMin="70" yMin="-258" xMax="1064" yMax="1577">
      <contour>
        <pt x="501" y="1577" on="1"/>
        <pt x="622" y="1577" on="1"/>
        <pt x="622" y="1466" on="1"/>
        <pt x="880" y="1448" on="0"/>
        <pt x="976" y="1257" on="1"/>
        <pt x="1015" y="1180" on="0"/>
        <pt x="1019" y="1083" on="1"/>
        <pt x="1019" y="1063" on="1"/>
        <pt x="858" y="1063" on="1"/>
        <pt x="856" y="1221" on="0"/>
        <pt x="739" y="1290" on="1"/>
        <pt x="698" y="1313" on="0"/>
        <pt x="649" y="1321" on="1"/>
        <pt x="636" y="1323" on="0"/>
        <pt x="622" y="1323" on="1"/>
        <pt x="622" y="813" on="1"/>
        <pt x="827" y="750" on="0"/>
        <pt x="890" y="715" on="1"/>
        <pt x="1064" y="616" on="0"/>
        <pt x="1064" y="399" on="1"/>
        <pt x="1064" y="186" on="0"/>
        <pt x="925" y="61" on="1"/>
        <pt x="903" y="41" on="0"/>
        <pt x="876" y="25" on="1"/>
        <pt x="776" y="-34" on="0"/>
        <pt x="622" y="-47" on="1"/>
        <pt x="622" y="-258" on="1"/>
        <pt x="501" y="-258" on="1"/>
        <pt x="501" y="-47" on="1"/>
        <pt x="186" y="-26" on="0"/>
        <pt x="98" y="213" on="1"/>
        <pt x="70" y="293" on="0"/>
        <pt x="70" y="390" on="1"/>
        <pt x="70" y="408" on="0"/>
        <pt x="71" y="426" on="1"/>
        <pt x="233" y="426" on="1"/>
        <pt x="247" y="274" on="0"/>
        <pt x="276" y="225" on="1"/>
        <pt x="280" y="219" on="0"/>
        <pt x="284" y="211" on="1"/>
        <pt x="356" y="113" on="0"/>
        <pt x="501" y="94" on="1"/>
        <pt x="501" y="651" on="1"/>
        <pt x="311" y="709" on="0"/>
        <pt x="243" y="758" on="1"/>
        <pt x="98" y="862" on="0"/>
        <pt x="98" y="1057" on="1"/>
        <pt x="98" y="1356" on="0"/>
        <pt x="384" y="1442" on="1"/>
        <pt x="438" y="1458" on="0"/>
        <pt x="501" y="1466" on="1"/>
      </contour>
      <contour>
        <pt x="501" y="829" on="1"/>
        <pt x="501" y="1321" on="1"/>
        <pt x="305" y="1294" on="0"/>
        <pt x="270" y="1139" on="1"/>
        <pt x="264" y="1110" on="0"/>
        <pt x="264" y="1077" on="1"/>
        <pt x="264" y="893" on="0"/>
      </contour>
      <contour>
        <pt x="622" y="633" on="1"/>
        <pt x="622" y="94" on="1"/>
        <pt x="747" y="109" on="0"/>
        <pt x="810" y="170" on="1"/>
        <pt x="896" y="252" on="0"/>
        <pt x="896" y="375" on="1"/>
        <pt x="896" y="500" on="0"/>
        <pt x="800" y="561" on="1"/>
        <pt x="741" y="598" on="0"/>
      </contour>
    </TTGlyph>
    <TTGlyph name="eight" xMin="74" yMin="0" xMax="1004" yMax="1500">
      <contour>
        <pt x="539" y="1350" on="1"/>
        <pt x="254" y="1350" on="0"/>
        <pt x="254" y="1100" on="1"/>
        <pt x="254" y="850" on="0"/>
        <pt x="539" y="850" on="1"/>
        <pt x="824" y="850" on="0"/>
        <pt x="824" y="1100" on="1"/>
        <pt x="824" y="1350" on="0"/>
      </contour>
      <contour>
        <pt x="539" y="700" on="1"/>
        <pt x="224" y="700" on="0"/>
        <pt x="224" y="425" on="1"/>
        <pt x="224" y="150" on="0"/>
        <pt x="539" y="150" on="1"/>
        <pt x="854" y="150" on="0"/>
        <pt x="854" y="425" on="1"/>
        <pt x="854" y="700" on="0"/>
      </contour>
      <contour>
        <pt x="237" y="780" on="1"/>
        <pt x="104" y="878" on="0"/>
        <pt x="104" y="1100" on="1"/>
        <pt x="104" y="1500" on="0"/>
        <pt x="539" y="1500" on="1"/>
        <pt x="974" y="1500" on="0"/>
        <pt x="974" y="1100" on="1"/>
        <pt x="974" y="878" on="0"/>
        <pt x="841" y="780" on="1"/>
        <pt x="1004" y="677" on="0"/>
        <pt x="1004" y="425" on="1"/>
        <pt x="1004" y="0" on="0"/>
        <pt x="539" y="0" on="1"/>
        <pt x="74" y="0" on="0"/>
        <pt x="74" y="425" on="1"/>
        <pt x="74" y="677" on="0"/>
      </contour>
    </TTGlyph>
    <TTGlyph name="equal" xMin="102" yMin="227" xMax="1093" yMax="723">
      <contour>
        <pt x="1093" y="723" on="1"/>
        <pt x="1093" y="580" on="1"/>
        <pt x="102" y="580" on="1"/>
        <pt x="102" y="723" on="1"/>
      </contour>
      <contour>
        <pt x="1093" y="371" on="1"/>
        <pt x="1093" y="227" on="1"/>
        <pt x="102" y="227" on="1"/>
        <pt x="102" y="371" on="1"/>
      </contour>
    </TTGlyph>
    <TTGlyph name="exclam" xMin="450" yMin="0" xMax="622" yMax="1493">
      <contour>
        <pt x="612" y="1493" on="1"/>
        <pt x="612" y="801" on="1"/>
        <pt x="572" y="344" on="1"/>
        <pt x="502" y="344" on="1"/>
        <pt x="462" y="801" on="1"/>
        <pt x="462" y="1493" on="1"/>
      </contour>
      <contour>
        <pt x="622" y="213" on="1"/>
        <pt x="622" y="0" on="1"/>
        <pt x="450" y="0" on="1"/>
        <pt x="450" y="213" on="1"/>
      </contour>
    </TTGlyph>
    <TTGlyph name="five" xMin="124" yMin="0" xMax="1039" yMax="1500">
      <contour>
        <pt x="1039" y="500" on="1"/>
        <pt x="1039" y="0" on="0"/>
        <pt x="602" y="0" on="1"/>
        <pt x="174" y="0" on="0"/>
        <pt x="124" y="397" on="1"/>
        <pt x="274" y="397" on="1"/>
        <pt x="324" y="150" on="0"/>
        <pt x="602" y="150" on="1"/>
        <pt x="889" y="150" on="0"/>
        <pt x="889" y="500" on="1"/>
        <pt x="889" y="850" on="0"/>
        <pt x="612" y="850" on="1"/>
        <pt x="410" y="850" on="0"/>
        <pt x="324" y="722" on="1"/>
        <pt x="179" y="722" on="1"/>
        <pt x="249" y="1500" on="1"/>
        <pt x="969" y="1500" on="1"/>
        <pt x="969" y="1350" on="1"/>
        <pt x="384" y="1350" on="1"/>
        <pt x="347" y="949" on="1"/>
        <pt x="454" y="1000" on="0"/>
        <pt x="612" y="1000" on="1"/>
        <pt x="1039" y="1000" on="0"/>
      </contour>
    </TTGlyph>
    <TTGlyph name="four" xMin="40" yMin="0" xMax="1040" yMax="1500">
      <contour>
        <pt x="698" y="1231" on="1"/>
        <pt x="221" y="519" on="1"/>
        <pt x="698" y="519" on="1"/>
      </contour>
      <contour>
        <pt x="698" y="1500" on="1"/>
        <pt x="848" y="1500" on="1"/>
        <pt x="848" y="519" on="1"/>
        <pt x="1040" y="519" on="1"/>
        <pt x="1040" y="369" on="1"/>
        <pt x="848" y="369" on="1"/>
        <pt x="848" y="0" on="1"/>
        <pt x="698" y="0" on="1"/>
        <pt x="698" y="369" on="1"/>
        <pt x="40" y="369" on="1"/>
        <pt x="40" y="519" on="1"/>
      </contour>
    </TTGlyph>
    <TTGlyph name="glyph139" xMin="-850" yMin="-650" xMax="580" yMax="1500">
      <contour>
        <pt x="200" y="963" on="1"/>
        <pt x="200" y="1069" on="0"/>
        <pt x="20" y="1101" on="1"/>
        <pt x="40" y="1232" on="0"/>
        <pt x="221" y="1500" on="0"/>
        <pt x="275" y="1500" on="1"/>
        <pt x="319" y="1500" on="0"/>
        <pt x="390" y="1457" on="1"/>
        <pt x="460" y="1414" on="1"/>
        <pt x="491" y="1395" on="0"/>
        <pt x="533" y="1395" on="1"/>
        <pt x="555" y="1395" on="0"/>
        <pt x="580" y="1400" on="1"/>
        <pt x="570" y="1330" on="0"/>
        <pt x="509" y="1191" on="0"/>
        <pt x="458" y="1186" on="1"/>
        <pt x="453" y="1185" on="0"/>
        <pt x="448" y="1185" on="1"/>
        <pt x="398" y="1185" on="0"/>
        <pt x="313" y="1238" on="1"/>
        <pt x="287" y="1253" on="0"/>
        <pt x="265" y="1253" on="1"/>
        <pt x="202" y="1253" on="0"/>
        <pt x="186" y="1158" on="1"/>
        <pt x="480" y="1100" on="0"/>
        <pt x="480" y="970" on="1"/>
        <pt x="480" y="-410" on="1"/>
        <pt x="480" y="-550" on="0"/>
        <pt x="307" y="-650" on="0"/>
        <pt x="75" y="-650" on="1"/>
        <pt x="-45" y="-650" on="0"/>
        <pt x="-115" y="-636" on="1"/>
        <pt x="-184" y="-622" on="0"/>
        <pt x="-202" y="-595" on="1"/>
        <pt x="-219" y="-622" on="0"/>
        <pt x="-273" y="-636" on="1"/>
        <pt x="-327" y="-650" on="0"/>
        <pt x="-425" y="-650" on="1"/>
        <pt x="-595" y="-650" on="0"/>
        <pt x="-670" y="-600" on="1"/>
        <pt x="-745" y="-550" on="0"/>
        <pt x="-745" y="-450" on="1"/>
        <pt x="-745" y="-350" on="1"/>
        <pt x="-803" y="-350" on="0"/>
        <pt x="-850" y="-300" on="0"/>
        <pt x="-850" y="-245" on="1"/>
        <pt x="-850" y="-200" on="0"/>
        <pt x="-745" y="-100" on="1"/>
        <pt x="-517" y="-100" on="1"/>
        <pt x="-517" y="-411" on="1"/>
        <pt x="-517" y="-550" on="0"/>
        <pt x="-425" y="-550" on="1"/>
        <pt x="-314" y="-550" on="0"/>
        <pt x="-314" y="-410" on="1"/>
        <pt x="-314" y="-100" on="1"/>
        <pt x="-86" y="-100" on="1"/>
        <pt x="-86" y="-410" on="1"/>
        <pt x="-86" y="-550" on="0"/>
        <pt x="75" y="-550" on="1"/>
        <pt x="200" y="-550" on="0"/>
        <pt x="200" y="-410" on="1"/>
      </contour>
    </TTGlyph>
    <TTGlyph name="glyph144" xMin="-1237" yMin="-650" xMax="580" yMax="1500">
      <contour>
        <pt x="200" y="963" on="1"/>
        <pt x="200" y="1069" on="0"/>
        <pt x="20" y="1101" on="1"/>
        <pt x="40" y="1232" on="0"/>
        <pt x="221" y="1500" on="0"/>
        <pt x="275" y="1500" on="1"/>
        <pt x="319" y="1500" on="0"/>
        <pt x="390" y="1457" on="1"/>
        <pt x="460" y="1414" on="1"/>
        <pt x="491" y="1395" on="0"/>
        <pt x="533" y="1395" on="1"/>
        <pt x="555" y="1395" on="0"/>
        <pt x="580" y="1400" on="1"/>
        <pt x="570" y="1330" on="0"/>
        <pt x="509" y="1191" on="0"/>
        <pt x="458" y="1186" on="1"/>
        <pt x="453" y="1185" on="0"/>
        <pt x="448" y="1185" on="1"/>
        <pt x="398" y="1185" on="0"/>
        <pt x="313" y="1238" on="1"/>
        <pt x="287" y="1253" on="0"/>
        <pt x="265" y="1253" on="1"/>
        <pt x="202" y="1253" on="0"/>
        <pt x="186" y="1158" on="1"/>
        <pt x="480" y="1100" on="0"/>
        <pt x="480" y="970" on="1"/>
        <pt x="480" y="-410" on="1"/>
        <pt x="480" y="-550" on="0"/>
        <pt x="287" y="-650" on="0"/>
        <pt x="42" y="-650" on="1"/>
        <pt x="-85" y="-650" on="0"/>
        <pt x="-155" y="-636" on="1"/>
        <pt x="-224" y="-622" on="0"/>
        <pt x="-242" y="-595" on="1"/>
        <pt x="-259" y="-622" on="0"/>
        <pt x="-313" y="-636" on="1"/>
        <pt x="-367" y="-650" on="0"/>
        <pt x="-465" y="-650" on="1"/>
        <pt x="-645" y="-650" on="0"/>
        <pt x="-720" y="-600" on="1"/>
        <pt x="-795" y="-550" on="0"/>
        <pt x="-795" y="-400" on="1"/>
        <pt x="-795" y="-320" on="1"/>
        <pt x="-795" y="-200" on="0"/>
        <pt x="-897" y="-200" on="1"/>
        <pt x="-989" y="-200" on="0"/>
        <pt x="-989" y="-320" on="1"/>
        <pt x="-989" y="-400" on="1"/>
        <pt x="-964" y="-400" on="1"/>
        <pt x="-889" y="-400" on="0"/>
        <pt x="-889" y="-450" on="1"/>
        <pt x="-889" y="-498" on="0"/>
        <pt x="-939" y="-575" on="1"/>
        <pt x="-989" y="-650" on="0"/>
        <pt x="-1102" y="-650" on="1"/>
        <pt x="-1237" y="-650" on="0"/>
        <pt x="-1237" y="-550" on="1"/>
        <pt x="-1237" y="-319" on="1"/>
        <pt x="-1237" y="-200" on="0"/>
        <pt x="-1162" y="-150" on="1"/>
        <pt x="-1087" y="-100" on="0"/>
        <pt x="-897" y="-100" on="1"/>
        <pt x="-697" y="-100" on="0"/>
        <pt x="-622" y="-150" on="1"/>
        <pt x="-547" y="-200" on="0"/>
        <pt x="-547" y="-320" on="1"/>
        <pt x="-547" y="-411" on="1"/>
        <pt x="-547" y="-550" on="0"/>
        <pt x="-465" y="-550" on="1"/>
        <pt x="-364" y="-550" on="0"/>
        <pt x="-364" y="-410" on="1"/>
        <pt x="-364" y="-100" on="1"/>
        <pt x="-116" y="-100" on="1"/>
        <pt x="-116" y="-410" on="1"/>
        <pt x="-116" y="-550" on="0"/>
        <pt x="42" y="-550" on="1"/>
        <pt x="200" y="-550" on="0"/>
        <pt x="200" y="-410" on="1"/>
      </contour>
    </TTGlyph>
    <TTGlyph name="glyph146" xMin="-1900" yMin="-650" xMax="-200" yMax="-50">
      <contour>
        <pt x="-563" y="-470" on="1"/>
        <pt x="-563" y="-445" on="0"/>
        <pt x="-532" y="-433" on="1"/>
        <pt x="-499" y="-421" on="0"/>
        <pt x="-382" y="-421" on="1"/>
        <pt x="-292" y="-421" on="0"/>
        <pt x="-247" y="-445" on="1"/>
        <pt x="-200" y="-470" on="0"/>
        <pt x="-200" y="-518" on="1"/>
        <pt x="-200" y="-572" on="0"/>
        <pt x="-425" y="-650" on="0"/>
        <pt x="-613" y="-650" on="1"/>
        <pt x="-882" y="-650" on="0"/>
        <pt x="-996" y="-631" on="1"/>
        <pt x="-1110" y="-613" on="0"/>
        <pt x="-1504" y="-499" on="0"/>
        <pt x="-1589" y="-499" on="1"/>
        <pt x="-1675" y="-499" on="0"/>
        <pt x="-1821" y="-506" on="0"/>
        <pt x="-1900" y="-538" on="1"/>
        <pt x="-1900" y="-509" on="0"/>
        <pt x="-1821" y="-462" on="0"/>
        <pt x="-1643" y="-421" on="0"/>
        <pt x="-1525" y="-421" on="1"/>
        <pt x="-1356" y="-421" on="0"/>
        <pt x="-1084" y="-467" on="0"/>
        <pt x="-675" y="-559" on="0"/>
        <pt x="-608" y="-559" on="1"/>
        <pt x="-563" y="-559" on="0"/>
        <pt x="-462" y="-547" on="0"/>
        <pt x="-462" y="-518" on="1"/>
        <pt x="-462" y="-505" on="1"/>
        <pt x="-479" y="-507" on="0"/>
        <pt x="-493" y="-507" on="1"/>
        <pt x="-511" y="-507" on="0"/>
        <pt x="-522" y="-504" on="1"/>
        <pt x="-542" y="-498" on="0"/>
        <pt x="-563" y="-480" on="0"/>
      </contour>
      <contour>
        <pt x="-981" y="-108" on="1"/>
        <pt x="-947" y="-90" on="0"/>
        <pt x="-895" y="-77" on="1"/>
        <pt x="-787" y="-50" on="0"/>
        <pt x="-670" y="-50" on="1"/>
        <pt x="-200" y="-50" on="0"/>
        <pt x="-200" y="-196" on="1"/>
        <pt x="-200" y="-401" on="1"/>
        <pt x="-500" y="-401" on="1"/>
        <pt x="-500" y="-196" on="1"/>
        <pt x="-500" y="-129" on="0"/>
        <pt x="-670" y="-129" on="1"/>
        <pt x="-778" y="-129" on="0"/>
        <pt x="-900" y="-180" on="0"/>
        <pt x="-900" y="-196" on="1"/>
        <pt x="-900" y="-401" on="1"/>
        <pt x="-1200" y="-401" on="1"/>
        <pt x="-1200" y="-196" on="1"/>
        <pt x="-1200" y="-174" on="0"/>
        <pt x="-1245" y="-174" on="1"/>
        <pt x="-1291" y="-174" on="0"/>
        <pt x="-1400" y="-226" on="1"/>
        <pt x="-1508" y="-174" on="0"/>
        <pt x="-1554" y="-174" on="1"/>
        <pt x="-1600" y="-174" on="0"/>
        <pt x="-1600" y="-196" on="1"/>
        <pt x="-1600" y="-255" on="1"/>
        <pt x="-1450" y="-255" on="0"/>
        <pt x="-1450" y="-303" on="1"/>
        <pt x="-1450" y="-352" on="0"/>
        <pt x="-1575" y="-401" on="0"/>
        <pt x="-1700" y="-401" on="1"/>
        <pt x="-1900" y="-401" on="0"/>
        <pt x="-1900" y="-352" on="1"/>
        <pt x="-1900" y="-196" on="1"/>
        <pt x="-1900" y="-137" on="0"/>
        <pt x="-1670" y="-50" on="0"/>
        <pt x="-1611" y="-50" on="1"/>
        <pt x="-1561" y="-50" on="0"/>
        <pt x="-1400" y="-115" on="1"/>
        <pt x="-1238" y="-50" on="0"/>
        <pt x="-1188" y="-50" on="1"/>
        <pt x="-1129" y="-50" on="0"/>
        <pt x="-1014" y="-93" on="1"/>
        <pt x="-997" y="-100" on="0"/>
      </contour>
    </TTGlyph>
    <TTGlyph name="glyph150" xMin="-1180" yMin="-650" xMax="580" yMax="1500">
      <contour>
        <pt x="-932" y="-475" on="1"/>
        <pt x="-932" y="-550" on="1"/>
        <pt x="-891" y="-550" on="0"/>
        <pt x="-891" y="-500" on="1"/>
        <pt x="-891" y="-488" on="0"/>
        <pt x="-902" y="-481" on="1"/>
        <pt x="-912" y="-475" on="0"/>
      </contour>
      <contour>
        <pt x="200" y="963" on="1"/>
        <pt x="200" y="1069" on="0"/>
        <pt x="20" y="1101" on="1"/>
        <pt x="40" y="1232" on="0"/>
        <pt x="221" y="1500" on="0"/>
        <pt x="275" y="1500" on="1"/>
        <pt x="319" y="1500" on="0"/>
        <pt x="390" y="1457" on="1"/>
        <pt x="460" y="1414" on="1"/>
        <pt x="491" y="1395" on="0"/>
        <pt x="533" y="1395" on="1"/>
        <pt x="555" y="1395" on="0"/>
        <pt x="580" y="1400" on="1"/>
        <pt x="570" y="1330" on="0"/>
        <pt x="509" y="1191" on="0"/>
        <pt x="458" y="1186" on="1"/>
        <pt x="453" y="1185" on="0"/>
        <pt x="448" y="1185" on="1"/>
        <pt x="398" y="1185" on="0"/>
        <pt x="313" y="1238" on="1"/>
        <pt x="287" y="1253" on="0"/>
        <pt x="265" y="1253" on="1"/>
        <pt x="202" y="1253" on="0"/>
        <pt x="186" y="1158" on="1"/>
        <pt x="480" y="1100" on="0"/>
        <pt x="480" y="970" on="1"/>
        <pt x="480" y="-399" on="1"/>
        <pt x="480" y="-650" on="0"/>
        <pt x="135" y="-650" on="1"/>
        <pt x="5" y="-650" on="0"/>
        <pt x="-145" y="-430" on="0"/>
        <pt x="-195" y="-430" on="1"/>
        <pt x="-220" y="-430" on="1"/>
        <pt x="-220" y="-530" on="1"/>
        <pt x="-220" y="-650" on="0"/>
        <pt x="-375" y="-650" on="1"/>
        <pt x="-460" y="-650" on="0"/>
        <pt x="-560" y="-480" on="0"/>
        <pt x="-560" y="-430" on="1"/>
        <pt x="-560" y="-380" on="0"/>
        <pt x="-535" y="-355" on="1"/>
        <pt x="-511" y="-331" on="0"/>
        <pt x="-466" y="-330" on="1"/>
        <pt x="-467" y="-330" on="1"/>
        <pt x="-467" y="-266" on="0"/>
        <pt x="-520" y="-223" on="1"/>
        <pt x="-532" y="-214" on="0"/>
        <pt x="-547" y="-214" on="1"/>
        <pt x="-601" y="-214" on="0"/>
        <pt x="-699" y="-331" on="1"/>
        <pt x="-798" y="-214" on="0"/>
        <pt x="-852" y="-214" on="1"/>
        <pt x="-867" y="-214" on="0"/>
        <pt x="-879" y="-223" on="1"/>
        <pt x="-932" y="-266" on="0"/>
        <pt x="-932" y="-330" on="1"/>
        <pt x="-932" y="-375" on="1"/>
        <pt x="-869" y="-375" on="0"/>
        <pt x="-838" y="-406" on="1"/>
        <pt x="-807" y="-438" on="0"/>
        <pt x="-807" y="-500" on="1"/>
        <pt x="-807" y="-650" on="0"/>
        <pt x="-932" y="-650" on="1"/>
        <pt x="-1056" y="-650" on="1"/>
        <pt x="-1180" y="-650" on="0"/>
        <pt x="-1180" y="-550" on="1"/>
        <pt x="-1180" y="-330" on="1"/>
        <pt x="-1180" y="-208" on="0"/>
        <pt x="-915" y="-50" on="0"/>
        <pt x="-862" y="-50" on="1"/>
        <pt x="-818" y="-50" on="0"/>
        <pt x="-699" y="-164" on="1"/>
        <pt x="-580" y="-50" on="0"/>
        <pt x="-536" y="-50" on="1"/>
        <pt x="-484" y="-50" on="0"/>
        <pt x="-220" y="-208" on="0"/>
        <pt x="-220" y="-330" on="1"/>
        <pt x="-195" y="-330" on="1"/>
        <pt x="-75" y="-330" on="0"/>
        <pt x="75" y="-550" on="0"/>
        <pt x="135" y="-550" on="1"/>
        <pt x="200" y="-550" on="0"/>
        <pt x="200" y="-399" on="1"/>
      </contour>
    </TTGlyph>
    <TTGlyph name="glyph157" xMin="-438" yMin="-650" xMax="580" yMax="1500">
      <contour>
        <pt x="200" y="963" on="1"/>
        <pt x="200" y="1069" on="0"/>
        <pt x="20" y="1101" on="1"/>
        <pt x="40" y="1232" on="0"/>
        <pt x="221" y="1500" on="0"/>
        <pt x="275" y="1500" on="1"/>
        <pt x="319" y="1500" on="0"/>
        <pt x="390" y="1457" on="1"/>
        <pt x="460" y="1414" on="1"/>
        <pt x="491" y="1395" on="0"/>
        <pt x="533" y="1395" on="1"/>
        <pt x="555" y="1395" on="0"/>
        <pt x="580" y="1400" on="1"/>
        <pt x="570" y="1330" on="0"/>
        <pt x="509" y="1191" on="0"/>
        <pt x="458" y="1186" on="1"/>
        <pt x="453" y="1185" on="0"/>
        <pt x="448" y="1185" on="1"/>
        <pt x="398" y="1185" on="0"/>
        <pt x="313" y="1238" on="1"/>
        <pt x="287" y="1253" on="0"/>
        <pt x="265" y="1253" on="1"/>
        <pt x="202" y="1253" on="0"/>
        <pt x="186" y="1158" on="1"/>
        <pt x="480" y="1100" on="0"/>
        <pt x="480" y="970" on="1"/>
        <pt x="480" y="-550" on="1"/>
        <pt x="480" y="-650" on="0"/>
        <pt x="350" y="-650" on="1"/>
        <pt x="250" y="-650" on="0"/>
        <pt x="188" y="-587" on="1"/>
        <pt x="0" y="-400" on="1"/>
        <pt x="-187" y="-587" on="1"/>
        <pt x="-250" y="-650" on="0"/>
        <pt x="-350" y="-650" on="1"/>
        <pt x="-438" y="-650" on="0"/>
        <pt x="-438" y="-550" on="1"/>
        <pt x="-438" y="-250" on="1"/>
        <pt x="-438" y="-100" on="0"/>
        <pt x="-264" y="-100" on="1"/>
        <pt x="-210" y="-100" on="0"/>
        <pt x="-138" y="-140" on="0"/>
        <pt x="-138" y="-190" on="1"/>
        <pt x="-138" y="-290" on="0"/>
        <pt x="-200" y="-350" on="1"/>
        <pt x="-200" y="-458" on="1"/>
        <pt x="-70" y="-329" on="1"/>
        <pt x="-35" y="-294" on="0"/>
        <pt x="0" y="-294" on="1"/>
        <pt x="36" y="-294" on="0"/>
        <pt x="71" y="-329" on="1"/>
        <pt x="200" y="-458" on="1"/>
      </contour>
    </TTGlyph>
    <TTGlyph name="glyph162" xMin="-438" yMin="-650" xMax="580" yMax="1500">
      <contour>
        <pt x="200" y="963" on="1"/>
        <pt x="200" y="1069" on="0"/>
        <pt x="20" y="1101" on="1"/>
        <pt x="40" y="1232" on="0"/>
        <pt x="221" y="1500" on="0"/>
        <pt x="275" y="1500" on="1"/>
        <pt x="319" y="1500" on="0"/>
        <pt x="390" y="1457" on="1"/>
        <pt x="460" y="1414" on="1"/>
        <pt x="491" y="1395" on="0"/>
        <pt x="533" y="1395" on="1"/>
        <pt x="555" y="1395" on="0"/>
        <pt x="580" y="1400" on="1"/>
        <pt x="570" y="1330" on="0"/>
        <pt x="509" y="1191" on="0"/>
        <pt x="458" y="1186" on="1"/>
        <pt x="453" y="1185" on="0"/>
        <pt x="448" y="1185" on="1"/>
        <pt x="398" y="1185" on="0"/>
        <pt x="313" y="1238" on="1"/>
        <pt x="287" y="1253" on="0"/>
        <pt x="265" y="1253" on="1"/>
        <pt x="202" y="1253" on="0"/>
        <pt x="186" y="1158" on="1"/>
        <pt x="480" y="1100" on="0"/>
        <pt x="480" y="970" on="1"/>
        <pt x="480" y="-400" on="1"/>
        <pt x="480" y="-650" on="0"/>
        <pt x="13" y="-650" on="1"/>
        <pt x="-438" y="-650" on="0"/>
        <pt x="-438" y="-400" on="1"/>
        <pt x="-438" y="-199" on="1"/>
        <pt x="-438" y="-100" on="0"/>
        <pt x="-314" y="-100" on="1"/>
        <pt x="-250" y="-100" on="0"/>
        <pt x="-194" y="-154" on="1"/>
        <pt x="-138" y="-209" on="0"/>
        <pt x="-138" y="-259" on="1"/>
        <pt x="-138" y="-349" on="0"/>
        <pt x="-200" y="-349" on="1"/>
        <pt x="-200" y="-400" on="1"/>
        <pt x="-200" y="-550" on="0"/>
        <pt x="13" y="-550" on="1"/>
        <pt x="200" y="-550" on="0"/>
        <pt x="200" y="-400" on="1"/>
      </contour>
    </TTGlyph>
    <TTGlyph name="glyph166" xMin="-550" yMin="-650" xMax="580" yMax="1500">
      <contour>
        <pt x="200" y="963" on="1"/>
        <pt x="200" y="1069" on="0"/>
        <pt x="20" y="1101" on="1"/>
        <pt x="40" y="1232" on="0"/>
        <pt x="221" y="1500" on="0"/>
        <pt x="275" y="1500" on="1"/>
        <pt x="319" y="1500" on="0"/>
        <pt x="390" y="1457" on="1"/>
        <pt x="460" y="1414" on="1"/>
        <pt x="491" y="1395" on="0"/>
        <pt x="533" y="1395" on="1"/>
        <pt x="555" y="1395" on="0"/>
        <pt x="580" y="1400" on="1"/>
        <pt x="570" y="1330" on="0"/>
        <pt x="509" y="1191" on="0"/>
        <pt x="458" y="1186" on="1"/>
        <pt x="453" y="1185" on="0"/>
        <pt x="448" y="1185" on="1"/>
        <pt x="398" y="1185" on="0"/>
        <pt x="313" y="1238" on="1"/>
        <pt x="287" y="1253" on="0"/>
        <pt x="265" y="1253" on="1"/>
        <pt x="202" y="1253" on="0"/>
        <pt x="186" y="1158" on="1"/>
        <pt x="480" y="1100" on="0"/>
        <pt x="480" y="970" on="1"/>
        <pt x="480" y="100" on="1"/>
        <pt x="580" y="100" on="1"/>
        <pt x="580" y="0" on="1"/>
        <pt x="480" y="0" on="1"/>
        <pt x="480" y="-400" on="1"/>
        <pt x="480" y="-650" on="0"/>
        <pt x="0" y="-650" on="1"/>
        <pt x="-438" y="-650" on="0"/>
        <pt x="-438" y="-400" on="1"/>
        <pt x="-438" y="-350" on="1"/>
        <pt x="-550" y="-350" on="0"/>
        <pt x="-550" y="-260" on="1"/>
        <pt x="-550" y="-210" on="0"/>
        <pt x="-494" y="-155" on="1"/>
        <pt x="-438" y="-100" on="0"/>
        <pt x="-374" y="-100" on="1"/>
        <pt x="-200" y="-100" on="0"/>
        <pt x="-200" y="-200" on="1"/>
        <pt x="-200" y="-400" on="1"/>
        <pt x="-200" y="-550" on="0"/>
        <pt x="0" y="-550" on="1"/>
        <pt x="200" y="-550" on="0"/>
        <pt x="200" y="-400" on="1"/>
        <pt x="200" y="0" on="1"/>
        <pt x="100" y="0" on="1"/>
        <pt x="100" y="100" on="1"/>
        <pt x="200" y="100" on="1"/>
      </contour>
    </TTGlyph>
    <TTGlyph name="glyph169" xMin="-500" yMin="-1200" xMax="-250" yMax="-700">
      <contour>
        <pt x="-250" y="-1200" on="1"/>
        <pt x="-450" y="-1200" on="1"/>
        <pt x="-450" y="-852" on="1"/>
        <pt x="-500" y="-835" on="0"/>
        <pt x="-500" y="-779" on="1"/>
        <pt x="-500" y="-700" on="0"/>
        <pt x="-375" y="-700" on="1"/>
        <pt x="-250" y="-700" on="0"/>
        <pt x="-250" y="-779" on="1"/>
      </contour>
    </TTGlyph>
    <TTGlyph name="glyph170" xMin="-851" yMin="-1200" xMax="-200" yMax="-700">
      <contour>
        <pt x="-561" y="-1200" on="1"/>
        <pt x="-840" y="-1200" on="0"/>
        <pt x="-840" y="-1059" on="1"/>
        <pt x="-840" y="-1018" on="0"/>
        <pt x="-821" y="-967" on="1"/>
        <pt x="-771" y="-852" on="1"/>
        <pt x="-851" y="-852" on="0"/>
        <pt x="-851" y="-776" on="1"/>
        <pt x="-851" y="-700" on="0"/>
        <pt x="-681" y="-700" on="1"/>
        <pt x="-558" y="-700" on="0"/>
        <pt x="-558" y="-796" on="1"/>
        <pt x="-558" y="-835" on="0"/>
        <pt x="-579" y="-891" on="1"/>
        <pt x="-620" y="-989" on="1"/>
        <pt x="-631" y="-1015" on="0"/>
        <pt x="-631" y="-1034" on="1"/>
        <pt x="-631" y="-1082" on="0"/>
        <pt x="-561" y="-1082" on="1"/>
        <pt x="-464" y="-1082" on="0"/>
        <pt x="-401" y="-909" on="1"/>
        <pt x="-329" y="-700" on="0"/>
        <pt x="-225" y="-700" on="1"/>
        <pt x="-200" y="-700" on="0"/>
        <pt x="-200" y="-751" on="1"/>
        <pt x="-200" y="-818" on="0"/>
        <pt x="-238" y="-967" on="1"/>
        <pt x="-296" y="-1200" on="0"/>
      </contour>
    </TTGlyph>
    <TTGlyph name="glyph171" xMin="-986" yMin="-1200" xMax="-200" yMax="-700">
      <contour>
        <pt x="-613" y="-1101" on="1"/>
        <pt x="-705" y="-1200" on="0"/>
        <pt x="-790" y="-1200" on="1"/>
        <pt x="-986" y="-1200" on="0"/>
        <pt x="-986" y="-1099" on="1"/>
        <pt x="-986" y="-1039" on="0"/>
        <pt x="-928" y="-947" on="1"/>
        <pt x="-866" y="-852" on="1"/>
        <pt x="-950" y="-852" on="0"/>
        <pt x="-950" y="-776" on="1"/>
        <pt x="-950" y="-700" on="0"/>
        <pt x="-780" y="-700" on="1"/>
        <pt x="-680" y="-700" on="0"/>
        <pt x="-650" y="-751" on="1"/>
        <pt x="-640" y="-769" on="0"/>
        <pt x="-640" y="-792" on="1"/>
        <pt x="-640" y="-834" on="0"/>
        <pt x="-676" y="-894" on="1"/>
        <pt x="-736" y="-987" on="1"/>
        <pt x="-774" y="-1049" on="0"/>
        <pt x="-774" y="-1076" on="1"/>
        <pt x="-774" y="-1098" on="0"/>
        <pt x="-750" y="-1098" on="1"/>
        <pt x="-698" y="-1098" on="0"/>
        <pt x="-557" y="-950" on="1"/>
        <pt x="-536" y="-1098" on="0"/>
        <pt x="-500" y="-1098" on="1"/>
        <pt x="-467" y="-1098" on="0"/>
        <pt x="-443" y="-1003" on="1"/>
        <pt x="-368" y="-700" on="0"/>
        <pt x="-329" y="-700" on="1"/>
        <pt x="-200" y="-700" on="0"/>
        <pt x="-200" y="-774" on="1"/>
        <pt x="-200" y="-883" on="0"/>
        <pt x="-294" y="-1200" on="0"/>
        <pt x="-460" y="-1200" on="1"/>
        <pt x="-573" y="-1200" on="0"/>
      </contour>
    </TTGlyph>
    <TTGlyph name="glyph172" xMin="-1150" yMin="2000" xMax="-250" yMax="2400">
      <contour>
        <pt x="-1150" y="2150" on="1"/>
        <pt x="-1150" y="2400" on="0"/>
        <pt x="-850" y="2400" on="1"/>
        <pt x="-590" y="2400" on="0"/>
        <pt x="-335" y="2175" on="1"/>
        <pt x="-250" y="2100" on="0"/>
        <pt x="-250" y="2050" on="1"/>
        <pt x="-250" y="2000" on="0"/>
        <pt x="-350" y="2000" on="1"/>
        <pt x="-950" y="2000" on="1"/>
        <pt x="-1150" y="2000" on="0"/>
      </contour>
      <contour>
        <pt x="-950" y="2150" on="1"/>
        <pt x="-950" y="2100" on="0"/>
        <pt x="-900" y="2100" on="1"/>
        <pt x="-430" y="2100" on="1"/>
        <pt x="-560" y="2157" on="0"/>
        <pt x="-739" y="2200" on="0"/>
        <pt x="-850" y="2200" on="1"/>
        <pt x="-950" y="2200" on="0"/>
      </contour>
    </TTGlyph>
    <TTGlyph name="glyph173" xMin="-1150" yMin="2000" xMax="-250" yMax="2500">
      <contour>
        <pt x="-950" y="2150" on="1"/>
        <pt x="-950" y="2100" on="0"/>
        <pt x="-900" y="2100" on="1"/>
        <pt x="-430" y="2100" on="1"/>
        <pt x="-560" y="2157" on="0"/>
        <pt x="-739" y="2200" on="0"/>
        <pt x="-850" y="2200" on="1"/>
        <pt x="-950" y="2200" on="0"/>
      </contour>
      <contour>
        <pt x="-420" y="2244" on="1"/>
        <pt x="-420" y="2500" on="1"/>
        <pt x="-250" y="2500" on="1"/>
        <pt x="-250" y="2050" on="1"/>
        <pt x="-250" y="2000" on="0"/>
        <pt x="-350" y="2000" on="1"/>
        <pt x="-950" y="2000" on="1"/>
        <pt x="-1150" y="2000" on="0"/>
        <pt x="-1150" y="2150" on="1"/>
        <pt x="-1150" y="2400" on="0"/>
        <pt x="-850" y="2400" on="1"/>
        <pt x="-633" y="2400" on="0"/>
      </contour>
    </TTGlyph>
    <TTGlyph name="glyph174" xMin="-1150" yMin="2000" xMax="-250" yMax="2500">
      <contour>
        <pt x="-646" y="2345" on="1"/>
        <pt x="-646" y="2349" on="1"/>
        <pt x="-635" y="2424" on="0"/>
        <pt x="-586" y="2462" on="1"/>
        <pt x="-536" y="2500" on="0"/>
        <pt x="-450" y="2500" on="1"/>
        <pt x="-350" y="2500" on="0"/>
        <pt x="-300" y="2450" on="1"/>
        <pt x="-250" y="2400" on="0"/>
        <pt x="-250" y="2300" on="1"/>
        <pt x="-250" y="2185" on="0"/>
        <pt x="-316" y="2136" on="1"/>
        <pt x="-318" y="2134" on="1"/>
        <pt x="-250" y="2077" on="0"/>
        <pt x="-250" y="2050" on="1"/>
        <pt x="-250" y="2000" on="0"/>
        <pt x="-350" y="2000" on="1"/>
        <pt x="-950" y="2000" on="1"/>
        <pt x="-1150" y="2000" on="0"/>
        <pt x="-1150" y="2150" on="1"/>
        <pt x="-1150" y="2400" on="0"/>
        <pt x="-870" y="2400" on="1"/>
        <pt x="-762" y="2400" on="0"/>
      </contour>
      <contour>
        <pt x="-529" y="2281" on="1"/>
        <pt x="-505" y="2266" on="0"/>
        <pt x="-480" y="2250" on="1"/>
        <pt x="-456" y="2235" on="0"/>
        <pt x="-435" y="2220" on="1"/>
        <pt x="-370" y="2228" on="0"/>
        <pt x="-370" y="2300" on="1"/>
        <pt x="-370" y="2380" on="0"/>
        <pt x="-450" y="2380" on="1"/>
        <pt x="-530" y="2380" on="0"/>
        <pt x="-530" y="2300" on="1"/>
        <pt x="-530" y="2294" on="0"/>
      </contour>
      <contour>
        <pt x="-950" y="2150" on="1"/>
        <pt x="-950" y="2100" on="0"/>
        <pt x="-900" y="2100" on="1"/>
        <pt x="-430" y="2100" on="1"/>
        <pt x="-560" y="2157" on="0"/>
        <pt x="-739" y="2200" on="0"/>
        <pt x="-850" y="2200" on="1"/>
        <pt x="-950" y="2200" on="0"/>
      </contour>
    </TTGlyph>
    <TTGlyph name="glyph175" xMin="-1150" yMin="2000" xMax="-250" yMax="2500">
      <contour>
        <pt x="-950" y="2150" on="1"/>
        <pt x="-950" y="2100" on="0"/>
        <pt x="-900" y="2100" on="1"/>
        <pt x="-430" y="2100" on="1"/>
        <pt x="-560" y="2157" on="0"/>
        <pt x="-739" y="2200" on="0"/>
        <pt x="-850" y="2200" on="1"/>
        <pt x="-950" y="2200" on="0"/>
      </contour>
      <contour>
        <pt x="-700" y="2381" on="1"/>
        <pt x="-700" y="2500" on="1"/>
        <pt x="-530" y="2500" on="1"/>
        <pt x="-530" y="2314" on="1"/>
        <pt x="-475" y="2284" on="0"/>
        <pt x="-420" y="2244" on="1"/>
        <pt x="-420" y="2500" on="1"/>
        <pt x="-250" y="2500" on="1"/>
        <pt x="-250" y="2050" on="1"/>
        <pt x="-250" y="2000" on="0"/>
        <pt x="-350" y="2000" on="1"/>
        <pt x="-950" y="2000" on="1"/>
        <pt x="-1150" y="2000" on="0"/>
        <pt x="-1150" y="2150" on="1"/>
        <pt x="-1150" y="2400" on="0"/>
        <pt x="-850" y="2400" on="1"/>
        <pt x="-775" y="2400" on="0"/>
      </contour>
    </TTGlyph>
    <TTGlyph name="glyph176" xMin="-975" yMin="2000" xMax="-425" yMax="2450">
      <contour>
        <pt x="-780" y="2225" on="1"/>
        <pt x="-780" y="2175" on="0"/>
        <pt x="-740" y="2125" on="0"/>
        <pt x="-700" y="2125" on="1"/>
        <pt x="-660" y="2125" on="0"/>
        <pt x="-620" y="2175" on="0"/>
        <pt x="-620" y="2225" on="1"/>
        <pt x="-620" y="2275" on="0"/>
        <pt x="-660" y="2325" on="0"/>
        <pt x="-700" y="2325" on="1"/>
        <pt x="-740" y="2325" on="0"/>
        <pt x="-780" y="2275" on="0"/>
      </contour>
      <contour>
        <pt x="-425" y="2225" on="1"/>
        <pt x="-425" y="2112" on="0"/>
        <pt x="-493" y="2056" on="1"/>
        <pt x="-562" y="2000" on="0"/>
        <pt x="-700" y="2000" on="1"/>
        <pt x="-838" y="2000" on="0"/>
        <pt x="-907" y="2056" on="1"/>
        <pt x="-975" y="2112" on="0"/>
        <pt x="-975" y="2225" on="1"/>
        <pt x="-975" y="2338" on="0"/>
        <pt x="-907" y="2394" on="1"/>
        <pt x="-838" y="2450" on="0"/>
        <pt x="-700" y="2450" on="1"/>
        <pt x="-562" y="2450" on="0"/>
        <pt x="-493" y="2394" on="1"/>
        <pt x="-425" y="2338" on="0"/>
      </contour>
    </TTGlyph>
    <TTGlyph name="glyph177" xMin="-960" yMin="2000" xMax="-440" yMax="2419">
      <contour>
        <pt x="-810" y="2149" on="1"/>
        <pt x="-960" y="2149" on="1"/>
        <pt x="-960" y="2270" on="1"/>
        <pt x="-810" y="2270" on="1"/>
        <pt x="-810" y="2419" on="1"/>
        <pt x="-590" y="2419" on="1"/>
        <pt x="-590" y="2270" on="1"/>
        <pt x="-440" y="2270" on="1"/>
        <pt x="-440" y="2149" on="1"/>
        <pt x="-590" y="2149" on="1"/>
        <pt x="-590" y="2000" on="1"/>
        <pt x="-810" y="2000" on="1"/>
      </contour>
    </TTGlyph>
    <TTGlyph name="glyph178" xMin="-950" yMin="2000" xMax="-150" yMax="2500">
      <contour>
        <pt x="-730" y="2328" on="1"/>
        <pt x="-600" y="2328" on="0"/>
        <pt x="-600" y="2230" on="1"/>
        <pt x="-600" y="2141" on="0"/>
        <pt x="-675" y="2141" on="1"/>
        <pt x="-740" y="2141" on="0"/>
        <pt x="-750" y="2188" on="1"/>
        <pt x="-750" y="2095" on="0"/>
        <pt x="-650" y="2095" on="1"/>
        <pt x="-475" y="2095" on="0"/>
        <pt x="-412" y="2144" on="1"/>
        <pt x="-350" y="2194" on="0"/>
        <pt x="-350" y="2294" on="1"/>
        <pt x="-350" y="2406" on="0"/>
        <pt x="-400" y="2406" on="1"/>
        <pt x="-450" y="2406" on="0"/>
        <pt x="-450" y="2453" on="1"/>
        <pt x="-450" y="2500" on="0"/>
        <pt x="-400" y="2500" on="1"/>
        <pt x="-275" y="2500" on="0"/>
        <pt x="-212" y="2448" on="1"/>
        <pt x="-150" y="2397" on="0"/>
        <pt x="-150" y="2294" on="1"/>
        <pt x="-150" y="2146" on="0"/>
        <pt x="-262" y="2073" on="1"/>
        <pt x="-375" y="2000" on="0"/>
        <pt x="-650" y="2000" on="1"/>
        <pt x="-825" y="2000" on="0"/>
        <pt x="-888" y="2047" on="1"/>
        <pt x="-950" y="2094" on="0"/>
        <pt x="-950" y="2188" on="1"/>
        <pt x="-950" y="2328" on="0"/>
      </contour>
    </TTGlyph>
    <TTGlyph name="glyph179" xMin="200" yMin="0" xMax="1900" yMax="1500">
      <contour>
        <pt x="480" y="150" on="1"/>
        <pt x="550" y="150" on="0"/>
        <pt x="550" y="400" on="1"/>
        <pt x="550" y="500" on="0"/>
        <pt x="480" y="500" on="1"/>
      </contour>
      <contour>
        <pt x="1119" y="1385" on="1"/>
        <pt x="1229" y="1500" on="0"/>
        <pt x="1410" y="1500" on="1"/>
        <pt x="1900" y="1500" on="0"/>
        <pt x="1900" y="1081" on="1"/>
        <pt x="1900" y="0" on="1"/>
        <pt x="1620" y="0" on="1"/>
        <pt x="1620" y="1081" on="1"/>
        <pt x="1620" y="1380" on="0"/>
        <pt x="1410" y="1380" on="1"/>
        <pt x="1200" y="1380" on="0"/>
        <pt x="1200" y="1081" on="1"/>
        <pt x="1200" y="0" on="1"/>
        <pt x="920" y="0" on="1"/>
        <pt x="920" y="1200" on="1"/>
        <pt x="920" y="1304" on="0"/>
        <pt x="870" y="1304" on="1"/>
        <pt x="820" y="1304" on="0"/>
        <pt x="700" y="1200" on="1"/>
        <pt x="581" y="1304" on="0"/>
        <pt x="531" y="1304" on="1"/>
        <pt x="480" y="1304" on="0"/>
        <pt x="480" y="1200" on="1"/>
        <pt x="480" y="600" on="1"/>
        <pt x="650" y="600" on="0"/>
        <pt x="650" y="400" on="1"/>
        <pt x="650" y="200" on="0"/>
        <pt x="525" y="0" on="0"/>
        <pt x="450" y="0" on="1"/>
        <pt x="200" y="0" on="0"/>
        <pt x="200" y="100" on="1"/>
        <pt x="200" y="1200" on="1"/>
        <pt x="200" y="1322" on="0"/>
        <pt x="310" y="1411" on="1"/>
        <pt x="420" y="1500" on="0"/>
        <pt x="479" y="1500" on="1"/>
        <pt x="529" y="1500" on="0"/>
        <pt x="700" y="1366" on="1"/>
        <pt x="872" y="1500" on="0"/>
        <pt x="922" y="1500" on="1"/>
        <pt x="981" y="1500" on="0"/>
        <pt x="1090" y="1411" on="1"/>
      </contour>
    </TTGlyph>
    <TTGlyph name="glyph180" xMin="-1850" yMin="-650" xMax="-950" yMax="-100">
      <contour>
        <pt x="-1600" y="-518" on="1"/>
        <pt x="-1550" y="-474" on="0"/>
        <pt x="-1550" y="-449" on="1"/>
        <pt x="-1550" y="-420" on="0"/>
        <pt x="-1600" y="-420" on="1"/>
      </contour>
      <contour>
        <pt x="-1600" y="-329" on="1"/>
        <pt x="-1450" y="-329" on="0"/>
        <pt x="-1450" y="-448" on="1"/>
        <pt x="-1450" y="-512" on="0"/>
        <pt x="-1525" y="-581" on="1"/>
        <pt x="-1600" y="-650" on="0"/>
        <pt x="-1700" y="-650" on="1"/>
        <pt x="-1850" y="-650" on="0"/>
        <pt x="-1850" y="-516" on="1"/>
        <pt x="-1850" y="-283" on="1"/>
        <pt x="-1850" y="-100" on="0"/>
        <pt x="-1400" y="-100" on="1"/>
        <pt x="-950" y="-100" on="0"/>
        <pt x="-950" y="-283" on="1"/>
        <pt x="-950" y="-650" on="1"/>
        <pt x="-1200" y="-650" on="1"/>
        <pt x="-1200" y="-283" on="1"/>
        <pt x="-1200" y="-191" on="0"/>
        <pt x="-1400" y="-191" on="1"/>
        <pt x="-1600" y="-191" on="0"/>
        <pt x="-1600" y="-283" on="1"/>
      </contour>
    </TTGlyph>
    <TTGlyph name="glyph181" xMin="-1200" yMin="-1200" xMax="-950" yMax="-700">
      <contour>
        <pt x="-950" y="-1200" on="1"/>
        <pt x="-1150" y="-1200" on="1"/>
        <pt x="-1150" y="-852" on="1"/>
        <pt x="-1200" y="-835" on="0"/>
        <pt x="-1200" y="-779" on="1"/>
        <pt x="-1200" y="-700" on="0"/>
        <pt x="-1075" y="-700" on="1"/>
        <pt x="-950" y="-700" on="0"/>
        <pt x="-950" y="-779" on="1"/>
      </contour>
    </TTGlyph>
    <TTGlyph name="glyph182" xMin="-1551" yMin="-1200" xMax="-900" yMax="-700">
      <contour>
        <pt x="-1261" y="-1200" on="1"/>
        <pt x="-1540" y="-1200" on="0"/>
        <pt x="-1540" y="-1059" on="1"/>
        <pt x="-1540" y="-1018" on="0"/>
        <pt x="-1521" y="-967" on="1"/>
        <pt x="-1471" y="-852" on="1"/>
        <pt x="-1551" y="-852" on="0"/>
        <pt x="-1551" y="-776" on="1"/>
        <pt x="-1551" y="-700" on="0"/>
        <pt x="-1381" y="-700" on="1"/>
        <pt x="-1258" y="-700" on="0"/>
        <pt x="-1258" y="-796" on="1"/>
        <pt x="-1258" y="-835" on="0"/>
        <pt x="-1279" y="-891" on="1"/>
        <pt x="-1320" y="-989" on="1"/>
        <pt x="-1331" y="-1015" on="0"/>
        <pt x="-1331" y="-1034" on="1"/>
        <pt x="-1331" y="-1082" on="0"/>
        <pt x="-1261" y="-1082" on="1"/>
        <pt x="-1164" y="-1082" on="0"/>
        <pt x="-1101" y="-909" on="1"/>
        <pt x="-1029" y="-700" on="0"/>
        <pt x="-925" y="-700" on="1"/>
        <pt x="-900" y="-700" on="0"/>
        <pt x="-900" y="-751" on="1"/>
        <pt x="-900" y="-818" on="0"/>
        <pt x="-938" y="-967" on="1"/>
        <pt x="-996" y="-1200" on="0"/>
      </contour>
    </TTGlyph>
    <TTGlyph name="glyph183" xMin="-1686" yMin="-1200" xMax="-900" yMax="-700">
      <contour>
        <pt x="-1313" y="-1101" on="1"/>
        <pt x="-1405" y="-1200" on="0"/>
        <pt x="-1490" y="-1200" on="1"/>
        <pt x="-1686" y="-1200" on="0"/>
        <pt x="-1686" y="-1099" on="1"/>
        <pt x="-1686" y="-1039" on="0"/>
        <pt x="-1628" y="-947" on="1"/>
        <pt x="-1566" y="-852" on="1"/>
        <pt x="-1650" y="-852" on="0"/>
        <pt x="-1650" y="-776" on="1"/>
        <pt x="-1650" y="-700" on="0"/>
        <pt x="-1480" y="-700" on="1"/>
        <pt x="-1380" y="-700" on="0"/>
        <pt x="-1350" y="-751" on="1"/>
        <pt x="-1340" y="-769" on="0"/>
        <pt x="-1340" y="-792" on="1"/>
        <pt x="-1340" y="-834" on="0"/>
        <pt x="-1376" y="-894" on="1"/>
        <pt x="-1436" y="-987" on="1"/>
        <pt x="-1474" y="-1049" on="0"/>
        <pt x="-1474" y="-1076" on="1"/>
        <pt x="-1474" y="-1098" on="0"/>
        <pt x="-1450" y="-1098" on="1"/>
        <pt x="-1398" y="-1098" on="0"/>
        <pt x="-1257" y="-950" on="1"/>
        <pt x="-1236" y="-1098" on="0"/>
        <pt x="-1200" y="-1098" on="1"/>
        <pt x="-1167" y="-1098" on="0"/>
        <pt x="-1143" y="-1003" on="1"/>
        <pt x="-1068" y="-700" on="0"/>
        <pt x="-1029" y="-700" on="1"/>
        <pt x="-900" y="-700" on="0"/>
        <pt x="-900" y="-774" on="1"/>
        <pt x="-900" y="-883" on="0"/>
        <pt x="-994" y="-1200" on="0"/>
        <pt x="-1160" y="-1200" on="1"/>
        <pt x="-1273" y="-1200" on="0"/>
      </contour>
    </TTGlyph>
    <TTGlyph name="glyph185" xMin="-700" yMin="-1200" xMax="480" yMax="2400">
      <contour>
        <pt x="-500" y="2050" on="1"/>
        <pt x="-500" y="2000" on="0"/>
        <pt x="-450" y="2000" on="1"/>
        <pt x="20" y="2000" on="1"/>
        <pt x="-110" y="2057" on="0"/>
        <pt x="-289" y="2100" on="0"/>
        <pt x="-400" y="2100" on="1"/>
        <pt x="-500" y="2100" on="0"/>
      </contour>
      <contour>
        <pt x="200" y="1610" on="1"/>
        <pt x="200" y="1900" on="0"/>
        <pt x="10" y="1900" on="1"/>
        <pt x="-500" y="1900" on="1"/>
        <pt x="-700" y="1900" on="0"/>
        <pt x="-700" y="2050" on="1"/>
        <pt x="-700" y="2300" on="0"/>
        <pt x="-400" y="2300" on="1"/>
        <pt x="-325" y="2300" on="0"/>
        <pt x="-250" y="2281" on="1"/>
        <pt x="-250" y="2400" on="1"/>
        <pt x="-80" y="2400" on="1"/>
        <pt x="-80" y="2214" on="1"/>
        <pt x="-25" y="2184" on="0"/>
        <pt x="30" y="2144" on="1"/>
        <pt x="30" y="2400" on="1"/>
        <pt x="200" y="2400" on="1"/>
        <pt x="200" y="1999" on="1"/>
        <pt x="480" y="1926" on="0"/>
        <pt x="480" y="1610" on="1"/>
        <pt x="480" y="-950" on="1"/>
        <pt x="480" y="-1200" on="0"/>
        <pt x="0" y="-1200" on="1"/>
        <pt x="-480" y="-1200" on="0"/>
        <pt x="-480" y="-950" on="1"/>
        <pt x="-480" y="-700" on="1"/>
        <pt x="-200" y="-700" on="1"/>
        <pt x="-200" y="-950" on="1"/>
        <pt x="-200" y="-1080" on="0"/>
        <pt x="0" y="-1080" on="1"/>
        <pt x="200" y="-1080" on="0"/>
        <pt x="200" y="-950" on="1"/>
      </contour>
    </TTGlyph>
    <TTGlyph name="glyph186" xMin="-570" yMin="-1200" xMax="480" yMax="2461">
      <contour>
        <pt x="200" y="1640" on="1"/>
        <pt x="200" y="1930" on="0"/>
        <pt x="10" y="1930" on="1"/>
        <pt x="-100" y="1930" on="0"/>
        <pt x="-222" y="1804" on="0"/>
        <pt x="-264" y="1800" on="1"/>
        <pt x="-273" y="1800" on="1"/>
        <pt x="-410" y="1800" on="0"/>
        <pt x="-451" y="1830" on="1"/>
        <pt x="-520" y="1905" on="0"/>
        <pt x="-520" y="2021" on="1"/>
        <pt x="-520" y="2086" on="0"/>
        <pt x="-480" y="2221" on="0"/>
        <pt x="-480" y="2291" on="1"/>
        <pt x="-480" y="2361" on="0"/>
        <pt x="-570" y="2361" on="1"/>
        <pt x="-570" y="2461" on="0"/>
        <pt x="-385" y="2461" on="1"/>
        <pt x="-200" y="2461" on="0"/>
        <pt x="-200" y="2291" on="1"/>
        <pt x="-200" y="2206" on="0"/>
        <pt x="-252" y="2091" on="0"/>
        <pt x="-252" y="2021" on="1"/>
        <pt x="-252" y="1978" on="1"/>
        <pt x="-120" y="2050" on="0"/>
        <pt x="10" y="2050" on="1"/>
        <pt x="480" y="2050" on="0"/>
        <pt x="480" y="1640" on="1"/>
        <pt x="480" y="-950" on="1"/>
        <pt x="480" y="-1200" on="0"/>
        <pt x="0" y="-1200" on="1"/>
        <pt x="-480" y="-1200" on="0"/>
        <pt x="-480" y="-950" on="1"/>
        <pt x="-480" y="-700" on="1"/>
        <pt x="-200" y="-700" on="1"/>
        <pt x="-200" y="-950" on="1"/>
        <pt x="-200" y="-1080" on="0"/>
        <pt x="0" y="-1080" on="1"/>
        <pt x="200" y="-1080" on="0"/>
        <pt x="200" y="-950" on="1"/>
      </contour>
    </TTGlyph>
    <TTGlyph name="glyph187" xMin="-850" yMin="-1200" xMax="580" yMax="1500">
      <contour>
        <pt x="480" y="-960" on="1"/>
        <pt x="480" y="-1100" on="0"/>
        <pt x="307" y="-1200" on="0"/>
        <pt x="75" y="-1200" on="1"/>
        <pt x="-45" y="-1200" on="0"/>
        <pt x="-115" y="-1186" on="1"/>
        <pt x="-184" y="-1172" on="0"/>
        <pt x="-202" y="-1145" on="1"/>
        <pt x="-219" y="-1172" on="0"/>
        <pt x="-273" y="-1186" on="1"/>
        <pt x="-327" y="-1200" on="0"/>
        <pt x="-425" y="-1200" on="1"/>
        <pt x="-595" y="-1200" on="0"/>
        <pt x="-670" y="-1150" on="1"/>
        <pt x="-745" y="-1100" on="0"/>
        <pt x="-745" y="-1000" on="1"/>
        <pt x="-745" y="-900" on="1"/>
        <pt x="-803" y="-900" on="0"/>
        <pt x="-850" y="-850" on="0"/>
        <pt x="-850" y="-795" on="1"/>
        <pt x="-850" y="-750" on="0"/>
        <pt x="-745" y="-700" on="1"/>
        <pt x="-517" y="-700" on="1"/>
        <pt x="-517" y="-961" on="1"/>
        <pt x="-517" y="-1100" on="0"/>
        <pt x="-425" y="-1100" on="1"/>
        <pt x="-314" y="-1100" on="0"/>
        <pt x="-314" y="-960" on="1"/>
        <pt x="-314" y="-700" on="1"/>
        <pt x="-86" y="-700" on="1"/>
        <pt x="-86" y="-960" on="1"/>
        <pt x="-86" y="-1100" on="0"/>
        <pt x="75" y="-1100" on="1"/>
        <pt x="200" y="-1100" on="0"/>
        <pt x="200" y="-960" on="1"/>
        <pt x="200" y="963" on="1"/>
        <pt x="200" y="1069" on="0"/>
        <pt x="20" y="1101" on="1"/>
        <pt x="40" y="1232" on="0"/>
        <pt x="221" y="1500" on="0"/>
        <pt x="275" y="1500" on="1"/>
        <pt x="319" y="1500" on="0"/>
        <pt x="390" y="1457" on="1"/>
        <pt x="460" y="1414" on="1"/>
        <pt x="491" y="1395" on="0"/>
        <pt x="533" y="1395" on="1"/>
        <pt x="555" y="1395" on="0"/>
        <pt x="580" y="1400" on="1"/>
        <pt x="570" y="1330" on="0"/>
        <pt x="509" y="1191" on="0"/>
        <pt x="458" y="1186" on="1"/>
        <pt x="453" y="1185" on="0"/>
        <pt x="448" y="1185" on="1"/>
        <pt x="398" y="1185" on="0"/>
        <pt x="313" y="1238" on="1"/>
        <pt x="287" y="1253" on="0"/>
        <pt x="265" y="1253" on="1"/>
        <pt x="202" y="1253" on="0"/>
        <pt x="186" y="1158" on="1"/>
        <pt x="480" y="1100" on="0"/>
        <pt x="480" y="970" on="1"/>
      </contour>
    </TTGlyph>
    <TTGlyph name="glyph188" xMin="-1237" yMin="-1200" xMax="580" yMax="1500">
      <contour>
        <pt x="480" y="-982" on="1"/>
        <pt x="480" y="-1109" on="0"/>
        <pt x="287" y="-1200" on="0"/>
        <pt x="42" y="-1200" on="1"/>
        <pt x="-85" y="-1200" on="0"/>
        <pt x="-155" y="-1187" on="1"/>
        <pt x="-224" y="-1175" on="0"/>
        <pt x="-242" y="-1150" on="1"/>
        <pt x="-259" y="-1175" on="0"/>
        <pt x="-313" y="-1187" on="1"/>
        <pt x="-367" y="-1200" on="0"/>
        <pt x="-465" y="-1200" on="1"/>
        <pt x="-645" y="-1200" on="0"/>
        <pt x="-720" y="-1155" on="1"/>
        <pt x="-795" y="-1109" on="0"/>
        <pt x="-795" y="-973" on="1"/>
        <pt x="-795" y="-900" on="1"/>
        <pt x="-795" y="-791" on="0"/>
        <pt x="-897" y="-791" on="1"/>
        <pt x="-989" y="-791" on="0"/>
        <pt x="-989" y="-900" on="1"/>
        <pt x="-989" y="-973" on="1"/>
        <pt x="-964" y="-973" on="1"/>
        <pt x="-889" y="-973" on="0"/>
        <pt x="-889" y="-1018" on="1"/>
        <pt x="-889" y="-1062" on="0"/>
        <pt x="-939" y="-1132" on="1"/>
        <pt x="-989" y="-1200" on="0"/>
        <pt x="-1102" y="-1200" on="1"/>
        <pt x="-1237" y="-1200" on="0"/>
        <pt x="-1237" y="-1109" on="1"/>
        <pt x="-1237" y="-899" on="1"/>
        <pt x="-1237" y="-791" on="0"/>
        <pt x="-1162" y="-745" on="1"/>
        <pt x="-1087" y="-700" on="0"/>
        <pt x="-897" y="-700" on="1"/>
        <pt x="-697" y="-700" on="0"/>
        <pt x="-622" y="-745" on="1"/>
        <pt x="-547" y="-791" on="0"/>
        <pt x="-547" y="-900" on="1"/>
        <pt x="-547" y="-983" on="1"/>
        <pt x="-547" y="-1109" on="0"/>
        <pt x="-465" y="-1109" on="1"/>
        <pt x="-364" y="-1109" on="0"/>
        <pt x="-364" y="-982" on="1"/>
        <pt x="-364" y="-700" on="1"/>
        <pt x="-116" y="-700" on="1"/>
        <pt x="-116" y="-982" on="1"/>
        <pt x="-116" y="-1109" on="0"/>
        <pt x="42" y="-1109" on="1"/>
        <pt x="200" y="-1109" on="0"/>
        <pt x="200" y="-982" on="1"/>
        <pt x="200" y="963" on="1"/>
        <pt x="200" y="1069" on="0"/>
        <pt x="20" y="1101" on="1"/>
        <pt x="40" y="1232" on="0"/>
        <pt x="221" y="1500" on="0"/>
        <pt x="275" y="1500" on="1"/>
        <pt x="319" y="1500" on="0"/>
        <pt x="390" y="1457" on="1"/>
        <pt x="460" y="1414" on="1"/>
        <pt x="491" y="1395" on="0"/>
        <pt x="533" y="1395" on="1"/>
        <pt x="555" y="1395" on="0"/>
        <pt x="580" y="1400" on="1"/>
        <pt x="570" y="1330" on="0"/>
        <pt x="509" y="1191" on="0"/>
        <pt x="458" y="1186" on="1"/>
        <pt x="453" y="1185" on="0"/>
        <pt x="448" y="1185" on="1"/>
        <pt x="398" y="1185" on="0"/>
        <pt x="313" y="1238" on="1"/>
        <pt x="287" y="1253" on="0"/>
        <pt x="265" y="1253" on="1"/>
        <pt x="202" y="1253" on="0"/>
        <pt x="186" y="1158" on="1"/>
        <pt x="480" y="1100" on="0"/>
        <pt x="480" y="970" on="1"/>
      </contour>
    </TTGlyph>
    <TTGlyph name="glyph189" xMin="-1180" yMin="-1200" xMax="580" yMax="1500">
      <contour>
        <pt x="-932" y="-1054" on="1"/>
        <pt x="-932" y="-1117" on="1"/>
        <pt x="-891" y="-1117" on="0"/>
        <pt x="-891" y="-1075" on="1"/>
        <pt x="-891" y="-1065" on="0"/>
        <pt x="-902" y="-1059" on="1"/>
        <pt x="-912" y="-1054" on="0"/>
      </contour>
      <contour>
        <pt x="480" y="-991" on="1"/>
        <pt x="480" y="-1200" on="0"/>
        <pt x="135" y="-1200" on="1"/>
        <pt x="5" y="-1200" on="0"/>
        <pt x="-145" y="-1017" on="0"/>
        <pt x="-195" y="-1017" on="1"/>
        <pt x="-220" y="-1017" on="1"/>
        <pt x="-220" y="-1100" on="1"/>
        <pt x="-220" y="-1200" on="0"/>
        <pt x="-375" y="-1200" on="1"/>
        <pt x="-460" y="-1200" on="0"/>
        <pt x="-560" y="-1058" on="0"/>
        <pt x="-560" y="-1017" on="1"/>
        <pt x="-560" y="-975" on="0"/>
        <pt x="-535" y="-954" on="1"/>
        <pt x="-511" y="-934" on="0"/>
        <pt x="-466" y="-933" on="1"/>
        <pt x="-467" y="-933" on="1"/>
        <pt x="-467" y="-880" on="0"/>
        <pt x="-520" y="-844" on="1"/>
        <pt x="-532" y="-837" on="0"/>
        <pt x="-547" y="-837" on="1"/>
        <pt x="-601" y="-837" on="0"/>
        <pt x="-699" y="-934" on="1"/>
        <pt x="-798" y="-837" on="0"/>
        <pt x="-852" y="-837" on="1"/>
        <pt x="-867" y="-837" on="0"/>
        <pt x="-879" y="-844" on="1"/>
        <pt x="-932" y="-880" on="0"/>
        <pt x="-932" y="-933" on="1"/>
        <pt x="-932" y="-971" on="1"/>
        <pt x="-869" y="-971" on="0"/>
        <pt x="-838" y="-997" on="1"/>
        <pt x="-807" y="-1023" on="0"/>
        <pt x="-807" y="-1075" on="1"/>
        <pt x="-807" y="-1200" on="0"/>
        <pt x="-932" y="-1200" on="1"/>
        <pt x="-1056" y="-1200" on="1"/>
        <pt x="-1180" y="-1200" on="0"/>
        <pt x="-1180" y="-1117" on="1"/>
        <pt x="-1180" y="-933" on="1"/>
        <pt x="-1180" y="-832" on="0"/>
        <pt x="-915" y="-700" on="0"/>
        <pt x="-862" y="-700" on="1"/>
        <pt x="-818" y="-700" on="0"/>
        <pt x="-699" y="-795" on="1"/>
        <pt x="-580" y="-700" on="0"/>
        <pt x="-536" y="-700" on="1"/>
        <pt x="-484" y="-700" on="0"/>
        <pt x="-220" y="-832" on="0"/>
        <pt x="-220" y="-933" on="1"/>
        <pt x="-195" y="-933" on="1"/>
        <pt x="-75" y="-933" on="0"/>
        <pt x="75" y="-1117" on="0"/>
        <pt x="135" y="-1117" on="1"/>
        <pt x="200" y="-1117" on="0"/>
        <pt x="200" y="-991" on="1"/>
        <pt x="200" y="963" on="1"/>
        <pt x="200" y="1069" on="0"/>
        <pt x="20" y="1101" on="1"/>
        <pt x="40" y="1232" on="0"/>
        <pt x="221" y="1500" on="0"/>
        <pt x="275" y="1500" on="1"/>
        <pt x="319" y="1500" on="0"/>
        <pt x="390" y="1457" on="1"/>
        <pt x="460" y="1414" on="1"/>
        <pt x="491" y="1395" on="0"/>
        <pt x="533" y="1395" on="1"/>
        <pt x="555" y="1395" on="0"/>
        <pt x="580" y="1400" on="1"/>
        <pt x="570" y="1330" on="0"/>
        <pt x="509" y="1191" on="0"/>
        <pt x="458" y="1186" on="1"/>
        <pt x="453" y="1185" on="0"/>
        <pt x="448" y="1185" on="1"/>
        <pt x="398" y="1185" on="0"/>
        <pt x="313" y="1238" on="1"/>
        <pt x="287" y="1253" on="0"/>
        <pt x="265" y="1253" on="1"/>
        <pt x="202" y="1253" on="0"/>
        <pt x="186" y="1158" on="1"/>
        <pt x="480" y="1100" on="0"/>
        <pt x="480" y="970" on="1"/>
      </contour>
    </TTGlyph>
    <TTGlyph name="glyph190" xMin="-438" yMin="-1200" xMax="580" yMax="1500">
      <contour>
        <pt x="480" y="-1109" on="1"/>
        <pt x="480" y="-1200" on="0"/>
        <pt x="350" y="-1200" on="1"/>
        <pt x="250" y="-1200" on="0"/>
        <pt x="188" y="-1143" on="1"/>
        <pt x="0" y="-973" on="1"/>
        <pt x="-187" y="-1143" on="1"/>
        <pt x="-250" y="-1200" on="0"/>
        <pt x="-350" y="-1200" on="1"/>
        <pt x="-438" y="-1200" on="0"/>
        <pt x="-438" y="-1109" on="1"/>
        <pt x="-438" y="-836" on="1"/>
        <pt x="-438" y="-700" on="0"/>
        <pt x="-264" y="-700" on="1"/>
        <pt x="-210" y="-700" on="0"/>
        <pt x="-138" y="-736" on="0"/>
        <pt x="-138" y="-782" on="1"/>
        <pt x="-138" y="-873" on="0"/>
        <pt x="-200" y="-927" on="1"/>
        <pt x="-200" y="-1025" on="1"/>
        <pt x="-70" y="-908" on="1"/>
        <pt x="-35" y="-876" on="0"/>
        <pt x="0" y="-876" on="1"/>
        <pt x="36" y="-876" on="0"/>
        <pt x="71" y="-908" on="1"/>
        <pt x="200" y="-1025" on="1"/>
        <pt x="200" y="963" on="1"/>
        <pt x="200" y="1069" on="0"/>
        <pt x="20" y="1101" on="1"/>
        <pt x="40" y="1232" on="0"/>
        <pt x="221" y="1500" on="0"/>
        <pt x="275" y="1500" on="1"/>
        <pt x="319" y="1500" on="0"/>
        <pt x="390" y="1457" on="1"/>
        <pt x="460" y="1414" on="1"/>
        <pt x="491" y="1395" on="0"/>
        <pt x="533" y="1395" on="1"/>
        <pt x="555" y="1395" on="0"/>
        <pt x="580" y="1400" on="1"/>
        <pt x="570" y="1330" on="0"/>
        <pt x="509" y="1191" on="0"/>
        <pt x="458" y="1186" on="1"/>
        <pt x="453" y="1185" on="0"/>
        <pt x="448" y="1185" on="1"/>
        <pt x="398" y="1185" on="0"/>
        <pt x="313" y="1238" on="1"/>
        <pt x="287" y="1253" on="0"/>
        <pt x="265" y="1253" on="1"/>
        <pt x="202" y="1253" on="0"/>
        <pt x="186" y="1158" on="1"/>
        <pt x="480" y="1100" on="0"/>
        <pt x="480" y="970" on="1"/>
      </contour>
    </TTGlyph>
    <TTGlyph name="glyph191" xMin="-438" yMin="-1200" xMax="580" yMax="1500">
      <contour>
        <pt x="200" y="963" on="1"/>
        <pt x="200" y="1069" on="0"/>
        <pt x="20" y="1101" on="1"/>
        <pt x="40" y="1232" on="0"/>
        <pt x="221" y="1500" on="0"/>
        <pt x="275" y="1500" on="1"/>
        <pt x="319" y="1500" on="0"/>
        <pt x="390" y="1457" on="1"/>
        <pt x="460" y="1414" on="1"/>
        <pt x="491" y="1395" on="0"/>
        <pt x="533" y="1395" on="1"/>
        <pt x="555" y="1395" on="0"/>
        <pt x="580" y="1400" on="1"/>
        <pt x="570" y="1330" on="0"/>
        <pt x="509" y="1191" on="0"/>
        <pt x="458" y="1186" on="1"/>
        <pt x="453" y="1185" on="0"/>
        <pt x="448" y="1185" on="1"/>
        <pt x="398" y="1185" on="0"/>
        <pt x="313" y="1238" on="1"/>
        <pt x="287" y="1253" on="0"/>
        <pt x="265" y="1253" on="1"/>
        <pt x="202" y="1253" on="0"/>
        <pt x="186" y="1158" on="1"/>
        <pt x="480" y="1100" on="0"/>
        <pt x="480" y="970" on="1"/>
        <pt x="480" y="-973" on="1"/>
        <pt x="480" y="-1200" on="0"/>
        <pt x="13" y="-1200" on="1"/>
        <pt x="-438" y="-1200" on="0"/>
        <pt x="-438" y="-973" on="1"/>
        <pt x="-438" y="-790" on="1"/>
        <pt x="-438" y="-700" on="0"/>
        <pt x="-314" y="-700" on="1"/>
        <pt x="-250" y="-700" on="0"/>
        <pt x="-194" y="-749" on="1"/>
        <pt x="-138" y="-799" on="0"/>
        <pt x="-138" y="-845" on="1"/>
        <pt x="-138" y="-926" on="0"/>
        <pt x="-200" y="-926" on="1"/>
        <pt x="-200" y="-973" on="1"/>
        <pt x="-200" y="-1109" on="0"/>
        <pt x="13" y="-1109" on="1"/>
        <pt x="200" y="-1109" on="0"/>
        <pt x="200" y="-973" on="1"/>
      </contour>
    </TTGlyph>
    <TTGlyph name="glyph192" xMin="20" yMin="-1200" xMax="1160" yMax="1500">
      <contour>
        <pt x="480" y="-950" on="1"/>
        <pt x="480" y="-1100" on="0"/>
        <pt x="680" y="-1100" on="1"/>
        <pt x="880" y="-1100" on="0"/>
        <pt x="880" y="-950" on="1"/>
        <pt x="880" y="-700" on="1"/>
        <pt x="1160" y="-700" on="1"/>
        <pt x="1160" y="-950" on="1"/>
        <pt x="1160" y="-1200" on="0"/>
        <pt x="680" y="-1200" on="1"/>
        <pt x="200" y="-1200" on="0"/>
        <pt x="200" y="-950" on="1"/>
        <pt x="200" y="963" on="1"/>
        <pt x="200" y="1069" on="0"/>
        <pt x="20" y="1101" on="1"/>
        <pt x="40" y="1232" on="0"/>
        <pt x="221" y="1500" on="0"/>
        <pt x="275" y="1500" on="1"/>
        <pt x="319" y="1500" on="0"/>
        <pt x="390" y="1457" on="1"/>
        <pt x="460" y="1414" on="1"/>
        <pt x="491" y="1395" on="0"/>
        <pt x="533" y="1395" on="1"/>
        <pt x="555" y="1395" on="0"/>
        <pt x="580" y="1400" on="1"/>
        <pt x="570" y="1330" on="0"/>
        <pt x="509" y="1191" on="0"/>
        <pt x="458" y="1186" on="1"/>
        <pt x="453" y="1185" on="0"/>
        <pt x="448" y="1185" on="1"/>
        <pt x="398" y="1185" on="0"/>
        <pt x="313" y="1238" on="1"/>
        <pt x="287" y="1253" on="0"/>
        <pt x="265" y="1253" on="1"/>
        <pt x="202" y="1253" on="0"/>
        <pt x="186" y="1158" on="1"/>
        <pt x="480" y="1100" on="0"/>
        <pt x="480" y="970" on="1"/>
      </contour>
    </TTGlyph>
    <TTGlyph name="glyph193" xMin="-550" yMin="-1200" xMax="580" yMax="1500">
      <contour>
        <pt x="480" y="-973" on="1"/>
        <pt x="480" y="-1200" on="0"/>
        <pt x="0" y="-1200" on="1"/>
        <pt x="-438" y="-1200" on="0"/>
        <pt x="-438" y="-973" on="1"/>
        <pt x="-438" y="-927" on="1"/>
        <pt x="-550" y="-927" on="0"/>
        <pt x="-550" y="-845" on="1"/>
        <pt x="-550" y="-800" on="0"/>
        <pt x="-494" y="-750" on="1"/>
        <pt x="-438" y="-700" on="0"/>
        <pt x="-374" y="-700" on="1"/>
        <pt x="-200" y="-700" on="0"/>
        <pt x="-200" y="-791" on="1"/>
        <pt x="-200" y="-973" on="1"/>
        <pt x="-200" y="-1109" on="0"/>
        <pt x="0" y="-1109" on="1"/>
        <pt x="200" y="-1109" on="0"/>
        <pt x="200" y="-973" on="1"/>
        <pt x="200" y="0" on="1"/>
        <pt x="100" y="0" on="1"/>
        <pt x="100" y="100" on="1"/>
        <pt x="200" y="100" on="1"/>
        <pt x="200" y="963" on="1"/>
        <pt x="200" y="1069" on="0"/>
        <pt x="20" y="1101" on="1"/>
        <pt x="40" y="1232" on="0"/>
        <pt x="221" y="1500" on="0"/>
        <pt x="275" y="1500" on="1"/>
        <pt x="319" y="1500" on="0"/>
        <pt x="390" y="1457" on="1"/>
        <pt x="460" y="1414" on="1"/>
        <pt x="491" y="1395" on="0"/>
        <pt x="533" y="1395" on="1"/>
        <pt x="555" y="1395" on="0"/>
        <pt x="580" y="1400" on="1"/>
        <pt x="570" y="1330" on="0"/>
        <pt x="509" y="1191" on="0"/>
        <pt x="458" y="1186" on="1"/>
        <pt x="453" y="1185" on="0"/>
        <pt x="448" y="1185" on="1"/>
        <pt x="398" y="1185" on="0"/>
        <pt x="313" y="1238" on="1"/>
        <pt x="287" y="1253" on="0"/>
        <pt x="265" y="1253" on="1"/>
        <pt x="202" y="1253" on="0"/>
        <pt x="186" y="1158" on="1"/>
        <pt x="480" y="1100" on="0"/>
        <pt x="480" y="970" on="1"/>
        <pt x="480" y="100" on="1"/>
        <pt x="580" y="100" on="1"/>
        <pt x="580" y="0" on="1"/>
        <pt x="480" y="0" on="1"/>
      </contour>
    </TTGlyph>
    <TTGlyph name="glyph194" xMin="-800" yMin="1800" xMax="0" yMax="2200">
      <contour>
        <pt x="-800" y="1950" on="1"/>
        <pt x="-800" y="2200" on="0"/>
        <pt x="-533" y="2200" on="1"/>
        <pt x="-302" y="2200" on="0"/>
        <pt x="-76" y="1975" on="1"/>
        <pt x="0" y="1900" on="0"/>
        <pt x="0" y="1850" on="1"/>
        <pt x="0" y="1800" on="0"/>
        <pt x="-89" y="1800" on="1"/>
        <pt x="-622" y="1800" on="1"/>
        <pt x="-800" y="1800" on="0"/>
      </contour>
      <contour>
        <pt x="-622" y="1950" on="1"/>
        <pt x="-622" y="1900" on="0"/>
        <pt x="-578" y="1900" on="1"/>
        <pt x="-160" y="1900" on="1"/>
        <pt x="-276" y="1957" on="0"/>
        <pt x="-435" y="2000" on="0"/>
        <pt x="-533" y="2000" on="1"/>
        <pt x="-622" y="2000" on="0"/>
      </contour>
    </TTGlyph>
    <TTGlyph name="glyph195" xMin="-800" yMin="1800" xMax="0" yMax="2300">
      <contour>
        <pt x="-622" y="1950" on="1"/>
        <pt x="-622" y="1900" on="0"/>
        <pt x="-578" y="1900" on="1"/>
        <pt x="-160" y="1900" on="1"/>
        <pt x="-276" y="1957" on="0"/>
        <pt x="-435" y="2000" on="0"/>
        <pt x="-533" y="2000" on="1"/>
        <pt x="-622" y="2000" on="0"/>
      </contour>
      <contour>
        <pt x="-151" y="2044" on="1"/>
        <pt x="-151" y="2300" on="1"/>
        <pt x="0" y="2300" on="1"/>
        <pt x="0" y="1850" on="1"/>
        <pt x="0" y="1800" on="0"/>
        <pt x="-89" y="1800" on="1"/>
        <pt x="-622" y="1800" on="1"/>
        <pt x="-800" y="1800" on="0"/>
        <pt x="-800" y="1950" on="1"/>
        <pt x="-800" y="2200" on="0"/>
        <pt x="-533" y="2200" on="1"/>
        <pt x="-340" y="2200" on="0"/>
      </contour>
    </TTGlyph>
    <TTGlyph name="glyph196" xMin="-800" yMin="1800" xMax="0" yMax="2300">
      <contour>
        <pt x="-352" y="2145" on="1"/>
        <pt x="-352" y="2149" on="1"/>
        <pt x="-342" y="2224" on="0"/>
        <pt x="-299" y="2262" on="1"/>
        <pt x="-254" y="2300" on="0"/>
        <pt x="-178" y="2300" on="1"/>
        <pt x="-89" y="2300" on="0"/>
        <pt x="-44" y="2250" on="1"/>
        <pt x="0" y="2200" on="0"/>
        <pt x="0" y="2100" on="1"/>
        <pt x="0" y="1985" on="0"/>
        <pt x="-59" y="1936" on="1"/>
        <pt x="-60" y="1934" on="1"/>
        <pt x="0" y="1877" on="0"/>
        <pt x="0" y="1850" on="1"/>
        <pt x="0" y="1800" on="0"/>
        <pt x="-89" y="1800" on="1"/>
        <pt x="-622" y="1800" on="1"/>
        <pt x="-800" y="1800" on="0"/>
        <pt x="-800" y="1950" on="1"/>
        <pt x="-800" y="2200" on="0"/>
        <pt x="-551" y="2200" on="1"/>
        <pt x="-455" y="2200" on="0"/>
      </contour>
      <contour>
        <pt x="-248" y="2081" on="1"/>
        <pt x="-227" y="2066" on="0"/>
        <pt x="-204" y="2050" on="1"/>
        <pt x="-183" y="2035" on="0"/>
        <pt x="-164" y="2020" on="1"/>
        <pt x="-107" y="2028" on="0"/>
        <pt x="-107" y="2100" on="1"/>
        <pt x="-107" y="2180" on="0"/>
        <pt x="-178" y="2180" on="1"/>
        <pt x="-249" y="2180" on="0"/>
        <pt x="-249" y="2100" on="1"/>
        <pt x="-249" y="2094" on="0"/>
      </contour>
      <contour>
        <pt x="-622" y="1950" on="1"/>
        <pt x="-622" y="1900" on="0"/>
        <pt x="-578" y="1900" on="1"/>
        <pt x="-160" y="1900" on="1"/>
        <pt x="-276" y="1957" on="0"/>
        <pt x="-435" y="2000" on="0"/>
        <pt x="-533" y="2000" on="1"/>
        <pt x="-622" y="2000" on="0"/>
      </contour>
    </TTGlyph>
    <TTGlyph name="glyph197" xMin="-800" yMin="1800" xMax="0" yMax="2300">
      <contour>
        <pt x="-622" y="1950" on="1"/>
        <pt x="-622" y="1900" on="0"/>
        <pt x="-578" y="1900" on="1"/>
        <pt x="-160" y="1900" on="1"/>
        <pt x="-276" y="1957" on="0"/>
        <pt x="-435" y="2000" on="0"/>
        <pt x="-533" y="2000" on="1"/>
        <pt x="-622" y="2000" on="0"/>
      </contour>
      <contour>
        <pt x="-400" y="2181" on="1"/>
        <pt x="-400" y="2300" on="1"/>
        <pt x="-249" y="2300" on="1"/>
        <pt x="-249" y="2114" on="1"/>
        <pt x="-200" y="2084" on="0"/>
        <pt x="-151" y="2044" on="1"/>
        <pt x="-151" y="2300" on="1"/>
        <pt x="0" y="2300" on="1"/>
        <pt x="0" y="1850" on="1"/>
        <pt x="0" y="1800" on="0"/>
        <pt x="-89" y="1800" on="1"/>
        <pt x="-622" y="1800" on="1"/>
        <pt x="-800" y="1800" on="0"/>
        <pt x="-800" y="1950" on="1"/>
        <pt x="-800" y="2200" on="0"/>
        <pt x="-533" y="2200" on="1"/>
        <pt x="-467" y="2200" on="0"/>
      </contour>
    </TTGlyph>
    <TTGlyph name="glyph198" xMin="-705" yMin="1800" xMax="-155" yMax="2250">
      <contour>
        <pt x="-510" y="2025" on="1"/>
        <pt x="-510" y="1975" on="0"/>
        <pt x="-470" y="1925" on="0"/>
        <pt x="-430" y="1925" on="1"/>
        <pt x="-390" y="1925" on="0"/>
        <pt x="-350" y="1975" on="0"/>
        <pt x="-350" y="2025" on="1"/>
        <pt x="-350" y="2075" on="0"/>
        <pt x="-390" y="2125" on="0"/>
        <pt x="-430" y="2125" on="1"/>
        <pt x="-470" y="2125" on="0"/>
        <pt x="-510" y="2075" on="0"/>
      </contour>
      <contour>
        <pt x="-155" y="2025" on="1"/>
        <pt x="-155" y="1912" on="0"/>
        <pt x="-223" y="1856" on="1"/>
        <pt x="-292" y="1800" on="0"/>
        <pt x="-430" y="1800" on="1"/>
        <pt x="-568" y="1800" on="0"/>
        <pt x="-637" y="1856" on="1"/>
        <pt x="-705" y="1912" on="0"/>
        <pt x="-705" y="2025" on="1"/>
        <pt x="-705" y="2138" on="0"/>
        <pt x="-637" y="2194" on="1"/>
        <pt x="-568" y="2250" on="0"/>
        <pt x="-430" y="2250" on="1"/>
        <pt x="-292" y="2250" on="0"/>
        <pt x="-223" y="2194" on="1"/>
        <pt x="-155" y="2138" on="0"/>
      </contour>
    </TTGlyph>
    <TTGlyph name="glyph199" xMin="-705" yMin="1800" xMax="-115" yMax="2250">
      <contour>
        <pt x="-490" y="2250" on="1"/>
        <pt x="-490" y="1910" on="1"/>
        <pt x="-490" y="1830" on="0"/>
        <pt x="-597" y="1800" on="1"/>
        <pt x="-705" y="1830" on="0"/>
        <pt x="-705" y="1910" on="1"/>
        <pt x="-705" y="2250" on="1"/>
      </contour>
      <contour>
        <pt x="-115" y="2250" on="1"/>
        <pt x="-115" y="1910" on="1"/>
        <pt x="-115" y="1830" on="0"/>
        <pt x="-222" y="1800" on="1"/>
        <pt x="-330" y="1830" on="0"/>
        <pt x="-330" y="1910" on="1"/>
        <pt x="-330" y="2250" on="1"/>
      </contour>
    </TTGlyph>
    <TTGlyph name="glyph200" xMin="-635" yMin="1800" xMax="95" yMax="2297">
      <contour>
        <pt x="-435" y="1976" on="1"/>
        <pt x="-435" y="1938" on="0"/>
        <pt x="-423" y="1920" on="1"/>
        <pt x="-410" y="1901" on="0"/>
        <pt x="-375" y="1901" on="1"/>
        <pt x="-355" y="1901" on="0"/>
        <pt x="-355" y="1919" on="1"/>
        <pt x="-355" y="1950" on="0"/>
        <pt x="-285" y="1950" on="1"/>
        <pt x="-215" y="1950" on="0"/>
        <pt x="-215" y="1919" on="1"/>
        <pt x="-215" y="1860" on="0"/>
        <pt x="-259" y="1830" on="1"/>
        <pt x="-303" y="1800" on="0"/>
        <pt x="-400" y="1800" on="1"/>
        <pt x="-547" y="1800" on="0"/>
        <pt x="-591" y="1844" on="1"/>
        <pt x="-635" y="1888" on="0"/>
        <pt x="-635" y="1975" on="1"/>
        <pt x="-635" y="2052" on="0"/>
        <pt x="-590" y="2111" on="1"/>
        <pt x="-545" y="2170" on="0"/>
        <pt x="-395" y="2170" on="1"/>
        <pt x="-268" y="2170" on="0"/>
        <pt x="-220" y="2111" on="1"/>
        <pt x="-144" y="2136" on="0"/>
        <pt x="-79" y="2180" on="1"/>
        <pt x="-15" y="2223" on="0"/>
        <pt x="27" y="2295" on="1"/>
        <pt x="38" y="2297" on="1"/>
        <pt x="57" y="2297" on="0"/>
        <pt x="80" y="2268" on="1"/>
        <pt x="95" y="2248" on="0"/>
        <pt x="95" y="2234" on="1"/>
        <pt x="95" y="2220" on="0"/>
        <pt x="83" y="2210" on="1"/>
        <pt x="38" y="2147" on="0"/>
        <pt x="-22" y="2097" on="1"/>
        <pt x="-83" y="2048" on="0"/>
        <pt x="-158" y="2011" on="1"/>
        <pt x="-194" y="2000" on="0"/>
        <pt x="-228" y="2000" on="1"/>
        <pt x="-302" y="2070" on="0"/>
        <pt x="-365" y="2070" on="1"/>
        <pt x="-380" y="2070" on="0"/>
        <pt x="-407" y="2042" on="1"/>
        <pt x="-435" y="2013" on="0"/>
      </contour>
    </TTGlyph>
    <TTGlyph name="glyph201" xMin="-800" yMin="1800" xMax="343" yMax="2297">
      <contour>
        <pt x="-159" y="1908" on="1"/>
        <pt x="-267" y="1959" on="0"/>
        <pt x="-342" y="1979" on="1"/>
        <pt x="-424" y="2000" on="0"/>
        <pt x="-526" y="2000" on="1"/>
        <pt x="-617" y="2000" on="0"/>
        <pt x="-617" y="1950" on="1"/>
        <pt x="-617" y="1900" on="0"/>
        <pt x="-571" y="1900" on="1"/>
        <pt x="-157" y="1900" on="1"/>
        <pt x="-158" y="1904" on="0"/>
      </contour>
      <contour>
        <pt x="-38" y="1802" on="1"/>
        <pt x="-52" y="1800" on="0"/>
        <pt x="-68" y="1800" on="1"/>
        <pt x="-617" y="1800" on="1"/>
        <pt x="-800" y="1800" on="0"/>
        <pt x="-800" y="1950" on="1"/>
        <pt x="-800" y="2200" on="0"/>
        <pt x="-526" y="2200" on="1"/>
        <pt x="-338" y="2200" on="0"/>
        <pt x="-154" y="2060" on="1"/>
        <pt x="-146" y="2087" on="0"/>
        <pt x="-133" y="2111" on="1"/>
        <pt x="-102" y="2170" on="0"/>
        <pt x="2" y="2170" on="1"/>
        <pt x="91" y="2170" on="0"/>
        <pt x="124" y="2111" on="1"/>
        <pt x="177" y="2136" on="0"/>
        <pt x="222" y="2180" on="1"/>
        <pt x="266" y="2223" on="0"/>
        <pt x="295" y="2295" on="1"/>
        <pt x="304" y="2297" on="1"/>
        <pt x="316" y="2297" on="0"/>
        <pt x="333" y="2268" on="1"/>
        <pt x="343" y="2248" on="0"/>
        <pt x="343" y="2234" on="1"/>
        <pt x="343" y="2220" on="0"/>
        <pt x="335" y="2210" on="1"/>
        <pt x="304" y="2147" on="0"/>
        <pt x="262" y="2097" on="1"/>
        <pt x="220" y="2048" on="0"/>
        <pt x="167" y="2011" on="1"/>
        <pt x="142" y="2000" on="0"/>
        <pt x="118" y="2000" on="1"/>
        <pt x="67" y="2070" on="0"/>
        <pt x="23" y="2070" on="1"/>
        <pt x="13" y="2070" on="0"/>
        <pt x="-6" y="2042" on="1"/>
        <pt x="-26" y="2013" on="0"/>
        <pt x="-26" y="1976" on="1"/>
        <pt x="-26" y="1956" on="0"/>
        <pt x="-23" y="1942" on="1"/>
        <pt x="-5" y="1921" on="0"/>
        <pt x="6" y="1902" on="1"/>
        <pt x="11" y="1901" on="0"/>
        <pt x="17" y="1901" on="1"/>
        <pt x="30" y="1901" on="0"/>
        <pt x="30" y="1919" on="1"/>
        <pt x="30" y="1950" on="0"/>
        <pt x="79" y="1950" on="1"/>
        <pt x="127" y="1950" on="0"/>
        <pt x="127" y="1919" on="1"/>
        <pt x="127" y="1860" on="0"/>
        <pt x="97" y="1830" on="1"/>
        <pt x="66" y="1800" on="0"/>
        <pt x="-1" y="1800" on="1"/>
        <pt x="-21" y="1800" on="0"/>
      </contour>
    </TTGlyph>
    <TTGlyph name="glyph202" xMin="-800" yMin="-650" xMax="0" yMax="-100">
      <contour>
        <pt x="-400" y="-191" on="1"/>
        <pt x="-500" y="-191" on="0"/>
        <pt x="-550" y="-214" on="1"/>
        <pt x="-600" y="-237" on="0"/>
        <pt x="-600" y="-283" on="1"/>
        <pt x="-600" y="-650" on="1"/>
        <pt x="-800" y="-650" on="1"/>
        <pt x="-800" y="-282" on="1"/>
        <pt x="-800" y="-191" on="0"/>
        <pt x="-700" y="-145" on="1"/>
        <pt x="-600" y="-100" on="0"/>
        <pt x="-400" y="-100" on="1"/>
        <pt x="-200" y="-100" on="0"/>
        <pt x="-100" y="-145" on="1"/>
        <pt x="0" y="-191" on="0"/>
        <pt x="0" y="-284" on="1"/>
        <pt x="0" y="-650" on="1"/>
        <pt x="-200" y="-650" on="1"/>
        <pt x="-200" y="-283" on="1"/>
        <pt x="-200" y="-237" on="0"/>
        <pt x="-250" y="-214" on="1"/>
        <pt x="-300" y="-191" on="0"/>
      </contour>
    </TTGlyph>
    <TTGlyph name="glyph203" xMin="-800" yMin="-651" xMax="0" yMax="-101">
      <contour>
        <pt x="-400" y="-651" on="1"/>
        <pt x="-800" y="-651" on="0"/>
        <pt x="-800" y="-485" on="1"/>
        <pt x="-800" y="-408" on="0"/>
        <pt x="-733" y="-399" on="1"/>
        <pt x="-418" y="-355" on="1"/>
        <pt x="-282" y="-336" on="0"/>
        <pt x="-203" y="-303" on="0"/>
        <pt x="-203" y="-266" on="1"/>
        <pt x="-203" y="-191" on="0"/>
        <pt x="-400" y="-191" on="1"/>
        <pt x="-516" y="-191" on="0"/>
        <pt x="-556" y="-220" on="1"/>
        <pt x="-600" y="-252" on="0"/>
        <pt x="-600" y="-329" on="1"/>
        <pt x="-800" y="-329" on="0"/>
        <pt x="-800" y="-238" on="1"/>
        <pt x="-800" y="-101" on="0"/>
        <pt x="-400" y="-101" on="1"/>
        <pt x="0" y="-101" on="0"/>
        <pt x="0" y="-270" on="1"/>
        <pt x="0" y="-395" on="0"/>
        <pt x="-348" y="-442" on="1"/>
        <pt x="-600" y="-483" on="1"/>
        <pt x="-600" y="-559" on="0"/>
        <pt x="-400" y="-559" on="1"/>
        <pt x="-200" y="-559" on="0"/>
        <pt x="-200" y="-467" on="1"/>
        <pt x="0" y="-430" on="1"/>
        <pt x="0" y="-651" on="0"/>
      </contour>
    </TTGlyph>
    <TTGlyph name="glyph204" xMin="-800" yMin="-650" xMax="0" yMax="-100">
      <contour>
        <pt x="-400" y="-191" on="1"/>
        <pt x="-600" y="-191" on="0"/>
        <pt x="-600" y="-283" on="1"/>
        <pt x="-600" y="-503" on="1"/>
        <pt x="-550" y="-433" on="1"/>
        <pt x="-469" y="-329" on="0"/>
        <pt x="-400" y="-329" on="1"/>
        <pt x="-300" y="-329" on="0"/>
        <pt x="-300" y="-397" on="1"/>
        <pt x="-300" y="-466" on="0"/>
        <pt x="-400" y="-466" on="1"/>
        <pt x="-450" y="-466" on="0"/>
        <pt x="-525" y="-558" on="1"/>
        <pt x="-600" y="-650" on="1"/>
        <pt x="-800" y="-650" on="1"/>
        <pt x="-800" y="-282" on="1"/>
        <pt x="-800" y="-100" on="0"/>
        <pt x="-400" y="-100" on="1"/>
        <pt x="0" y="-100" on="0"/>
        <pt x="0" y="-284" on="1"/>
        <pt x="0" y="-650" on="1"/>
        <pt x="-200" y="-650" on="1"/>
        <pt x="-200" y="-283" on="1"/>
        <pt x="-200" y="-191" on="0"/>
      </contour>
    </TTGlyph>
    <TTGlyph name="glyph205" xMin="-800" yMin="-650" xMax="0" yMax="-100">
      <contour>
        <pt x="-450" y="-650" on="1"/>
        <pt x="-800" y="-650" on="0"/>
        <pt x="-800" y="-420" on="1"/>
        <pt x="-800" y="-237" on="0"/>
        <pt x="-600" y="-237" on="1"/>
        <pt x="-500" y="-237" on="0"/>
        <pt x="-500" y="-329" on="1"/>
        <pt x="-600" y="-329" on="0"/>
        <pt x="-600" y="-420" on="1"/>
        <pt x="-600" y="-558" on="0"/>
        <pt x="-450" y="-558" on="1"/>
        <pt x="-200" y="-558" on="0"/>
        <pt x="-200" y="-191" on="1"/>
        <pt x="-200" y="-100" on="0"/>
        <pt x="0" y="-100" on="1"/>
        <pt x="-50" y="-650" on="0"/>
      </contour>
    </TTGlyph>
    <TTGlyph name="glyph206" xMin="-790" yMin="-651" xMax="110" yMax="-101">
      <contour>
        <pt x="-415" y="-101" on="1"/>
        <pt x="-340" y="-101" on="0"/>
        <pt x="-315" y="-145" on="1"/>
        <pt x="-309" y="-156" on="0"/>
        <pt x="-309" y="-170" on="1"/>
        <pt x="-309" y="-217" on="0"/>
        <pt x="-370" y="-305" on="1"/>
        <pt x="-450" y="-419" on="0"/>
        <pt x="-590" y="-481" on="1"/>
        <pt x="-590" y="-559" on="0"/>
        <pt x="-490" y="-559" on="1"/>
        <pt x="-370" y="-559" on="0"/>
        <pt x="-252" y="-453" on="1"/>
        <pt x="-202" y="-408" on="1"/>
        <pt x="-290" y="-377" on="0"/>
        <pt x="-290" y="-302" on="1"/>
        <pt x="-290" y="-174" on="0"/>
        <pt x="-140" y="-174" on="1"/>
        <pt x="-10" y="-174" on="0"/>
        <pt x="-10" y="-302" on="1"/>
        <pt x="-10" y="-318" on="0"/>
        <pt x="-26" y="-344" on="1"/>
        <pt x="10" y="-344" on="1"/>
        <pt x="37" y="-344" on="0"/>
        <pt x="110" y="-310" on="1"/>
        <pt x="110" y="-395" on="0"/>
        <pt x="8" y="-429" on="1"/>
        <pt x="-40" y="-429" on="1"/>
        <pt x="-53" y="-429" on="0"/>
        <pt x="-78" y="-428" on="0"/>
        <pt x="-89" y="-427" on="1"/>
        <pt x="-102" y="-443" on="0"/>
        <pt x="-133" y="-478" on="0"/>
        <pt x="-150" y="-497" on="1"/>
        <pt x="-290" y="-651" on="0"/>
        <pt x="-490" y="-651" on="1"/>
        <pt x="-790" y="-651" on="0"/>
        <pt x="-790" y="-481" on="1"/>
        <pt x="-790" y="-400" on="0"/>
        <pt x="-740" y="-388" on="1"/>
        <pt x="-490" y="-335" on="0"/>
        <pt x="-490" y="-191" on="1"/>
        <pt x="-490" y="-101" on="0"/>
      </contour>
      <contour>
        <pt x="-110" y="-302" on="1"/>
        <pt x="-104" y="-291" on="0"/>
        <pt x="-104" y="-282" on="1"/>
        <pt x="-104" y="-262" on="0"/>
        <pt x="-140" y="-262" on="1"/>
        <pt x="-190" y="-262" on="0"/>
        <pt x="-190" y="-302" on="1"/>
        <pt x="-190" y="-327" on="0"/>
        <pt x="-135" y="-336" on="1"/>
        <pt x="-117" y="-316" on="0"/>
      </contour>
    </TTGlyph>
    <TTGlyph name="glyph207" xMin="-900" yMin="-650" xMax="0" yMax="-100">
      <contour>
        <pt x="-750" y="-100" on="1"/>
        <pt x="-600" y="-100" on="1"/>
        <pt x="-600" y="-374" on="1"/>
        <pt x="-500" y="-374" on="0"/>
        <pt x="-440" y="-431" on="1"/>
        <pt x="-365" y="-498" on="1"/>
        <pt x="-300" y="-557" on="0"/>
        <pt x="-250" y="-557" on="1"/>
        <pt x="-200" y="-557" on="0"/>
        <pt x="-200" y="-466" on="1"/>
        <pt x="-200" y="-374" on="1"/>
        <pt x="-269" y="-374" on="0"/>
        <pt x="-300" y="-337" on="0"/>
        <pt x="-300" y="-306" on="1"/>
        <pt x="-300" y="-236" on="0"/>
        <pt x="-200" y="-100" on="1"/>
        <pt x="0" y="-100" on="1"/>
        <pt x="0" y="-466" on="1"/>
        <pt x="0" y="-649" on="0"/>
        <pt x="-250" y="-649" on="1"/>
        <pt x="-350" y="-649" on="0"/>
        <pt x="-440" y="-555" on="1"/>
        <pt x="-515" y="-488" on="1"/>
        <pt x="-545" y="-466" on="0"/>
        <pt x="-600" y="-466" on="1"/>
        <pt x="-600" y="-650" on="1"/>
        <pt x="-800" y="-650" on="1"/>
        <pt x="-900" y="-531" on="0"/>
        <pt x="-900" y="-466" on="1"/>
        <pt x="-900" y="-374" on="0"/>
        <pt x="-800" y="-374" on="1"/>
        <pt x="-800" y="-146" on="1"/>
        <pt x="-800" y="-100" on="0"/>
      </contour>
    </TTGlyph>
    <TTGlyph name="glyph208" xMin="-907" yMin="-650" xMax="90" yMax="-100">
      <contour>
        <pt x="-259" y="-650" on="1"/>
        <pt x="-311" y="-650" on="0"/>
        <pt x="-420" y="-552" on="1"/>
        <pt x="-457" y="-520" on="1"/>
        <pt x="-496" y="-552" on="1"/>
        <pt x="-606" y="-650" on="0"/>
        <pt x="-657" y="-650" on="1"/>
        <pt x="-907" y="-650" on="0"/>
        <pt x="-907" y="-355" on="1"/>
        <pt x="-907" y="-100" on="0"/>
        <pt x="-657" y="-100" on="1"/>
        <pt x="-607" y="-100" on="0"/>
        <pt x="-607" y="-145" on="1"/>
        <pt x="-607" y="-191" on="0"/>
        <pt x="-657" y="-191" on="1"/>
        <pt x="-707" y="-191" on="0"/>
        <pt x="-707" y="-355" on="1"/>
        <pt x="-707" y="-558" on="0"/>
        <pt x="-657" y="-558" on="1"/>
        <pt x="-558" y="-480" on="1"/>
        <pt x="-457" y="-395" on="1"/>
        <pt x="-359" y="-480" on="1"/>
        <pt x="-257" y="-558" on="1"/>
        <pt x="-207" y="-558" on="0"/>
        <pt x="-207" y="-373" on="1"/>
        <pt x="-219" y="-374" on="0"/>
        <pt x="-244" y="-375" on="0"/>
        <pt x="-257" y="-375" on="1"/>
        <pt x="-407" y="-375" on="0"/>
        <pt x="-407" y="-237" on="1"/>
        <pt x="-407" y="-100" on="0"/>
        <pt x="-257" y="-100" on="1"/>
        <pt x="-47" y="-100" on="0"/>
        <pt x="-15" y="-264" on="1"/>
        <pt x="-1" y="-260" on="0"/>
        <pt x="27" y="-254" on="0"/>
        <pt x="40" y="-249" on="1"/>
        <pt x="46" y="-248" on="0"/>
        <pt x="55" y="-246" on="0"/>
        <pt x="58" y="-245" on="1"/>
        <pt x="62" y="-244" on="0"/>
        <pt x="76" y="-244" on="1"/>
        <pt x="90" y="-244" on="0"/>
        <pt x="90" y="-275" on="1"/>
        <pt x="90" y="-316" on="0"/>
        <pt x="40" y="-334" on="1"/>
        <pt x="29" y="-338" on="0"/>
        <pt x="6" y="-345" on="0"/>
        <pt x="-7" y="-349" on="1"/>
        <pt x="-7" y="-356" on="1"/>
        <pt x="-7" y="-650" on="0"/>
      </contour>
      <contour>
        <pt x="-257" y="-191" on="1"/>
        <pt x="-307" y="-191" on="0"/>
        <pt x="-307" y="-237" on="1"/>
        <pt x="-307" y="-283" on="0"/>
        <pt x="-259" y="-283" on="1"/>
        <pt x="-222" y="-283" on="1"/>
        <pt x="-211" y="-283" on="0"/>
        <pt x="-210" y="-282" on="1"/>
        <pt x="-221" y="-191" on="0"/>
      </contour>
    </TTGlyph>
    <TTGlyph name="glyph209" xMin="-1000" yMin="-600" xMax="0" yMax="-100">
      <contour>
        <pt x="0" y="-300" on="1"/>
        <pt x="0" y="-600" on="0"/>
        <pt x="-300" y="-600" on="1"/>
        <pt x="-550" y="-600" on="0"/>
        <pt x="-637" y="-451" on="1"/>
        <pt x="-763" y="-250" on="0"/>
        <pt x="-850" y="-250" on="1"/>
        <pt x="-955" y="-250" on="0"/>
        <pt x="-1000" y="-340" on="1"/>
        <pt x="-1000" y="-290" on="1"/>
        <pt x="-1000" y="-240" on="0"/>
        <pt x="-962" y="-195" on="1"/>
        <pt x="-925" y="-150" on="0"/>
        <pt x="-800" y="-150" on="1"/>
        <pt x="-571" y="-150" on="0"/>
        <pt x="-452" y="-371" on="1"/>
        <pt x="-383" y="-500" on="0"/>
        <pt x="-300" y="-500" on="1"/>
        <pt x="-200" y="-500" on="0"/>
        <pt x="-200" y="-300" on="1"/>
        <pt x="-200" y="-200" on="0"/>
        <pt x="-300" y="-200" on="1"/>
        <pt x="-300" y="-100" on="0"/>
        <pt x="-200" y="-100" on="1"/>
        <pt x="0" y="-100" on="0"/>
      </contour>
    </TTGlyph>
    <TTGlyph name="glyph210" xMin="-800" yMin="-650" xMax="0" yMax="-100">
      <contour>
        <pt x="-600" y="-518" on="1"/>
        <pt x="-550" y="-474" on="0"/>
        <pt x="-550" y="-449" on="1"/>
        <pt x="-550" y="-420" on="0"/>
        <pt x="-600" y="-420" on="1"/>
      </contour>
      <contour>
        <pt x="-600" y="-329" on="1"/>
        <pt x="-450" y="-329" on="0"/>
        <pt x="-450" y="-448" on="1"/>
        <pt x="-450" y="-512" on="0"/>
        <pt x="-525" y="-581" on="1"/>
        <pt x="-600" y="-650" on="0"/>
        <pt x="-700" y="-650" on="1"/>
        <pt x="-800" y="-650" on="0"/>
        <pt x="-800" y="-516" on="1"/>
        <pt x="-800" y="-283" on="1"/>
        <pt x="-800" y="-100" on="0"/>
        <pt x="-400" y="-100" on="1"/>
        <pt x="0" y="-100" on="0"/>
        <pt x="0" y="-283" on="1"/>
        <pt x="0" y="-650" on="1"/>
        <pt x="-200" y="-650" on="1"/>
        <pt x="-200" y="-283" on="1"/>
        <pt x="-200" y="-191" on="0"/>
        <pt x="-400" y="-191" on="1"/>
        <pt x="-600" y="-191" on="0"/>
        <pt x="-600" y="-283" on="1"/>
      </contour>
    </TTGlyph>
    <TTGlyph name="glyph211" xMin="-799" yMin="-650" xMax="100" yMax="-100">
      <contour>
        <pt x="-200" y="-100" on="1"/>
        <pt x="0" y="-100" on="1"/>
        <pt x="0" y="-238" on="1"/>
        <pt x="100" y="-238" on="1"/>
        <pt x="100" y="-330" on="1"/>
        <pt x="0" y="-329" on="1"/>
        <pt x="0" y="-564" on="1"/>
        <pt x="0" y="-650" on="0"/>
        <pt x="-107" y="-650" on="1"/>
        <pt x="-383" y="-505" on="1"/>
        <pt x="-496" y="-614" on="1"/>
        <pt x="-534" y="-650" on="0"/>
        <pt x="-555" y="-650" on="1"/>
        <pt x="-576" y="-650" on="0"/>
        <pt x="-604" y="-610" on="1"/>
        <pt x="-774" y="-422" on="1"/>
        <pt x="-799" y="-388" on="0"/>
        <pt x="-799" y="-330" on="1"/>
        <pt x="-799" y="-273" on="0"/>
        <pt x="-711" y="-261" on="1"/>
        <pt x="-620" y="-249" on="0"/>
        <pt x="-472" y="-237" on="0"/>
        <pt x="-409" y="-237" on="1"/>
        <pt x="-200" y="-237" on="1"/>
      </contour>
      <contour>
        <pt x="-200" y="-330" on="1"/>
        <pt x="-423" y="-330" on="1"/>
        <pt x="-513" y="-330" on="0"/>
        <pt x="-599" y="-351" on="1"/>
        <pt x="-539" y="-530" on="1"/>
        <pt x="-399" y="-396" on="1"/>
        <pt x="-200" y="-503" on="1"/>
      </contour>
    </TTGlyph>
    <TTGlyph name="glyph212" xMin="-800" yMin="-650" xMax="0" yMax="-50">
      <contour>
        <pt x="-600" y="-226" on="1"/>
        <pt x="-530" y="-226" on="0"/>
        <pt x="-530" y="-259" on="1"/>
        <pt x="-530" y="-294" on="0"/>
        <pt x="-600" y="-358" on="1"/>
        <pt x="-725" y="-358" on="1"/>
        <pt x="-800" y="-358" on="0"/>
        <pt x="-800" y="-291" on="1"/>
        <pt x="-800" y="-182" on="1"/>
        <pt x="-675" y="-50" on="0"/>
        <pt x="-602" y="-50" on="1"/>
        <pt x="-530" y="-50" on="0"/>
        <pt x="-400" y="-140" on="1"/>
        <pt x="-270" y="-50" on="0"/>
        <pt x="-197" y="-50" on="1"/>
        <pt x="-125" y="-50" on="0"/>
        <pt x="0" y="-182" on="1"/>
        <pt x="0" y="-245" on="1"/>
        <pt x="0" y="-327" on="0"/>
        <pt x="-261" y="-400" on="1"/>
        <pt x="-600" y="-500" on="1"/>
        <pt x="-600" y="-535" on="0"/>
        <pt x="-550" y="-535" on="1"/>
        <pt x="-303" y="-535" on="0"/>
        <pt x="-200" y="-447" on="1"/>
        <pt x="0" y="-376" on="1"/>
        <pt x="0" y="-561" on="1"/>
        <pt x="0" y="-605" on="0"/>
        <pt x="-25" y="-627" on="1"/>
        <pt x="-50" y="-650" on="0"/>
        <pt x="-250" y="-650" on="1"/>
        <pt x="-200" y="-605" on="0"/>
        <pt x="-200" y="-579" on="1"/>
        <pt x="-200" y="-545" on="1"/>
        <pt x="-329" y="-623" on="0"/>
        <pt x="-550" y="-623" on="1"/>
        <pt x="-800" y="-623" on="0"/>
        <pt x="-800" y="-499" on="1"/>
        <pt x="-800" y="-442" on="0"/>
        <pt x="-733" y="-425" on="1"/>
        <pt x="-284" y="-318" on="1"/>
        <pt x="-201" y="-296" on="0"/>
        <pt x="-200" y="-245" on="1"/>
        <pt x="-200" y="-192" on="1"/>
        <pt x="-222" y="-155" on="0"/>
        <pt x="-243" y="-155" on="1"/>
        <pt x="-265" y="-155" on="0"/>
        <pt x="-400" y="-251" on="1"/>
        <pt x="-532" y="-155" on="0"/>
        <pt x="-554" y="-155" on="1"/>
        <pt x="-576" y="-155" on="0"/>
        <pt x="-600" y="-193" on="1"/>
      </contour>
    </TTGlyph>
    <TTGlyph name="glyph213" xMin="-800" yMin="-650" xMax="0" yMax="-100">
      <contour>
        <pt x="-600" y="-518" on="1"/>
        <pt x="-550" y="-474" on="0"/>
        <pt x="-550" y="-449" on="1"/>
        <pt x="-550" y="-420" on="0"/>
        <pt x="-600" y="-420" on="1"/>
      </contour>
      <contour>
        <pt x="-600" y="-329" on="1"/>
        <pt x="-450" y="-329" on="0"/>
        <pt x="-450" y="-448" on="1"/>
        <pt x="-450" y="-512" on="0"/>
        <pt x="-525" y="-581" on="1"/>
        <pt x="-600" y="-650" on="0"/>
        <pt x="-700" y="-650" on="1"/>
        <pt x="-800" y="-650" on="0"/>
        <pt x="-800" y="-516" on="1"/>
        <pt x="-800" y="-283" on="1"/>
        <pt x="-800" y="-100" on="0"/>
        <pt x="-400" y="-100" on="1"/>
        <pt x="0" y="-100" on="0"/>
        <pt x="0" y="-283" on="1"/>
        <pt x="0" y="-650" on="1"/>
        <pt x="-200" y="-650" on="1"/>
        <pt x="-200" y="-283" on="1"/>
        <pt x="-200" y="-191" on="0"/>
        <pt x="-400" y="-191" on="1"/>
        <pt x="-600" y="-191" on="0"/>
        <pt x="-600" y="-283" on="1"/>
      </contour>
    </TTGlyph>
    <TTGlyph name="glyph214" xMin="-950" yMin="-650" xMax="0" yMax="-100">
      <contour>
        <pt x="-950" y="-400" on="1"/>
        <pt x="-950" y="-100" on="0"/>
        <pt x="-600" y="-100" on="1"/>
        <pt x="-261" y="-100" on="0"/>
        <pt x="-132" y="-384" on="1"/>
        <pt x="-62" y="-550" on="0"/>
        <pt x="0" y="-550" on="1"/>
        <pt x="0" y="-650" on="0"/>
        <pt x="-100" y="-650" on="1"/>
        <pt x="-251" y="-650" on="0"/>
        <pt x="-314" y="-465" on="1"/>
        <pt x="-421" y="-200" on="0"/>
        <pt x="-600" y="-200" on="1"/>
        <pt x="-750" y="-200" on="0"/>
        <pt x="-750" y="-400" on="1"/>
        <pt x="-750" y="-550" on="0"/>
        <pt x="-600" y="-550" on="1"/>
        <pt x="-600" y="-650" on="0"/>
        <pt x="-750" y="-650" on="1"/>
        <pt x="-950" y="-650" on="0"/>
      </contour>
    </TTGlyph>
    <TTGlyph name="glyph215" xMin="-800" yMin="-650" xMax="0" yMax="-100">
      <contour>
        <pt x="-400" y="-237" on="1"/>
        <pt x="-400" y="-191" on="0"/>
        <pt x="-450" y="-191" on="1"/>
        <pt x="-450" y="-100" on="0"/>
        <pt x="-350" y="-100" on="1"/>
        <pt x="-250" y="-100" on="0"/>
        <pt x="-250" y="-191" on="1"/>
        <pt x="-250" y="-236" on="0"/>
        <pt x="-300" y="-305" on="1"/>
        <pt x="-350" y="-375" on="0"/>
        <pt x="-600" y="-461" on="1"/>
        <pt x="-600" y="-558" on="0"/>
        <pt x="-451" y="-558" on="1"/>
        <pt x="-273" y="-558" on="0"/>
        <pt x="-201" y="-269" on="1"/>
        <pt x="-181" y="-191" on="0"/>
        <pt x="-100" y="-191" on="1"/>
        <pt x="0" y="-191" on="0"/>
        <pt x="0" y="-237" on="1"/>
        <pt x="0" y="-512" on="1"/>
        <pt x="0" y="-650" on="0"/>
        <pt x="-245" y="-650" on="1"/>
        <pt x="-200" y="-604" on="0"/>
        <pt x="-200" y="-512" on="1"/>
        <pt x="-303" y="-650" on="0"/>
        <pt x="-451" y="-650" on="1"/>
        <pt x="-800" y="-650" on="0"/>
        <pt x="-800" y="-475" on="1"/>
        <pt x="-800" y="-400" on="0"/>
        <pt x="-750" y="-387" on="1"/>
        <pt x="-400" y="-314" on="0"/>
      </contour>
    </TTGlyph>
    <TTGlyph name="glyph216" xMin="-800" yMin="-650" xMax="0" yMax="-100">
      <contour>
        <pt x="-200" y="-145" on="1"/>
        <pt x="-200" y="-100" on="0"/>
        <pt x="-150" y="-100" on="1"/>
        <pt x="0" y="-100" on="0"/>
        <pt x="0" y="-279" on="1"/>
        <pt x="0" y="-491" on="0"/>
        <pt x="-191" y="-491" on="1"/>
        <pt x="-210" y="-491" on="0"/>
        <pt x="-282" y="-478" on="1"/>
        <pt x="-350" y="-465" on="1"/>
        <pt x="-350" y="-650" on="0"/>
        <pt x="-540" y="-650" on="1"/>
        <pt x="-800" y="-650" on="0"/>
        <pt x="-800" y="-496" on="1"/>
        <pt x="-800" y="-419" on="0"/>
        <pt x="-750" y="-405" on="1"/>
        <pt x="-649" y="-405" on="0"/>
        <pt x="-474" y="-309" on="1"/>
        <pt x="-300" y="-214" on="0"/>
        <pt x="-300" y="-173" on="1"/>
        <pt x="-300" y="-145" on="0"/>
        <pt x="-350" y="-145" on="1"/>
        <pt x="-350" y="-100" on="0"/>
        <pt x="-280" y="-100" on="1"/>
        <pt x="-204" y="-100" on="0"/>
        <pt x="-200" y="-161" on="1"/>
      </contour>
      <contour>
        <pt x="-300" y="-298" on="1"/>
        <pt x="-382" y="-353" on="1"/>
        <pt x="-258" y="-386" on="1"/>
        <pt x="-252" y="-387" on="0"/>
        <pt x="-247" y="-387" on="1"/>
        <pt x="-200" y="-387" on="0"/>
        <pt x="-200" y="-279" on="1"/>
        <pt x="-200" y="-174" on="1"/>
        <pt x="-205" y="-239" on="0"/>
      </contour>
      <contour>
        <pt x="-600" y="-496" on="1"/>
        <pt x="-600" y="-558" on="0"/>
        <pt x="-540" y="-558" on="1"/>
        <pt x="-450" y="-558" on="0"/>
        <pt x="-450" y="-463" on="1"/>
        <pt x="-450" y="-396" on="1"/>
      </contour>
    </TTGlyph>
    <TTGlyph name="glyph217" xMin="-950" yMin="-650" xMax="0" yMax="-100">
      <contour>
        <pt x="-651" y="-543" on="1"/>
        <pt x="-950" y="-543" on="0"/>
        <pt x="-950" y="-366" on="1"/>
        <pt x="-950" y="-188" on="0"/>
        <pt x="-650" y="-188" on="1"/>
        <pt x="-350" y="-188" on="1"/>
        <pt x="-350" y="-100" on="1"/>
        <pt x="-150" y="-100" on="1"/>
        <pt x="-150" y="-188" on="1"/>
        <pt x="0" y="-188" on="1"/>
        <pt x="0" y="-277" on="1"/>
        <pt x="-150" y="-277" on="1"/>
        <pt x="-150" y="-428" on="1"/>
        <pt x="-50" y="-428" on="0"/>
        <pt x="-50" y="-539" on="1"/>
        <pt x="-50" y="-650" on="0"/>
        <pt x="-200" y="-650" on="1"/>
        <pt x="-350" y="-650" on="0"/>
        <pt x="-350" y="-516" on="1"/>
      </contour>
      <contour>
        <pt x="-650" y="-455" on="1"/>
        <pt x="-350" y="-428" on="1"/>
        <pt x="-350" y="-277" on="1"/>
        <pt x="-650" y="-277" on="1"/>
        <pt x="-750" y="-277" on="0"/>
        <pt x="-750" y="-366" on="1"/>
        <pt x="-750" y="-455" on="0"/>
      </contour>
    </TTGlyph>
    <TTGlyph name="glyph218" xMin="-800" yMin="-650" xMax="0" yMax="-100">
      <contour>
        <pt x="-375" y="-386" on="1"/>
        <pt x="-200" y="-498" on="1"/>
        <pt x="-200" y="-329" on="1"/>
        <pt x="-225" y="-329" on="1"/>
        <pt x="-300" y="-329" on="0"/>
        <pt x="-300" y="-260" on="1"/>
        <pt x="-300" y="-191" on="0"/>
        <pt x="-250" y="-145" on="1"/>
        <pt x="-200" y="-100" on="1"/>
        <pt x="0" y="-100" on="1"/>
        <pt x="0" y="-550" on="1"/>
        <pt x="0" y="-650" on="0"/>
        <pt x="-75" y="-650" on="1"/>
        <pt x="-150" y="-650" on="0"/>
        <pt x="-184" y="-627" on="1"/>
        <pt x="-399" y="-489" on="1"/>
        <pt x="-615" y="-627" on="1"/>
        <pt x="-650" y="-650" on="0"/>
        <pt x="-725" y="-650" on="1"/>
        <pt x="-800" y="-650" on="0"/>
        <pt x="-800" y="-550" on="1"/>
        <pt x="-800" y="-100" on="1"/>
        <pt x="-600" y="-100" on="1"/>
        <pt x="-600" y="-498" on="1"/>
        <pt x="-425" y="-386" on="1"/>
        <pt x="-412" y="-378" on="0"/>
        <pt x="-400" y="-378" on="1"/>
        <pt x="-387" y="-378" on="0"/>
      </contour>
    </TTGlyph>
    <TTGlyph name="glyph219" xMin="-800" yMin="-650" xMax="0" yMax="-100">
      <contour>
        <pt x="-582" y="-489" on="0"/>
        <pt x="-600" y="-489" on="1"/>
        <pt x="-600" y="-558" on="1"/>
        <pt x="-561" y="-558" on="0"/>
        <pt x="-561" y="-512" on="1"/>
        <pt x="-561" y="-501" on="0"/>
        <pt x="-572" y="-495" on="1"/>
      </contour>
      <contour>
        <pt x="-600" y="-397" on="1"/>
        <pt x="-539" y="-397" on="0"/>
        <pt x="-508" y="-426" on="1"/>
        <pt x="-477" y="-455" on="0"/>
        <pt x="-477" y="-512" on="1"/>
        <pt x="-477" y="-650" on="0"/>
        <pt x="-600" y="-650" on="1"/>
        <pt x="-700" y="-650" on="1"/>
        <pt x="-800" y="-650" on="0"/>
        <pt x="-800" y="-558" on="1"/>
        <pt x="-800" y="-356" on="1"/>
        <pt x="-800" y="-244" on="0"/>
        <pt x="-615" y="-100" on="0"/>
        <pt x="-562" y="-100" on="1"/>
        <pt x="-518" y="-100" on="0"/>
        <pt x="-399" y="-204" on="1"/>
        <pt x="-280" y="-100" on="0"/>
        <pt x="-236" y="-100" on="1"/>
        <pt x="-184" y="-100" on="0"/>
        <pt x="0" y="-244" on="0"/>
        <pt x="0" y="-356" on="1"/>
        <pt x="0" y="-650" on="1"/>
        <pt x="-200" y="-650" on="1"/>
        <pt x="-200" y="-356" on="1"/>
        <pt x="-200" y="-268" on="0"/>
        <pt x="-236" y="-244" on="1"/>
        <pt x="-242" y="-241" on="0"/>
        <pt x="-249" y="-241" on="1"/>
        <pt x="-292" y="-241" on="0"/>
        <pt x="-399" y="-357" on="1"/>
        <pt x="-507" y="-241" on="0"/>
        <pt x="-550" y="-241" on="1"/>
        <pt x="-558" y="-241" on="0"/>
        <pt x="-563" y="-244" on="1"/>
        <pt x="-600" y="-268" on="0"/>
        <pt x="-600" y="-356" on="1"/>
      </contour>
    </TTGlyph>
    <TTGlyph name="glyph220" xMin="-950" yMin="-650" xMax="0" yMax="-100">
      <contour>
        <pt x="-800" y="-420" on="1"/>
        <pt x="-850" y="-420" on="0"/>
        <pt x="-850" y="-449" on="1"/>
        <pt x="-850" y="-474" on="0"/>
        <pt x="-800" y="-518" on="1"/>
      </contour>
      <contour>
        <pt x="-800" y="-283" on="1"/>
        <pt x="-800" y="-191" on="0"/>
        <pt x="-700" y="-145" on="1"/>
        <pt x="-600" y="-100" on="0"/>
        <pt x="-400" y="-100" on="1"/>
        <pt x="-200" y="-100" on="0"/>
        <pt x="-100" y="-145" on="1"/>
        <pt x="0" y="-191" on="0"/>
        <pt x="0" y="-284" on="1"/>
        <pt x="0" y="-650" on="1"/>
        <pt x="-200" y="-650" on="1"/>
        <pt x="-200" y="-283" on="1"/>
        <pt x="-200" y="-237" on="0"/>
        <pt x="-250" y="-214" on="1"/>
        <pt x="-300" y="-191" on="0"/>
        <pt x="-400" y="-191" on="1"/>
        <pt x="-500" y="-191" on="0"/>
        <pt x="-550" y="-214" on="1"/>
        <pt x="-600" y="-237" on="0"/>
        <pt x="-600" y="-283" on="1"/>
        <pt x="-600" y="-650" on="1"/>
        <pt x="-800" y="-650" on="1"/>
        <pt x="-875" y="-581" on="1"/>
        <pt x="-950" y="-512" on="0"/>
        <pt x="-950" y="-448" on="1"/>
        <pt x="-950" y="-329" on="0"/>
        <pt x="-800" y="-329" on="1"/>
      </contour>
    </TTGlyph>
    <TTGlyph name="glyph221" xMin="-800" yMin="-650" xMax="200" yMax="-100">
      <contour>
        <pt x="-550" y="-507" on="1"/>
        <pt x="-800" y="-507" on="0"/>
        <pt x="-800" y="-329" on="1"/>
        <pt x="-800" y="-237" on="0"/>
        <pt x="-600" y="-237" on="1"/>
        <pt x="-600" y="-329" on="1"/>
        <pt x="-600" y="-412" on="0"/>
        <pt x="-550" y="-412" on="1"/>
        <pt x="-200" y="-375" on="1"/>
        <pt x="-200" y="-100" on="1"/>
        <pt x="0" y="-100" on="1"/>
        <pt x="0" y="-375" on="1"/>
        <pt x="200" y="-375" on="0"/>
        <pt x="200" y="-512" on="1"/>
        <pt x="200" y="-650" on="0"/>
        <pt x="25" y="-650" on="1"/>
        <pt x="-200" y="-650" on="0"/>
        <pt x="-200" y="-466" on="1"/>
      </contour>
      <contour>
        <pt x="100" y="-512" on="1"/>
        <pt x="100" y="-466" on="0"/>
        <pt x="0" y="-466" on="1"/>
        <pt x="0" y="-558" on="0"/>
        <pt x="49" y="-558" on="1"/>
        <pt x="50" y="-558" on="1"/>
        <pt x="100" y="-558" on="0"/>
      </contour>
    </TTGlyph>
    <TTGlyph name="glyph222" xMin="-1050" yMin="-650" xMax="0" yMax="-100">
      <contour>
        <pt x="-1050" y="-400" on="1"/>
        <pt x="-1050" y="-100" on="0"/>
        <pt x="-700" y="-100" on="1"/>
        <pt x="-501" y="-100" on="0"/>
        <pt x="-432" y="-334" on="1"/>
        <pt x="-366" y="-550" on="0"/>
        <pt x="-300" y="-550" on="1"/>
        <pt x="-200" y="-550" on="0"/>
        <pt x="-200" y="-250" on="1"/>
        <pt x="-200" y="-150" on="0"/>
        <pt x="-250" y="-100" on="1"/>
        <pt x="0" y="-100" on="0"/>
        <pt x="0" y="-250" on="1"/>
        <pt x="0" y="-350" on="0"/>
        <pt x="-75" y="-500" on="1"/>
        <pt x="-150" y="-650" on="0"/>
        <pt x="-300" y="-650" on="1"/>
        <pt x="-550" y="-650" on="0"/>
        <pt x="-591" y="-363" on="1"/>
        <pt x="-620" y="-200" on="0"/>
        <pt x="-700" y="-200" on="1"/>
        <pt x="-850" y="-200" on="0"/>
        <pt x="-850" y="-400" on="1"/>
        <pt x="-850" y="-550" on="0"/>
        <pt x="-800" y="-550" on="1"/>
        <pt x="-750" y="-550" on="0"/>
        <pt x="-750" y="-450" on="1"/>
        <pt x="-650" y="-450" on="0"/>
        <pt x="-650" y="-550" on="1"/>
        <pt x="-650" y="-650" on="0"/>
        <pt x="-800" y="-650" on="1"/>
        <pt x="-1050" y="-650" on="0"/>
      </contour>
    </TTGlyph>
    <TTGlyph name="glyph223" xMin="-800" yMin="-650" xMax="0" yMax="-100">
      <contour>
        <pt x="-450" y="-650" on="1"/>
        <pt x="-800" y="-650" on="0"/>
        <pt x="-800" y="-481" on="1"/>
        <pt x="-800" y="-397" on="1"/>
        <pt x="-440" y="-397" on="0"/>
        <pt x="-200" y="-100" on="1"/>
        <pt x="0" y="-100" on="1"/>
        <pt x="0" y="-191" on="1"/>
        <pt x="0" y="-419" on="0"/>
        <pt x="-140" y="-534" on="1"/>
        <pt x="-279" y="-650" on="0"/>
      </contour>
      <contour>
        <pt x="-600" y="-481" on="1"/>
        <pt x="-600" y="-558" on="0"/>
        <pt x="-450" y="-558" on="1"/>
        <pt x="-320" y="-558" on="0"/>
        <pt x="-260" y="-488" on="1"/>
        <pt x="-200" y="-419" on="0"/>
        <pt x="-200" y="-262" on="1"/>
        <pt x="-400" y="-438" on="0"/>
      </contour>
    </TTGlyph>
    <TTGlyph name="glyph224" xMin="-900" yMin="-650" xMax="0" yMax="-100">
      <contour>
        <pt x="-700" y="-466" on="1"/>
        <pt x="-700" y="-558" on="0"/>
        <pt x="-625" y="-558" on="1"/>
        <pt x="-550" y="-558" on="0"/>
        <pt x="-550" y="-466" on="1"/>
        <pt x="-550" y="-283" on="1"/>
        <pt x="-550" y="-100" on="0"/>
        <pt x="-275" y="-100" on="1"/>
        <pt x="0" y="-100" on="0"/>
        <pt x="0" y="-283" on="1"/>
        <pt x="0" y="-650" on="1"/>
        <pt x="-200" y="-650" on="1"/>
        <pt x="-200" y="-283" on="1"/>
        <pt x="-200" y="-191" on="0"/>
        <pt x="-275" y="-191" on="1"/>
        <pt x="-350" y="-191" on="0"/>
        <pt x="-350" y="-283" on="1"/>
        <pt x="-350" y="-466" on="1"/>
        <pt x="-350" y="-650" on="0"/>
        <pt x="-625" y="-650" on="1"/>
        <pt x="-900" y="-650" on="0"/>
        <pt x="-900" y="-466" on="1"/>
        <pt x="-900" y="-100" on="1"/>
        <pt x="-700" y="-100" on="1"/>
      </contour>
    </TTGlyph>
    <TTGlyph name="glyph225" xMin="-880" yMin="-650" xMax="80" yMax="-50">
      <contour>
        <pt x="-880" y="-542" on="1"/>
        <pt x="-880" y="-478" on="0"/>
        <pt x="-800" y="-478" on="1"/>
        <pt x="-800" y="-307" on="1"/>
        <pt x="-880" y="-264" on="1"/>
        <pt x="-880" y="-178" on="1"/>
        <pt x="-710" y="-50" on="1"/>
        <pt x="-640" y="-92" on="1"/>
        <pt x="-569" y="-135" on="0"/>
        <pt x="-520" y="-135" on="1"/>
        <pt x="-549" y="-221" on="0"/>
        <pt x="-580" y="-221" on="1"/>
        <pt x="-622" y="-221" on="0"/>
        <pt x="-701" y="-186" on="1"/>
        <pt x="-740" y="-221" on="1"/>
        <pt x="-600" y="-281" on="1"/>
        <pt x="-600" y="-350" on="1"/>
        <pt x="-200" y="-350" on="1"/>
        <pt x="-200" y="-307" on="1"/>
        <pt x="-280" y="-264" on="1"/>
        <pt x="-280" y="-178" on="1"/>
        <pt x="-110" y="-50" on="1"/>
        <pt x="-40" y="-92" on="1"/>
        <pt x="31" y="-135" on="0"/>
        <pt x="80" y="-135" on="1"/>
        <pt x="51" y="-221" on="0"/>
        <pt x="20" y="-221" on="1"/>
        <pt x="-22" y="-221" on="0"/>
        <pt x="-101" y="-186" on="1"/>
        <pt x="-140" y="-221" on="1"/>
        <pt x="0" y="-281" on="1"/>
        <pt x="0" y="-650" on="1"/>
        <pt x="-200" y="-650" on="1"/>
        <pt x="-280" y="-607" on="0"/>
        <pt x="-280" y="-542" on="1"/>
        <pt x="-280" y="-478" on="0"/>
        <pt x="-200" y="-478" on="1"/>
        <pt x="-200" y="-445" on="1"/>
        <pt x="-600" y="-445" on="1"/>
        <pt x="-600" y="-650" on="1"/>
        <pt x="-800" y="-650" on="1"/>
        <pt x="-880" y="-607" on="0"/>
      </contour>
    </TTGlyph>
    <TTGlyph name="glyph226" xMin="-1850" yMin="-650" xMax="-950" yMax="-100">
      <contour>
        <pt x="-1400" y="-191" on="1"/>
        <pt x="-1500" y="-191" on="0"/>
        <pt x="-1550" y="-214" on="1"/>
        <pt x="-1600" y="-237" on="0"/>
        <pt x="-1600" y="-283" on="1"/>
        <pt x="-1600" y="-650" on="1"/>
        <pt x="-1850" y="-650" on="1"/>
        <pt x="-1850" y="-282" on="1"/>
        <pt x="-1850" y="-100" on="0"/>
        <pt x="-1400" y="-100" on="1"/>
        <pt x="-950" y="-100" on="0"/>
        <pt x="-950" y="-284" on="1"/>
        <pt x="-950" y="-650" on="1"/>
        <pt x="-1200" y="-650" on="1"/>
        <pt x="-1200" y="-283" on="1"/>
        <pt x="-1200" y="-237" on="0"/>
        <pt x="-1250" y="-214" on="1"/>
        <pt x="-1300" y="-191" on="0"/>
      </contour>
    </TTGlyph>
    <TTGlyph name="glyph227" xMin="-1850" yMin="-651" xMax="-950" yMax="-101">
      <contour>
        <pt x="-1400" y="-651" on="1"/>
        <pt x="-1850" y="-651" on="0"/>
        <pt x="-1850" y="-485" on="1"/>
        <pt x="-1850" y="-408" on="0"/>
        <pt x="-1783" y="-399" on="1"/>
        <pt x="-1418" y="-355" on="1"/>
        <pt x="-1282" y="-336" on="0"/>
        <pt x="-1203" y="-303" on="0"/>
        <pt x="-1203" y="-266" on="1"/>
        <pt x="-1203" y="-191" on="0"/>
        <pt x="-1400" y="-191" on="1"/>
        <pt x="-1516" y="-191" on="0"/>
        <pt x="-1556" y="-220" on="1"/>
        <pt x="-1600" y="-252" on="0"/>
        <pt x="-1600" y="-329" on="1"/>
        <pt x="-1850" y="-329" on="0"/>
        <pt x="-1850" y="-238" on="1"/>
        <pt x="-1850" y="-101" on="0"/>
        <pt x="-1400" y="-101" on="1"/>
        <pt x="-950" y="-101" on="0"/>
        <pt x="-950" y="-270" on="1"/>
        <pt x="-950" y="-395" on="0"/>
        <pt x="-1348" y="-442" on="1"/>
        <pt x="-1600" y="-483" on="1"/>
        <pt x="-1600" y="-559" on="0"/>
        <pt x="-1400" y="-559" on="1"/>
        <pt x="-1200" y="-559" on="0"/>
        <pt x="-1200" y="-467" on="1"/>
        <pt x="-950" y="-430" on="1"/>
        <pt x="-950" y="-651" on="0"/>
      </contour>
    </TTGlyph>
    <TTGlyph name="glyph228" xMin="-1850" yMin="-650" xMax="-950" yMax="-100">
      <contour>
        <pt x="-1400" y="-191" on="1"/>
        <pt x="-1600" y="-191" on="0"/>
        <pt x="-1600" y="-283" on="1"/>
        <pt x="-1600" y="-503" on="1"/>
        <pt x="-1550" y="-433" on="1"/>
        <pt x="-1469" y="-329" on="0"/>
        <pt x="-1400" y="-329" on="1"/>
        <pt x="-1300" y="-329" on="0"/>
        <pt x="-1300" y="-397" on="1"/>
        <pt x="-1300" y="-466" on="0"/>
        <pt x="-1400" y="-466" on="1"/>
        <pt x="-1450" y="-466" on="0"/>
        <pt x="-1525" y="-558" on="1"/>
        <pt x="-1600" y="-650" on="1"/>
        <pt x="-1850" y="-650" on="1"/>
        <pt x="-1850" y="-282" on="1"/>
        <pt x="-1850" y="-100" on="0"/>
        <pt x="-1400" y="-100" on="1"/>
        <pt x="-950" y="-100" on="0"/>
        <pt x="-950" y="-284" on="1"/>
        <pt x="-950" y="-650" on="1"/>
        <pt x="-1200" y="-650" on="1"/>
        <pt x="-1200" y="-283" on="1"/>
        <pt x="-1200" y="-191" on="0"/>
      </contour>
    </TTGlyph>
    <TTGlyph name="glyph229" xMin="-1850" yMin="-650" xMax="-950" yMax="-100">
      <contour>
        <pt x="-1450" y="-650" on="1"/>
        <pt x="-1850" y="-650" on="0"/>
        <pt x="-1850" y="-420" on="1"/>
        <pt x="-1850" y="-237" on="0"/>
        <pt x="-1600" y="-237" on="1"/>
        <pt x="-1500" y="-237" on="0"/>
        <pt x="-1500" y="-329" on="1"/>
        <pt x="-1600" y="-329" on="0"/>
        <pt x="-1600" y="-420" on="1"/>
        <pt x="-1600" y="-558" on="0"/>
        <pt x="-1450" y="-558" on="1"/>
        <pt x="-1200" y="-558" on="0"/>
        <pt x="-1200" y="-191" on="1"/>
        <pt x="-1200" y="-100" on="0"/>
        <pt x="-950" y="-100" on="1"/>
        <pt x="-1000" y="-650" on="0"/>
      </contour>
    </TTGlyph>
    <TTGlyph name="glyph230" xMin="-1850" yMin="-651" xMax="-850" yMax="-101">
      <contour>
        <pt x="-1425" y="-101" on="1"/>
        <pt x="-1350" y="-101" on="0"/>
        <pt x="-1325" y="-145" on="1"/>
        <pt x="-1319" y="-156" on="0"/>
        <pt x="-1319" y="-170" on="1"/>
        <pt x="-1319" y="-217" on="0"/>
        <pt x="-1380" y="-305" on="1"/>
        <pt x="-1460" y="-419" on="0"/>
        <pt x="-1600" y="-481" on="1"/>
        <pt x="-1600" y="-559" on="0"/>
        <pt x="-1500" y="-559" on="1"/>
        <pt x="-1380" y="-559" on="0"/>
        <pt x="-1262" y="-453" on="1"/>
        <pt x="-1212" y="-408" on="1"/>
        <pt x="-1300" y="-377" on="0"/>
        <pt x="-1300" y="-302" on="1"/>
        <pt x="-1300" y="-174" on="0"/>
        <pt x="-1150" y="-174" on="1"/>
        <pt x="-970" y="-174" on="0"/>
        <pt x="-970" y="-302" on="1"/>
        <pt x="-970" y="-318" on="0"/>
        <pt x="-986" y="-344" on="1"/>
        <pt x="-950" y="-344" on="1"/>
        <pt x="-923" y="-344" on="0"/>
        <pt x="-850" y="-310" on="1"/>
        <pt x="-850" y="-395" on="0"/>
        <pt x="-952" y="-429" on="1"/>
        <pt x="-1000" y="-429" on="1"/>
        <pt x="-1013" y="-429" on="0"/>
        <pt x="-1038" y="-428" on="0"/>
        <pt x="-1049" y="-427" on="1"/>
        <pt x="-1062" y="-443" on="0"/>
        <pt x="-1093" y="-478" on="0"/>
        <pt x="-1110" y="-497" on="1"/>
        <pt x="-1300" y="-651" on="0"/>
        <pt x="-1500" y="-651" on="1"/>
        <pt x="-1850" y="-651" on="0"/>
        <pt x="-1850" y="-481" on="1"/>
        <pt x="-1850" y="-400" on="0"/>
        <pt x="-1800" y="-388" on="1"/>
        <pt x="-1550" y="-335" on="0"/>
        <pt x="-1550" y="-191" on="1"/>
        <pt x="-1550" y="-101" on="0"/>
      </contour>
      <contour>
        <pt x="-1120" y="-302" on="1"/>
        <pt x="-1114" y="-291" on="0"/>
        <pt x="-1114" y="-282" on="1"/>
        <pt x="-1114" y="-262" on="0"/>
        <pt x="-1150" y="-262" on="1"/>
        <pt x="-1200" y="-262" on="0"/>
        <pt x="-1200" y="-302" on="1"/>
        <pt x="-1200" y="-327" on="0"/>
        <pt x="-1145" y="-336" on="1"/>
        <pt x="-1127" y="-316" on="0"/>
      </contour>
    </TTGlyph>
    <TTGlyph name="glyph231" xMin="-1950" yMin="-650" xMax="-950" yMax="-100">
      <contour>
        <pt x="-1800" y="-100" on="1"/>
        <pt x="-1600" y="-100" on="1"/>
        <pt x="-1600" y="-374" on="1"/>
        <pt x="-1500" y="-374" on="0"/>
        <pt x="-1440" y="-431" on="1"/>
        <pt x="-1365" y="-498" on="1"/>
        <pt x="-1300" y="-557" on="0"/>
        <pt x="-1250" y="-557" on="1"/>
        <pt x="-1200" y="-557" on="0"/>
        <pt x="-1200" y="-466" on="1"/>
        <pt x="-1200" y="-374" on="1"/>
        <pt x="-1269" y="-374" on="0"/>
        <pt x="-1300" y="-337" on="0"/>
        <pt x="-1300" y="-306" on="1"/>
        <pt x="-1300" y="-236" on="0"/>
        <pt x="-1200" y="-100" on="0"/>
        <pt x="-1075" y="-100" on="1"/>
        <pt x="-950" y="-100" on="0"/>
        <pt x="-950" y="-203" on="1"/>
        <pt x="-950" y="-466" on="1"/>
        <pt x="-950" y="-649" on="0"/>
        <pt x="-1250" y="-649" on="1"/>
        <pt x="-1350" y="-649" on="0"/>
        <pt x="-1440" y="-555" on="1"/>
        <pt x="-1515" y="-488" on="1"/>
        <pt x="-1545" y="-466" on="0"/>
        <pt x="-1600" y="-466" on="1"/>
        <pt x="-1600" y="-558" on="1"/>
        <pt x="-1600" y="-650" on="0"/>
        <pt x="-1725" y="-650" on="1"/>
        <pt x="-1850" y="-650" on="0"/>
        <pt x="-1950" y="-531" on="0"/>
        <pt x="-1950" y="-466" on="1"/>
        <pt x="-1950" y="-374" on="0"/>
        <pt x="-1850" y="-374" on="1"/>
        <pt x="-1850" y="-146" on="1"/>
        <pt x="-1850" y="-100" on="0"/>
      </contour>
    </TTGlyph>
    <TTGlyph name="glyph232" xMin="-1900" yMin="-650" xMax="-803" yMax="-100">
      <contour>
        <pt x="-1202" y="-650" on="1"/>
        <pt x="-1254" y="-650" on="0"/>
        <pt x="-1363" y="-552" on="1"/>
        <pt x="-1400" y="-520" on="1"/>
        <pt x="-1439" y="-552" on="1"/>
        <pt x="-1549" y="-650" on="0"/>
        <pt x="-1600" y="-650" on="1"/>
        <pt x="-1900" y="-650" on="0"/>
        <pt x="-1900" y="-355" on="1"/>
        <pt x="-1900" y="-100" on="0"/>
        <pt x="-1600" y="-100" on="1"/>
        <pt x="-1550" y="-100" on="0"/>
        <pt x="-1550" y="-145" on="1"/>
        <pt x="-1550" y="-191" on="0"/>
        <pt x="-1600" y="-191" on="1"/>
        <pt x="-1650" y="-191" on="0"/>
        <pt x="-1650" y="-355" on="1"/>
        <pt x="-1650" y="-558" on="0"/>
        <pt x="-1600" y="-558" on="1"/>
        <pt x="-1501" y="-480" on="1"/>
        <pt x="-1400" y="-395" on="1"/>
        <pt x="-1302" y="-480" on="1"/>
        <pt x="-1200" y="-558" on="1"/>
        <pt x="-1150" y="-558" on="0"/>
        <pt x="-1150" y="-373" on="1"/>
        <pt x="-1162" y="-374" on="0"/>
        <pt x="-1187" y="-375" on="0"/>
        <pt x="-1200" y="-375" on="1"/>
        <pt x="-1350" y="-375" on="0"/>
        <pt x="-1350" y="-237" on="1"/>
        <pt x="-1350" y="-100" on="0"/>
        <pt x="-1200" y="-100" on="1"/>
        <pt x="-940" y="-100" on="0"/>
        <pt x="-908" y="-264" on="1"/>
        <pt x="-894" y="-260" on="0"/>
        <pt x="-866" y="-254" on="0"/>
        <pt x="-853" y="-249" on="1"/>
        <pt x="-847" y="-248" on="0"/>
        <pt x="-838" y="-246" on="0"/>
        <pt x="-835" y="-245" on="1"/>
        <pt x="-831" y="-244" on="0"/>
        <pt x="-817" y="-244" on="1"/>
        <pt x="-803" y="-244" on="0"/>
        <pt x="-803" y="-275" on="1"/>
        <pt x="-803" y="-316" on="0"/>
        <pt x="-853" y="-334" on="1"/>
        <pt x="-864" y="-338" on="0"/>
        <pt x="-887" y="-345" on="0"/>
        <pt x="-900" y="-349" on="1"/>
        <pt x="-900" y="-356" on="1"/>
        <pt x="-900" y="-650" on="0"/>
      </contour>
      <contour>
        <pt x="-1200" y="-191" on="1"/>
        <pt x="-1250" y="-191" on="0"/>
        <pt x="-1250" y="-237" on="1"/>
        <pt x="-1250" y="-283" on="0"/>
        <pt x="-1202" y="-283" on="1"/>
        <pt x="-1165" y="-283" on="1"/>
        <pt x="-1154" y="-283" on="0"/>
        <pt x="-1153" y="-282" on="1"/>
        <pt x="-1164" y="-191" on="0"/>
      </contour>
    </TTGlyph>
    <TTGlyph name="glyph233" xMin="-2000" yMin="-600" xMax="-900" yMax="-100">
      <contour>
        <pt x="-900" y="-300" on="1"/>
        <pt x="-900" y="-600" on="0"/>
        <pt x="-1250" y="-600" on="1"/>
        <pt x="-1550" y="-600" on="0"/>
        <pt x="-1637" y="-451" on="1"/>
        <pt x="-1763" y="-250" on="0"/>
        <pt x="-1850" y="-250" on="1"/>
        <pt x="-1955" y="-250" on="0"/>
        <pt x="-2000" y="-340" on="1"/>
        <pt x="-2000" y="-290" on="1"/>
        <pt x="-2000" y="-240" on="0"/>
        <pt x="-1962" y="-195" on="1"/>
        <pt x="-1925" y="-150" on="0"/>
        <pt x="-1800" y="-150" on="1"/>
        <pt x="-1521" y="-150" on="0"/>
        <pt x="-1402" y="-371" on="1"/>
        <pt x="-1333" y="-500" on="0"/>
        <pt x="-1250" y="-500" on="1"/>
        <pt x="-1150" y="-500" on="0"/>
        <pt x="-1150" y="-300" on="1"/>
        <pt x="-1150" y="-200" on="0"/>
        <pt x="-1250" y="-200" on="1"/>
        <pt x="-1250" y="-100" on="0"/>
        <pt x="-1150" y="-100" on="1"/>
        <pt x="-900" y="-100" on="0"/>
      </contour>
    </TTGlyph>
    <TTGlyph name="glyph234" xMin="-1850" yMin="-650" xMax="-950" yMax="-100">
      <contour>
        <pt x="-1600" y="-518" on="1"/>
        <pt x="-1550" y="-474" on="0"/>
        <pt x="-1550" y="-449" on="1"/>
        <pt x="-1550" y="-420" on="0"/>
        <pt x="-1600" y="-420" on="1"/>
      </contour>
      <contour>
        <pt x="-1600" y="-329" on="1"/>
        <pt x="-1450" y="-329" on="0"/>
        <pt x="-1450" y="-448" on="1"/>
        <pt x="-1450" y="-512" on="0"/>
        <pt x="-1525" y="-581" on="1"/>
        <pt x="-1600" y="-650" on="0"/>
        <pt x="-1700" y="-650" on="1"/>
        <pt x="-1850" y="-650" on="0"/>
        <pt x="-1850" y="-516" on="1"/>
        <pt x="-1850" y="-283" on="1"/>
        <pt x="-1850" y="-100" on="0"/>
        <pt x="-1400" y="-100" on="1"/>
        <pt x="-950" y="-100" on="0"/>
        <pt x="-950" y="-283" on="1"/>
        <pt x="-950" y="-650" on="1"/>
        <pt x="-1200" y="-650" on="1"/>
        <pt x="-1200" y="-283" on="1"/>
        <pt x="-1200" y="-191" on="0"/>
        <pt x="-1400" y="-191" on="1"/>
        <pt x="-1600" y="-191" on="0"/>
        <pt x="-1600" y="-283" on="1"/>
      </contour>
    </TTGlyph>
    <TTGlyph name="glyph235" xMin="-1849" yMin="-650" xMax="-850" yMax="-100">
      <contour>
        <pt x="-1200" y="-100" on="1"/>
        <pt x="-950" y="-100" on="1"/>
        <pt x="-950" y="-238" on="1"/>
        <pt x="-850" y="-238" on="1"/>
        <pt x="-850" y="-330" on="1"/>
        <pt x="-950" y="-329" on="1"/>
        <pt x="-950" y="-564" on="1"/>
        <pt x="-950" y="-650" on="0"/>
        <pt x="-1107" y="-650" on="1"/>
        <pt x="-1383" y="-505" on="1"/>
        <pt x="-1496" y="-614" on="1"/>
        <pt x="-1534" y="-650" on="0"/>
        <pt x="-1580" y="-650" on="1"/>
        <pt x="-1626" y="-650" on="0"/>
        <pt x="-1654" y="-610" on="1"/>
        <pt x="-1824" y="-422" on="1"/>
        <pt x="-1849" y="-388" on="0"/>
        <pt x="-1849" y="-330" on="1"/>
        <pt x="-1849" y="-273" on="0"/>
        <pt x="-1761" y="-261" on="1"/>
        <pt x="-1620" y="-249" on="0"/>
        <pt x="-1472" y="-237" on="0"/>
        <pt x="-1409" y="-237" on="1"/>
        <pt x="-1200" y="-237" on="1"/>
      </contour>
      <contour>
        <pt x="-1200" y="-330" on="1"/>
        <pt x="-1423" y="-330" on="1"/>
        <pt x="-1513" y="-330" on="0"/>
        <pt x="-1599" y="-351" on="1"/>
        <pt x="-1539" y="-530" on="1"/>
        <pt x="-1399" y="-396" on="1"/>
        <pt x="-1200" y="-503" on="1"/>
      </contour>
    </TTGlyph>
    <TTGlyph name="glyph236" xMin="-1850" yMin="-650" xMax="-950" yMax="-50">
      <contour>
        <pt x="-1600" y="-226" on="1"/>
        <pt x="-1530" y="-226" on="0"/>
        <pt x="-1530" y="-259" on="1"/>
        <pt x="-1530" y="-294" on="0"/>
        <pt x="-1600" y="-358" on="1"/>
        <pt x="-1775" y="-358" on="1"/>
        <pt x="-1850" y="-358" on="0"/>
        <pt x="-1850" y="-291" on="1"/>
        <pt x="-1850" y="-182" on="1"/>
        <pt x="-1725" y="-50" on="0"/>
        <pt x="-1627" y="-50" on="1"/>
        <pt x="-1530" y="-50" on="0"/>
        <pt x="-1400" y="-140" on="1"/>
        <pt x="-1270" y="-50" on="0"/>
        <pt x="-1172" y="-50" on="1"/>
        <pt x="-1075" y="-50" on="0"/>
        <pt x="-950" y="-182" on="1"/>
        <pt x="-950" y="-245" on="1"/>
        <pt x="-950" y="-327" on="0"/>
        <pt x="-1261" y="-400" on="1"/>
        <pt x="-1600" y="-500" on="1"/>
        <pt x="-1600" y="-535" on="0"/>
        <pt x="-1550" y="-535" on="1"/>
        <pt x="-1303" y="-535" on="0"/>
        <pt x="-1200" y="-447" on="1"/>
        <pt x="-950" y="-376" on="1"/>
        <pt x="-950" y="-561" on="1"/>
        <pt x="-950" y="-605" on="0"/>
        <pt x="-975" y="-627" on="1"/>
        <pt x="-1000" y="-650" on="0"/>
        <pt x="-1250" y="-650" on="1"/>
        <pt x="-1200" y="-605" on="0"/>
        <pt x="-1200" y="-579" on="1"/>
        <pt x="-1200" y="-545" on="1"/>
        <pt x="-1329" y="-623" on="0"/>
        <pt x="-1550" y="-623" on="1"/>
        <pt x="-1850" y="-623" on="0"/>
        <pt x="-1850" y="-499" on="1"/>
        <pt x="-1850" y="-442" on="0"/>
        <pt x="-1783" y="-425" on="1"/>
        <pt x="-1284" y="-318" on="1"/>
        <pt x="-1201" y="-296" on="0"/>
        <pt x="-1200" y="-245" on="1"/>
        <pt x="-1200" y="-192" on="1"/>
        <pt x="-1222" y="-155" on="0"/>
        <pt x="-1243" y="-155" on="1"/>
        <pt x="-1265" y="-155" on="0"/>
        <pt x="-1400" y="-251" on="1"/>
        <pt x="-1532" y="-155" on="0"/>
        <pt x="-1554" y="-155" on="1"/>
        <pt x="-1576" y="-155" on="0"/>
        <pt x="-1600" y="-193" on="1"/>
      </contour>
    </TTGlyph>
    <TTGlyph name="glyph237" xMin="-1850" yMin="-650" xMax="-950" yMax="-100">
      <contour>
        <pt x="-1600" y="-518" on="1"/>
        <pt x="-1550" y="-474" on="0"/>
        <pt x="-1550" y="-449" on="1"/>
        <pt x="-1550" y="-420" on="0"/>
        <pt x="-1600" y="-420" on="1"/>
      </contour>
      <contour>
        <pt x="-1600" y="-329" on="1"/>
        <pt x="-1450" y="-329" on="0"/>
        <pt x="-1450" y="-448" on="1"/>
        <pt x="-1450" y="-512" on="0"/>
        <pt x="-1525" y="-581" on="1"/>
        <pt x="-1600" y="-650" on="0"/>
        <pt x="-1700" y="-650" on="1"/>
        <pt x="-1850" y="-650" on="0"/>
        <pt x="-1850" y="-516" on="1"/>
        <pt x="-1850" y="-283" on="1"/>
        <pt x="-1850" y="-100" on="0"/>
        <pt x="-1400" y="-100" on="1"/>
        <pt x="-950" y="-100" on="0"/>
        <pt x="-950" y="-283" on="1"/>
        <pt x="-950" y="-650" on="1"/>
        <pt x="-1200" y="-650" on="1"/>
        <pt x="-1200" y="-283" on="1"/>
        <pt x="-1200" y="-191" on="0"/>
        <pt x="-1400" y="-191" on="1"/>
        <pt x="-1600" y="-191" on="0"/>
        <pt x="-1600" y="-283" on="1"/>
      </contour>
    </TTGlyph>
    <TTGlyph name="glyph238" xMin="-1850" yMin="-650" xMax="-800" yMax="-100">
      <contour>
        <pt x="-1850" y="-400" on="1"/>
        <pt x="-1850" y="-100" on="0"/>
        <pt x="-1450" y="-100" on="1"/>
        <pt x="-1061" y="-100" on="0"/>
        <pt x="-932" y="-384" on="1"/>
        <pt x="-862" y="-550" on="0"/>
        <pt x="-800" y="-550" on="1"/>
        <pt x="-800" y="-650" on="0"/>
        <pt x="-900" y="-650" on="1"/>
        <pt x="-1101" y="-650" on="0"/>
        <pt x="-1164" y="-465" on="1"/>
        <pt x="-1271" y="-200" on="0"/>
        <pt x="-1450" y="-200" on="1"/>
        <pt x="-1600" y="-200" on="0"/>
        <pt x="-1600" y="-400" on="1"/>
        <pt x="-1600" y="-550" on="0"/>
        <pt x="-1450" y="-550" on="1"/>
        <pt x="-1450" y="-650" on="0"/>
        <pt x="-1600" y="-650" on="1"/>
        <pt x="-1850" y="-650" on="0"/>
      </contour>
    </TTGlyph>
    <TTGlyph name="glyph239" xMin="-1850" yMin="-650" xMax="-950" yMax="-100">
      <contour>
        <pt x="-1450" y="-237" on="1"/>
        <pt x="-1450" y="-191" on="0"/>
        <pt x="-1500" y="-191" on="1"/>
        <pt x="-1500" y="-100" on="0"/>
        <pt x="-1350" y="-100" on="1"/>
        <pt x="-1250" y="-100" on="0"/>
        <pt x="-1250" y="-191" on="1"/>
        <pt x="-1250" y="-236" on="0"/>
        <pt x="-1300" y="-305" on="1"/>
        <pt x="-1350" y="-375" on="0"/>
        <pt x="-1600" y="-461" on="1"/>
        <pt x="-1600" y="-558" on="0"/>
        <pt x="-1501" y="-558" on="1"/>
        <pt x="-1273" y="-558" on="0"/>
        <pt x="-1201" y="-269" on="1"/>
        <pt x="-1181" y="-191" on="0"/>
        <pt x="-1050" y="-191" on="1"/>
        <pt x="-950" y="-191" on="0"/>
        <pt x="-950" y="-237" on="1"/>
        <pt x="-950" y="-512" on="1"/>
        <pt x="-950" y="-650" on="0"/>
        <pt x="-1245" y="-650" on="1"/>
        <pt x="-1200" y="-604" on="0"/>
        <pt x="-1200" y="-512" on="1"/>
        <pt x="-1303" y="-650" on="0"/>
        <pt x="-1501" y="-650" on="1"/>
        <pt x="-1850" y="-650" on="0"/>
        <pt x="-1850" y="-475" on="1"/>
        <pt x="-1850" y="-400" on="0"/>
        <pt x="-1800" y="-387" on="1"/>
        <pt x="-1450" y="-314" on="0"/>
      </contour>
    </TTGlyph>
    <TTGlyph name="glyph240" xMin="-1850" yMin="-650" xMax="-950" yMax="-100">
      <contour>
        <pt x="-1200" y="-145" on="1"/>
        <pt x="-1200" y="-100" on="0"/>
        <pt x="-1100" y="-100" on="1"/>
        <pt x="-950" y="-100" on="0"/>
        <pt x="-950" y="-279" on="1"/>
        <pt x="-950" y="-491" on="0"/>
        <pt x="-1191" y="-491" on="1"/>
        <pt x="-1210" y="-491" on="0"/>
        <pt x="-1282" y="-478" on="1"/>
        <pt x="-1350" y="-465" on="1"/>
        <pt x="-1350" y="-650" on="0"/>
        <pt x="-1540" y="-650" on="1"/>
        <pt x="-1850" y="-650" on="0"/>
        <pt x="-1850" y="-496" on="1"/>
        <pt x="-1850" y="-419" on="0"/>
        <pt x="-1800" y="-405" on="1"/>
        <pt x="-1699" y="-405" on="0"/>
        <pt x="-1524" y="-309" on="1"/>
        <pt x="-1350" y="-214" on="0"/>
        <pt x="-1350" y="-173" on="1"/>
        <pt x="-1350" y="-145" on="0"/>
        <pt x="-1400" y="-145" on="1"/>
        <pt x="-1400" y="-100" on="0"/>
        <pt x="-1280" y="-100" on="1"/>
        <pt x="-1204" y="-100" on="0"/>
        <pt x="-1200" y="-161" on="1"/>
      </contour>
      <contour>
        <pt x="-1300" y="-298" on="1"/>
        <pt x="-1382" y="-353" on="1"/>
        <pt x="-1258" y="-386" on="1"/>
        <pt x="-1252" y="-387" on="0"/>
        <pt x="-1247" y="-387" on="1"/>
        <pt x="-1200" y="-387" on="0"/>
        <pt x="-1200" y="-279" on="1"/>
        <pt x="-1200" y="-174" on="1"/>
        <pt x="-1205" y="-239" on="0"/>
      </contour>
      <contour>
        <pt x="-1600" y="-496" on="1"/>
        <pt x="-1600" y="-558" on="0"/>
        <pt x="-1540" y="-558" on="1"/>
        <pt x="-1450" y="-558" on="0"/>
        <pt x="-1450" y="-463" on="1"/>
        <pt x="-1450" y="-396" on="1"/>
      </contour>
    </TTGlyph>
    <TTGlyph name="glyph241" xMin="-1855" yMin="-650" xMax="-805" yMax="-100">
      <contour>
        <pt x="-1506" y="-543" on="1"/>
        <pt x="-1855" y="-543" on="0"/>
        <pt x="-1855" y="-366" on="1"/>
        <pt x="-1855" y="-188" on="0"/>
        <pt x="-1505" y="-188" on="1"/>
        <pt x="-1205" y="-188" on="1"/>
        <pt x="-1205" y="-100" on="1"/>
        <pt x="-955" y="-100" on="1"/>
        <pt x="-955" y="-188" on="1"/>
        <pt x="-805" y="-188" on="1"/>
        <pt x="-805" y="-277" on="1"/>
        <pt x="-955" y="-277" on="1"/>
        <pt x="-955" y="-428" on="1"/>
        <pt x="-855" y="-428" on="0"/>
        <pt x="-855" y="-539" on="1"/>
        <pt x="-855" y="-650" on="0"/>
        <pt x="-1030" y="-650" on="1"/>
        <pt x="-1205" y="-650" on="0"/>
        <pt x="-1205" y="-516" on="1"/>
      </contour>
      <contour>
        <pt x="-1505" y="-455" on="1"/>
        <pt x="-1205" y="-428" on="1"/>
        <pt x="-1205" y="-277" on="1"/>
        <pt x="-1505" y="-277" on="1"/>
        <pt x="-1605" y="-277" on="0"/>
        <pt x="-1605" y="-366" on="1"/>
        <pt x="-1605" y="-455" on="0"/>
      </contour>
    </TTGlyph>
    <TTGlyph name="glyph242" xMin="-1850" yMin="-650" xMax="-950" yMax="-100">
      <contour>
        <pt x="-1375" y="-386" on="1"/>
        <pt x="-1200" y="-498" on="1"/>
        <pt x="-1200" y="-329" on="1"/>
        <pt x="-1225" y="-329" on="1"/>
        <pt x="-1300" y="-329" on="0"/>
        <pt x="-1300" y="-260" on="1"/>
        <pt x="-1300" y="-191" on="0"/>
        <pt x="-1250" y="-145" on="1"/>
        <pt x="-1200" y="-100" on="0"/>
        <pt x="-1075" y="-100" on="1"/>
        <pt x="-950" y="-100" on="0"/>
        <pt x="-950" y="-205" on="1"/>
        <pt x="-950" y="-550" on="1"/>
        <pt x="-950" y="-650" on="0"/>
        <pt x="-1075" y="-650" on="1"/>
        <pt x="-1150" y="-650" on="0"/>
        <pt x="-1184" y="-627" on="1"/>
        <pt x="-1399" y="-489" on="1"/>
        <pt x="-1615" y="-627" on="1"/>
        <pt x="-1650" y="-650" on="0"/>
        <pt x="-1725" y="-650" on="1"/>
        <pt x="-1850" y="-650" on="0"/>
        <pt x="-1850" y="-550" on="1"/>
        <pt x="-1850" y="-100" on="1"/>
        <pt x="-1600" y="-100" on="1"/>
        <pt x="-1600" y="-498" on="1"/>
        <pt x="-1425" y="-386" on="1"/>
        <pt x="-1412" y="-378" on="0"/>
        <pt x="-1400" y="-378" on="1"/>
        <pt x="-1387" y="-378" on="0"/>
      </contour>
    </TTGlyph>
    <TTGlyph name="glyph243" xMin="-1850" yMin="-650" xMax="-950" yMax="-100">
      <contour>
        <pt x="-1582" y="-489" on="0"/>
        <pt x="-1600" y="-489" on="1"/>
        <pt x="-1600" y="-558" on="1"/>
        <pt x="-1561" y="-558" on="0"/>
        <pt x="-1561" y="-512" on="1"/>
        <pt x="-1561" y="-501" on="0"/>
        <pt x="-1572" y="-495" on="1"/>
      </contour>
      <contour>
        <pt x="-1600" y="-397" on="1"/>
        <pt x="-1539" y="-397" on="0"/>
        <pt x="-1508" y="-426" on="1"/>
        <pt x="-1477" y="-455" on="0"/>
        <pt x="-1477" y="-512" on="1"/>
        <pt x="-1477" y="-650" on="0"/>
        <pt x="-1600" y="-650" on="1"/>
        <pt x="-1750" y="-650" on="1"/>
        <pt x="-1850" y="-650" on="0"/>
        <pt x="-1850" y="-558" on="1"/>
        <pt x="-1850" y="-356" on="1"/>
        <pt x="-1850" y="-244" on="0"/>
        <pt x="-1665" y="-100" on="0"/>
        <pt x="-1591" y="-100" on="1"/>
        <pt x="-1518" y="-100" on="0"/>
        <pt x="-1399" y="-204" on="1"/>
        <pt x="-1280" y="-100" on="0"/>
        <pt x="-1207" y="-100" on="1"/>
        <pt x="-1134" y="-100" on="0"/>
        <pt x="-950" y="-244" on="0"/>
        <pt x="-950" y="-356" on="1"/>
        <pt x="-950" y="-650" on="1"/>
        <pt x="-1200" y="-650" on="1"/>
        <pt x="-1200" y="-356" on="1"/>
        <pt x="-1200" y="-268" on="0"/>
        <pt x="-1236" y="-244" on="1"/>
        <pt x="-1242" y="-241" on="0"/>
        <pt x="-1249" y="-241" on="1"/>
        <pt x="-1292" y="-241" on="0"/>
        <pt x="-1399" y="-357" on="1"/>
        <pt x="-1507" y="-241" on="0"/>
        <pt x="-1550" y="-241" on="1"/>
        <pt x="-1558" y="-241" on="0"/>
        <pt x="-1563" y="-244" on="1"/>
        <pt x="-1600" y="-268" on="0"/>
        <pt x="-1600" y="-356" on="1"/>
      </contour>
    </TTGlyph>
    <TTGlyph name="glyph244" xMin="-1950" yMin="-650" xMax="-950" yMax="-100">
      <contour>
        <pt x="-1800" y="-420" on="0"/>
        <pt x="-1825" y="-420" on="1"/>
        <pt x="-1850" y="-420" on="0"/>
        <pt x="-1850" y="-449" on="1"/>
        <pt x="-1850" y="-474" on="0"/>
        <pt x="-1800" y="-518" on="1"/>
      </contour>
      <contour>
        <pt x="-1850" y="-283" on="1"/>
        <pt x="-1850" y="-100" on="0"/>
        <pt x="-1400" y="-100" on="1"/>
        <pt x="-950" y="-100" on="0"/>
        <pt x="-950" y="-284" on="1"/>
        <pt x="-950" y="-650" on="1"/>
        <pt x="-1200" y="-650" on="1"/>
        <pt x="-1200" y="-283" on="1"/>
        <pt x="-1200" y="-237" on="0"/>
        <pt x="-1250" y="-214" on="1"/>
        <pt x="-1300" y="-191" on="0"/>
        <pt x="-1400" y="-191" on="1"/>
        <pt x="-1500" y="-191" on="0"/>
        <pt x="-1550" y="-214" on="1"/>
        <pt x="-1600" y="-237" on="0"/>
        <pt x="-1600" y="-283" on="1"/>
        <pt x="-1600" y="-650" on="1"/>
        <pt x="-1800" y="-650" on="1"/>
        <pt x="-1875" y="-581" on="1"/>
        <pt x="-1950" y="-512" on="0"/>
        <pt x="-1950" y="-448" on="1"/>
        <pt x="-1950" y="-329" on="0"/>
        <pt x="-1850" y="-329" on="1"/>
      </contour>
    </TTGlyph>
    <TTGlyph name="glyph245" xMin="-1850" yMin="-650" xMax="-750" yMax="-100">
      <contour>
        <pt x="-1550" y="-507" on="1"/>
        <pt x="-1850" y="-507" on="0"/>
        <pt x="-1850" y="-329" on="1"/>
        <pt x="-1850" y="-237" on="0"/>
        <pt x="-1600" y="-237" on="1"/>
        <pt x="-1600" y="-329" on="1"/>
        <pt x="-1600" y="-412" on="0"/>
        <pt x="-1550" y="-412" on="1"/>
        <pt x="-1200" y="-375" on="1"/>
        <pt x="-1200" y="-100" on="1"/>
        <pt x="-950" y="-100" on="1"/>
        <pt x="-950" y="-375" on="1"/>
        <pt x="-750" y="-375" on="0"/>
        <pt x="-750" y="-512" on="1"/>
        <pt x="-750" y="-650" on="0"/>
        <pt x="-925" y="-650" on="1"/>
        <pt x="-1200" y="-650" on="0"/>
        <pt x="-1200" y="-466" on="1"/>
      </contour>
      <contour>
        <pt x="-850" y="-512" on="1"/>
        <pt x="-850" y="-466" on="0"/>
        <pt x="-950" y="-466" on="1"/>
        <pt x="-950" y="-558" on="0"/>
        <pt x="-901" y="-558" on="1"/>
        <pt x="-900" y="-558" on="1"/>
        <pt x="-850" y="-558" on="0"/>
      </contour>
    </TTGlyph>
    <TTGlyph name="glyph246" xMin="-1915" yMin="-650" xMax="-865" yMax="-100">
      <contour>
        <pt x="-1915" y="-400" on="1"/>
        <pt x="-1915" y="-100" on="0"/>
        <pt x="-1565" y="-100" on="1"/>
        <pt x="-1366" y="-100" on="0"/>
        <pt x="-1297" y="-334" on="1"/>
        <pt x="-1231" y="-550" on="0"/>
        <pt x="-1185" y="-550" on="1"/>
        <pt x="-1105" y="-550" on="0"/>
        <pt x="-1105" y="-250" on="1"/>
        <pt x="-1105" y="-150" on="0"/>
        <pt x="-1155" y="-100" on="1"/>
        <pt x="-865" y="-100" on="0"/>
        <pt x="-865" y="-250" on="1"/>
        <pt x="-865" y="-350" on="0"/>
        <pt x="-935" y="-650" on="0"/>
        <pt x="-1185" y="-650" on="1"/>
        <pt x="-1415" y="-650" on="0"/>
        <pt x="-1456" y="-363" on="1"/>
        <pt x="-1485" y="-200" on="0"/>
        <pt x="-1565" y="-200" on="1"/>
        <pt x="-1665" y="-200" on="0"/>
        <pt x="-1665" y="-400" on="1"/>
        <pt x="-1665" y="-550" on="0"/>
        <pt x="-1625" y="-550" on="1"/>
        <pt x="-1585" y="-550" on="0"/>
        <pt x="-1585" y="-450" on="1"/>
        <pt x="-1485" y="-450" on="0"/>
        <pt x="-1485" y="-550" on="1"/>
        <pt x="-1485" y="-650" on="0"/>
        <pt x="-1625" y="-650" on="1"/>
        <pt x="-1915" y="-650" on="0"/>
      </contour>
    </TTGlyph>
    <TTGlyph name="glyph247" xMin="-1850" yMin="-650" xMax="-950" yMax="-100">
      <contour>
        <pt x="-1450" y="-650" on="1"/>
        <pt x="-1850" y="-650" on="0"/>
        <pt x="-1850" y="-481" on="1"/>
        <pt x="-1850" y="-397" on="1"/>
        <pt x="-1440" y="-397" on="0"/>
        <pt x="-1200" y="-100" on="1"/>
        <pt x="-950" y="-100" on="1"/>
        <pt x="-950" y="-191" on="1"/>
        <pt x="-950" y="-419" on="0"/>
        <pt x="-1229" y="-650" on="0"/>
      </contour>
      <contour>
        <pt x="-1600" y="-481" on="1"/>
        <pt x="-1600" y="-558" on="0"/>
        <pt x="-1450" y="-558" on="1"/>
        <pt x="-1320" y="-558" on="0"/>
        <pt x="-1260" y="-488" on="1"/>
        <pt x="-1200" y="-419" on="0"/>
        <pt x="-1200" y="-262" on="1"/>
        <pt x="-1400" y="-438" on="0"/>
      </contour>
    </TTGlyph>
    <TTGlyph name="glyph248" xMin="-1920" yMin="-650" xMax="-870" yMax="-100">
      <contour>
        <pt x="-1670" y="-466" on="1"/>
        <pt x="-1670" y="-558" on="0"/>
        <pt x="-1595" y="-558" on="1"/>
        <pt x="-1520" y="-558" on="0"/>
        <pt x="-1520" y="-466" on="1"/>
        <pt x="-1520" y="-283" on="1"/>
        <pt x="-1520" y="-100" on="0"/>
        <pt x="-1195" y="-100" on="1"/>
        <pt x="-870" y="-100" on="0"/>
        <pt x="-870" y="-283" on="1"/>
        <pt x="-870" y="-650" on="1"/>
        <pt x="-1120" y="-650" on="1"/>
        <pt x="-1120" y="-283" on="1"/>
        <pt x="-1120" y="-191" on="0"/>
        <pt x="-1195" y="-191" on="1"/>
        <pt x="-1270" y="-191" on="0"/>
        <pt x="-1270" y="-283" on="1"/>
        <pt x="-1270" y="-466" on="1"/>
        <pt x="-1270" y="-650" on="0"/>
        <pt x="-1595" y="-650" on="1"/>
        <pt x="-1920" y="-650" on="0"/>
        <pt x="-1920" y="-466" on="1"/>
        <pt x="-1920" y="-100" on="1"/>
        <pt x="-1670" y="-100" on="1"/>
      </contour>
    </TTGlyph>
    <TTGlyph name="glyph249" xMin="-1930" yMin="-650" xMax="-950" yMax="-100">
      <contour>
        <pt x="-1200" y="-415" on="1"/>
        <pt x="-1600" y="-415" on="1"/>
        <pt x="-1600" y="-547" on="1"/>
        <pt x="-1600" y="-650" on="0"/>
        <pt x="-1725" y="-650" on="1"/>
        <pt x="-1850" y="-650" on="1"/>
        <pt x="-1930" y="-607" on="0"/>
        <pt x="-1930" y="-542" on="1"/>
        <pt x="-1930" y="-478" on="0"/>
        <pt x="-1850" y="-478" on="1"/>
        <pt x="-1850" y="-267" on="1"/>
        <pt x="-1850" y="-205" on="0"/>
        <pt x="-1930" y="-184" on="1"/>
        <pt x="-1930" y="-100" on="1"/>
        <pt x="-1765" y="-100" on="1"/>
        <pt x="-1600" y="-100" on="0"/>
        <pt x="-1600" y="-201" on="1"/>
        <pt x="-1600" y="-320" on="1"/>
        <pt x="-1200" y="-320" on="1"/>
        <pt x="-1200" y="-267" on="1"/>
        <pt x="-1200" y="-205" on="0"/>
        <pt x="-1280" y="-184" on="1"/>
        <pt x="-1280" y="-100" on="1"/>
        <pt x="-1115" y="-100" on="1"/>
        <pt x="-950" y="-100" on="0"/>
        <pt x="-950" y="-201" on="1"/>
        <pt x="-950" y="-547" on="1"/>
        <pt x="-950" y="-650" on="0"/>
        <pt x="-1075" y="-650" on="1"/>
        <pt x="-1200" y="-650" on="1"/>
        <pt x="-1280" y="-607" on="0"/>
        <pt x="-1280" y="-542" on="1"/>
        <pt x="-1280" y="-478" on="0"/>
        <pt x="-1200" y="-478" on="1"/>
      </contour>
    </TTGlyph>
    <TTGlyph name="glyph250" xMin="-1645" yMin="1800" xMax="-1055" yMax="2250">
      <contour>
        <pt x="-1430" y="2250" on="1"/>
        <pt x="-1430" y="1910" on="1"/>
        <pt x="-1430" y="1830" on="0"/>
        <pt x="-1537" y="1800" on="1"/>
        <pt x="-1645" y="1830" on="0"/>
        <pt x="-1645" y="1910" on="1"/>
        <pt x="-1645" y="2250" on="1"/>
      </contour>
      <contour>
        <pt x="-1055" y="2250" on="1"/>
        <pt x="-1055" y="1910" on="1"/>
        <pt x="-1055" y="1830" on="0"/>
        <pt x="-1162" y="1800" on="1"/>
        <pt x="-1270" y="1830" on="0"/>
        <pt x="-1270" y="1910" on="1"/>
        <pt x="-1270" y="2250" on="1"/>
      </contour>
    </TTGlyph>
    <TTGlyph name="glyph251" xMin="-1950" yMin="1555" xMax="-750" yMax="1910">
      <contour>
        <pt x="-1945" y="1576" on="1"/>
        <pt x="-1950" y="1595" on="0"/>
        <pt x="-1950" y="1616" on="1"/>
        <pt x="-1950" y="1685" on="0"/>
        <pt x="-1716" y="1910" on="1"/>
        <pt x="-1506" y="1910" on="0"/>
        <pt x="-1333" y="1776" on="1"/>
        <pt x="-1134" y="1910" on="0"/>
        <pt x="-1087" y="1910" on="1"/>
        <pt x="-1001" y="1910" on="0"/>
        <pt x="-902" y="1819" on="1"/>
        <pt x="-840" y="1761" on="0"/>
        <pt x="-796" y="1761" on="1"/>
        <pt x="-770" y="1761" on="0"/>
        <pt x="-750" y="1781" on="1"/>
        <pt x="-750" y="1698" on="0"/>
        <pt x="-783" y="1641" on="1"/>
        <pt x="-817" y="1584" on="0"/>
        <pt x="-894" y="1584" on="1"/>
        <pt x="-981" y="1584" on="0"/>
        <pt x="-1123" y="1682" on="1"/>
        <pt x="-1124" y="1682" on="1"/>
        <pt x="-1194" y="1682" on="0"/>
        <pt x="-1389" y="1555" on="1"/>
        <pt x="-1549" y="1659" on="0"/>
        <pt x="-1646" y="1679" on="0"/>
        <pt x="-1716" y="1684" on="1"/>
        <pt x="-1786" y="1610" on="1"/>
        <pt x="-1784" y="1592" on="0"/>
        <pt x="-1773" y="1576" on="1"/>
      </contour>
    </TTGlyph>
    <TTGlyph name="glyph252" xMin="-1744" yMin="1800" xMax="-956" yMax="2425">
      <contour>
        <pt x="-1426" y="1916" on="1"/>
        <pt x="-1469" y="1897" on="0"/>
        <pt x="-1530" y="1849" on="1"/>
        <pt x="-1591" y="1800" on="0"/>
        <pt x="-1629" y="1800" on="1"/>
        <pt x="-1711" y="1800" on="0"/>
        <pt x="-1731" y="1827" on="1"/>
        <pt x="-1744" y="1846" on="0"/>
        <pt x="-1744" y="1865" on="1"/>
        <pt x="-1744" y="1926" on="0"/>
        <pt x="-1680" y="1971" on="1"/>
        <pt x="-1586" y="2035" on="1"/>
        <pt x="-1444" y="2132" on="0"/>
        <pt x="-1381" y="2282" on="0"/>
        <pt x="-1381" y="2325" on="1"/>
        <pt x="-1381" y="2425" on="0"/>
        <pt x="-1246" y="2425" on="1"/>
        <pt x="-1162" y="2425" on="0"/>
        <pt x="-1162" y="2325" on="1"/>
        <pt x="-1163" y="2252" on="0"/>
        <pt x="-1227" y="2136" on="0"/>
        <pt x="-1365" y="2026" on="1"/>
        <pt x="-1296" y="2051" on="0"/>
        <pt x="-1234" y="2051" on="1"/>
        <pt x="-1153" y="2051" on="0"/>
        <pt x="-1124" y="2045" on="1"/>
        <pt x="-1037" y="2026" on="0"/>
        <pt x="-976" y="1934" on="1"/>
        <pt x="-956" y="1899" on="0"/>
        <pt x="-956" y="1872" on="1"/>
        <pt x="-956" y="1834" on="0"/>
        <pt x="-994" y="1813" on="1"/>
        <pt x="-1015" y="1800" on="0"/>
        <pt x="-1085" y="1800" on="1"/>
        <pt x="-1123" y="1800" on="0"/>
        <pt x="-1153" y="1850" on="1"/>
        <pt x="-1197" y="1925" on="0"/>
        <pt x="-1265" y="1935" on="1"/>
        <pt x="-1383" y="1935" on="0"/>
      </contour>
    </TTGlyph>
    <TTGlyph name="glyph253" xMin="-1610" yMin="1800" xMax="-1090" yMax="2219">
      <contour>
        <pt x="-1460" y="1949" on="1"/>
        <pt x="-1610" y="1949" on="1"/>
        <pt x="-1610" y="2070" on="1"/>
        <pt x="-1460" y="2070" on="1"/>
        <pt x="-1460" y="2219" on="1"/>
        <pt x="-1240" y="2219" on="1"/>
        <pt x="-1240" y="2070" on="1"/>
        <pt x="-1090" y="2070" on="1"/>
        <pt x="-1090" y="1949" on="1"/>
        <pt x="-1240" y="1949" on="1"/>
        <pt x="-1240" y="1800" on="1"/>
        <pt x="-1460" y="1800" on="1"/>
      </contour>
    </TTGlyph>
    <TTGlyph name="glyph254" xMin="20" yMin="0" xMax="1980" yMax="1500">
      <contour>
        <pt x="880" y="900" on="1"/>
        <pt x="980" y="1100" on="0"/>
        <pt x="1380" y="1100" on="1"/>
        <pt x="1780" y="1100" on="0"/>
        <pt x="1880" y="900" on="1"/>
        <pt x="1880" y="0" on="1"/>
        <pt x="1600" y="0" on="1"/>
        <pt x="1600" y="860" on="1"/>
        <pt x="1540" y="980" on="0"/>
        <pt x="1380" y="980" on="1"/>
        <pt x="1220" y="980" on="0"/>
        <pt x="1160" y="860" on="1"/>
        <pt x="1160" y="0" on="1"/>
        <pt x="880" y="0" on="1"/>
      </contour>
      <contour>
        <pt x="883" y="1040" on="0"/>
        <pt x="780" y="1137" on="0"/>
        <pt x="780" y="1206" on="1"/>
        <pt x="780" y="1275" on="0"/>
        <pt x="1014" y="1500" on="1"/>
        <pt x="1224" y="1500" on="0"/>
        <pt x="1397" y="1366" on="1"/>
        <pt x="1596" y="1500" on="0"/>
        <pt x="1643" y="1500" on="1"/>
        <pt x="1729" y="1500" on="0"/>
        <pt x="1828" y="1409" on="1"/>
        <pt x="1890" y="1351" on="0"/>
        <pt x="1934" y="1351" on="1"/>
        <pt x="1960" y="1351" on="0"/>
        <pt x="1980" y="1371" on="1"/>
        <pt x="1980" y="1288" on="0"/>
        <pt x="1947" y="1231" on="1"/>
        <pt x="1913" y="1174" on="0"/>
        <pt x="1836" y="1174" on="1"/>
        <pt x="1749" y="1174" on="0"/>
        <pt x="1607" y="1272" on="1"/>
        <pt x="1606" y="1272" on="1"/>
        <pt x="1536" y="1272" on="0"/>
        <pt x="1341" y="1145" on="1"/>
        <pt x="1181" y="1249" on="0"/>
        <pt x="1084" y="1269" on="0"/>
        <pt x="1014" y="1274" on="1"/>
        <pt x="944" y="1200" on="1"/>
        <pt x="952" y="1133" on="0"/>
        <pt x="1083" y="1098" on="1"/>
        <pt x="965" y="1029" on="1"/>
      </contour>
      <contour>
        <pt x="480" y="170" on="1"/>
        <pt x="530" y="170" on="0"/>
        <pt x="530" y="300" on="1"/>
        <pt x="530" y="400" on="0"/>
        <pt x="480" y="400" on="1"/>
      </contour>
      <contour>
        <pt x="200" y="963" on="1"/>
        <pt x="200" y="1069" on="0"/>
        <pt x="20" y="1101" on="1"/>
        <pt x="40" y="1232" on="0"/>
        <pt x="221" y="1500" on="0"/>
        <pt x="275" y="1500" on="1"/>
        <pt x="319" y="1500" on="0"/>
        <pt x="390" y="1457" on="1"/>
        <pt x="460" y="1414" on="1"/>
        <pt x="491" y="1395" on="0"/>
        <pt x="533" y="1395" on="1"/>
        <pt x="555" y="1395" on="0"/>
        <pt x="580" y="1400" on="1"/>
        <pt x="570" y="1330" on="0"/>
        <pt x="509" y="1191" on="0"/>
        <pt x="458" y="1186" on="1"/>
        <pt x="453" y="1185" on="0"/>
        <pt x="448" y="1185" on="1"/>
        <pt x="398" y="1185" on="0"/>
        <pt x="313" y="1238" on="1"/>
        <pt x="287" y="1253" on="0"/>
        <pt x="265" y="1253" on="1"/>
        <pt x="202" y="1253" on="0"/>
        <pt x="186" y="1158" on="1"/>
        <pt x="480" y="1100" on="0"/>
        <pt x="480" y="970" on="1"/>
        <pt x="480" y="500" on="1"/>
        <pt x="630" y="500" on="0"/>
        <pt x="630" y="300" on="1"/>
        <pt x="630" y="200" on="0"/>
        <pt x="525" y="0" on="0"/>
        <pt x="377" y="0" on="1"/>
        <pt x="200" y="0" on="0"/>
        <pt x="200" y="100" on="1"/>
      </contour>
    </TTGlyph>
    <TTGlyph name="glyph255" xMin="20" yMin="0" xMax="1880" yMax="1500">
      <contour>
        <pt x="1160" y="1025" on="1"/>
        <pt x="1160" y="950" on="1"/>
        <pt x="1216" y="950" on="0"/>
        <pt x="1216" y="1000" on="1"/>
        <pt x="1216" y="1025" on="0"/>
      </contour>
      <contour>
        <pt x="1880" y="300" on="1"/>
        <pt x="1880" y="0" on="0"/>
        <pt x="1380" y="0" on="1"/>
        <pt x="880" y="0" on="0"/>
        <pt x="880" y="300" on="1"/>
        <pt x="880" y="607" on="1"/>
        <pt x="1600" y="760" on="0"/>
        <pt x="1600" y="1010" on="1"/>
        <pt x="1600" y="1200" on="1"/>
        <pt x="1600" y="1380" on="0"/>
        <pt x="1380" y="1380" on="1"/>
        <pt x="1160" y="1380" on="0"/>
        <pt x="1160" y="1200" on="1"/>
        <pt x="1160" y="1125" on="1"/>
        <pt x="1242" y="1125" on="0"/>
        <pt x="1279" y="1094" on="1"/>
        <pt x="1316" y="1062" on="0"/>
        <pt x="1316" y="1000" on="1"/>
        <pt x="1316" y="850" on="0"/>
        <pt x="1148" y="850" on="1"/>
        <pt x="880" y="850" on="0"/>
        <pt x="880" y="950" on="1"/>
        <pt x="880" y="1200" on="1"/>
        <pt x="880" y="1500" on="0"/>
        <pt x="1380" y="1500" on="1"/>
        <pt x="1880" y="1500" on="0"/>
        <pt x="1880" y="1200" on="1"/>
        <pt x="1880" y="1010" on="1"/>
        <pt x="1880" y="770" on="0"/>
        <pt x="1160" y="548" on="1"/>
        <pt x="1160" y="300" on="1"/>
        <pt x="1160" y="120" on="0"/>
        <pt x="1380" y="120" on="1"/>
        <pt x="1600" y="120" on="0"/>
        <pt x="1600" y="300" on="1"/>
        <pt x="1600" y="600" on="1"/>
        <pt x="1880" y="600" on="1"/>
      </contour>
      <contour>
        <pt x="480" y="170" on="1"/>
        <pt x="530" y="170" on="0"/>
        <pt x="530" y="300" on="1"/>
        <pt x="530" y="400" on="0"/>
        <pt x="480" y="400" on="1"/>
      </contour>
      <contour>
        <pt x="200" y="963" on="1"/>
        <pt x="200" y="1069" on="0"/>
        <pt x="20" y="1101" on="1"/>
        <pt x="40" y="1232" on="0"/>
        <pt x="221" y="1500" on="0"/>
        <pt x="275" y="1500" on="1"/>
        <pt x="319" y="1500" on="0"/>
        <pt x="390" y="1457" on="1"/>
        <pt x="460" y="1414" on="1"/>
        <pt x="491" y="1395" on="0"/>
        <pt x="533" y="1395" on="1"/>
        <pt x="555" y="1395" on="0"/>
        <pt x="580" y="1400" on="1"/>
        <pt x="570" y="1330" on="0"/>
        <pt x="509" y="1191" on="0"/>
        <pt x="458" y="1186" on="1"/>
        <pt x="453" y="1185" on="0"/>
        <pt x="448" y="1185" on="1"/>
        <pt x="398" y="1185" on="0"/>
        <pt x="313" y="1238" on="1"/>
        <pt x="287" y="1253" on="0"/>
        <pt x="265" y="1253" on="1"/>
        <pt x="202" y="1253" on="0"/>
        <pt x="186" y="1158" on="1"/>
        <pt x="480" y="1100" on="0"/>
        <pt x="480" y="970" on="1"/>
        <pt x="480" y="500" on="1"/>
        <pt x="630" y="500" on="0"/>
        <pt x="630" y="300" on="1"/>
        <pt x="630" y="200" on="0"/>
        <pt x="525" y="0" on="0"/>
        <pt x="377" y="0" on="1"/>
        <pt x="200" y="0" on="0"/>
        <pt x="200" y="100" on="1"/>
      </contour>
    </TTGlyph>
    <TTGlyph name="glyph256" xMin="20" yMin="0" xMax="1980" yMax="1500">
      <contour>
        <pt x="883" y="1040" on="0"/>
        <pt x="780" y="1137" on="0"/>
        <pt x="780" y="1206" on="1"/>
        <pt x="780" y="1275" on="0"/>
        <pt x="1014" y="1500" on="1"/>
        <pt x="1224" y="1500" on="0"/>
        <pt x="1397" y="1366" on="1"/>
        <pt x="1596" y="1500" on="0"/>
        <pt x="1643" y="1500" on="1"/>
        <pt x="1729" y="1500" on="0"/>
        <pt x="1828" y="1409" on="1"/>
        <pt x="1890" y="1351" on="0"/>
        <pt x="1934" y="1351" on="1"/>
        <pt x="1960" y="1351" on="0"/>
        <pt x="1980" y="1371" on="1"/>
        <pt x="1980" y="1288" on="0"/>
        <pt x="1947" y="1231" on="1"/>
        <pt x="1913" y="1174" on="0"/>
        <pt x="1836" y="1174" on="1"/>
        <pt x="1749" y="1174" on="0"/>
        <pt x="1607" y="1272" on="1"/>
        <pt x="1606" y="1272" on="1"/>
        <pt x="1536" y="1272" on="0"/>
        <pt x="1341" y="1145" on="1"/>
        <pt x="1181" y="1249" on="0"/>
        <pt x="1084" y="1269" on="0"/>
        <pt x="1014" y="1274" on="1"/>
        <pt x="944" y="1200" on="1"/>
        <pt x="952" y="1133" on="0"/>
        <pt x="1083" y="1098" on="1"/>
        <pt x="965" y="1029" on="1"/>
      </contour>
      <contour>
        <pt x="1160" y="328" on="1"/>
        <pt x="1200" y="500" on="0"/>
        <pt x="1342" y="500" on="1"/>
        <pt x="1480" y="500" on="0"/>
        <pt x="1480" y="330" on="1"/>
        <pt x="1480" y="250" on="0"/>
        <pt x="1403" y="250" on="1"/>
        <pt x="1346" y="250" on="0"/>
        <pt x="1346" y="283" on="1"/>
        <pt x="1346" y="316" on="0"/>
        <pt x="1302" y="316" on="1"/>
        <pt x="1235" y="316" on="0"/>
        <pt x="1160" y="71" on="1"/>
        <pt x="1160" y="0" on="1"/>
        <pt x="880" y="0" on="1"/>
        <pt x="880" y="900" on="1"/>
        <pt x="980" y="1100" on="0"/>
        <pt x="1380" y="1100" on="1"/>
        <pt x="1780" y="1100" on="0"/>
        <pt x="1880" y="900" on="1"/>
        <pt x="1880" y="0" on="1"/>
        <pt x="1600" y="0" on="1"/>
        <pt x="1600" y="860" on="1"/>
        <pt x="1540" y="980" on="0"/>
        <pt x="1380" y="980" on="1"/>
        <pt x="1220" y="980" on="0"/>
        <pt x="1160" y="860" on="1"/>
      </contour>
      <contour>
        <pt x="480" y="170" on="1"/>
        <pt x="530" y="170" on="0"/>
        <pt x="530" y="300" on="1"/>
        <pt x="530" y="400" on="0"/>
        <pt x="480" y="400" on="1"/>
      </contour>
      <contour>
        <pt x="200" y="963" on="1"/>
        <pt x="200" y="1069" on="0"/>
        <pt x="20" y="1101" on="1"/>
        <pt x="40" y="1232" on="0"/>
        <pt x="221" y="1500" on="0"/>
        <pt x="275" y="1500" on="1"/>
        <pt x="319" y="1500" on="0"/>
        <pt x="390" y="1457" on="1"/>
        <pt x="460" y="1414" on="1"/>
        <pt x="491" y="1395" on="0"/>
        <pt x="533" y="1395" on="1"/>
        <pt x="555" y="1395" on="0"/>
        <pt x="580" y="1400" on="1"/>
        <pt x="570" y="1330" on="0"/>
        <pt x="509" y="1191" on="0"/>
        <pt x="458" y="1186" on="1"/>
        <pt x="453" y="1185" on="0"/>
        <pt x="448" y="1185" on="1"/>
        <pt x="398" y="1185" on="0"/>
        <pt x="313" y="1238" on="1"/>
        <pt x="287" y="1253" on="0"/>
        <pt x="265" y="1253" on="1"/>
        <pt x="202" y="1253" on="0"/>
        <pt x="186" y="1158" on="1"/>
        <pt x="480" y="1100" on="0"/>
        <pt x="480" y="970" on="1"/>
        <pt x="480" y="500" on="1"/>
        <pt x="630" y="500" on="0"/>
        <pt x="630" y="300" on="1"/>
        <pt x="630" y="200" on="0"/>
        <pt x="525" y="0" on="0"/>
        <pt x="377" y="0" on="1"/>
        <pt x="200" y="0" on="0"/>
        <pt x="200" y="100" on="1"/>
      </contour>
    </TTGlyph>
    <TTGlyph name="glyph257" xMin="20" yMin="0" xMax="2680" yMax="1500">
      <contour>
        <pt x="880" y="1350" on="1"/>
        <pt x="800" y="1330" on="0"/>
        <pt x="800" y="1200" on="1"/>
        <pt x="800" y="1100" on="0"/>
        <pt x="880" y="1100" on="1"/>
      </contour>
      <contour>
        <pt x="2580" y="200" on="1"/>
        <pt x="2480" y="0" on="0"/>
        <pt x="2110" y="0" on="1"/>
        <pt x="1857" y="0" on="0"/>
        <pt x="1730" y="94" on="1"/>
        <pt x="1603" y="0" on="0"/>
        <pt x="1350" y="0" on="1"/>
        <pt x="980" y="0" on="0"/>
        <pt x="880" y="200" on="1"/>
        <pt x="880" y="1000" on="1"/>
        <pt x="700" y="1000" on="0"/>
        <pt x="700" y="1200" on="1"/>
        <pt x="700" y="1330" on="0"/>
        <pt x="765" y="1415" on="1"/>
        <pt x="830" y="1500" on="0"/>
        <pt x="910" y="1500" on="1"/>
        <pt x="1160" y="1500" on="0"/>
        <pt x="1160" y="1400" on="1"/>
        <pt x="1160" y="240" on="1"/>
        <pt x="1220" y="120" on="0"/>
        <pt x="1350" y="120" on="1"/>
        <pt x="1530" y="120" on="0"/>
        <pt x="1590" y="240" on="1"/>
        <pt x="1590" y="963" on="1"/>
        <pt x="1590" y="1069" on="0"/>
        <pt x="1410" y="1101" on="1"/>
        <pt x="1430" y="1232" on="0"/>
        <pt x="1611" y="1500" on="0"/>
        <pt x="1665" y="1500" on="1"/>
        <pt x="1709" y="1500" on="0"/>
        <pt x="1780" y="1457" on="1"/>
        <pt x="1850" y="1414" on="1"/>
        <pt x="1881" y="1395" on="0"/>
        <pt x="1923" y="1395" on="1"/>
        <pt x="1945" y="1395" on="0"/>
        <pt x="1970" y="1400" on="1"/>
        <pt x="1960" y="1330" on="0"/>
        <pt x="1899" y="1191" on="0"/>
        <pt x="1848" y="1186" on="1"/>
        <pt x="1843" y="1185" on="0"/>
        <pt x="1838" y="1185" on="1"/>
        <pt x="1788" y="1185" on="0"/>
        <pt x="1703" y="1238" on="1"/>
        <pt x="1677" y="1253" on="0"/>
        <pt x="1655" y="1253" on="1"/>
        <pt x="1592" y="1253" on="0"/>
        <pt x="1576" y="1158" on="1"/>
        <pt x="1870" y="1100" on="0"/>
        <pt x="1870" y="970" on="1"/>
        <pt x="1870" y="240" on="1"/>
        <pt x="1930" y="120" on="0"/>
        <pt x="2110" y="120" on="1"/>
        <pt x="2240" y="120" on="0"/>
        <pt x="2300" y="240" on="1"/>
        <pt x="2300" y="963" on="1"/>
        <pt x="2300" y="1069" on="0"/>
        <pt x="2120" y="1101" on="1"/>
        <pt x="2140" y="1232" on="0"/>
        <pt x="2321" y="1500" on="0"/>
        <pt x="2375" y="1500" on="1"/>
        <pt x="2419" y="1500" on="0"/>
        <pt x="2490" y="1457" on="1"/>
        <pt x="2560" y="1414" on="1"/>
        <pt x="2591" y="1395" on="0"/>
        <pt x="2633" y="1395" on="1"/>
        <pt x="2655" y="1395" on="0"/>
        <pt x="2680" y="1400" on="1"/>
        <pt x="2670" y="1330" on="0"/>
        <pt x="2609" y="1191" on="0"/>
        <pt x="2558" y="1186" on="1"/>
        <pt x="2553" y="1185" on="0"/>
        <pt x="2548" y="1185" on="1"/>
        <pt x="2498" y="1185" on="0"/>
        <pt x="2413" y="1238" on="1"/>
        <pt x="2387" y="1253" on="0"/>
        <pt x="2365" y="1253" on="1"/>
        <pt x="2302" y="1253" on="0"/>
        <pt x="2286" y="1158" on="1"/>
        <pt x="2580" y="1100" on="0"/>
        <pt x="2580" y="970" on="1"/>
      </contour>
      <contour>
        <pt x="480" y="170" on="1"/>
        <pt x="530" y="170" on="0"/>
        <pt x="530" y="300" on="1"/>
        <pt x="530" y="400" on="0"/>
        <pt x="480" y="400" on="1"/>
      </contour>
      <contour>
        <pt x="200" y="963" on="1"/>
        <pt x="200" y="1069" on="0"/>
        <pt x="20" y="1101" on="1"/>
        <pt x="40" y="1232" on="0"/>
        <pt x="221" y="1500" on="0"/>
        <pt x="275" y="1500" on="1"/>
        <pt x="319" y="1500" on="0"/>
        <pt x="390" y="1457" on="1"/>
        <pt x="460" y="1414" on="1"/>
        <pt x="491" y="1395" on="0"/>
        <pt x="533" y="1395" on="1"/>
        <pt x="555" y="1395" on="0"/>
        <pt x="580" y="1400" on="1"/>
        <pt x="570" y="1330" on="0"/>
        <pt x="509" y="1191" on="0"/>
        <pt x="458" y="1186" on="1"/>
        <pt x="453" y="1185" on="0"/>
        <pt x="448" y="1185" on="1"/>
        <pt x="398" y="1185" on="0"/>
        <pt x="313" y="1238" on="1"/>
        <pt x="287" y="1253" on="0"/>
        <pt x="265" y="1253" on="1"/>
        <pt x="202" y="1253" on="0"/>
        <pt x="186" y="1158" on="1"/>
        <pt x="480" y="1100" on="0"/>
        <pt x="480" y="970" on="1"/>
        <pt x="480" y="500" on="1"/>
        <pt x="630" y="500" on="0"/>
        <pt x="630" y="300" on="1"/>
        <pt x="630" y="200" on="0"/>
        <pt x="525" y="0" on="0"/>
        <pt x="377" y="0" on="1"/>
        <pt x="200" y="0" on="0"/>
        <pt x="200" y="100" on="1"/>
      </contour>
    </TTGlyph>
    <TTGlyph name="glyph258" xMin="20" yMin="0" xMax="1880" yMax="1700">
      <contour>
        <pt x="1650" y="1320" on="1"/>
        <pt x="1650" y="1380" on="0"/>
        <pt x="1600" y="1380" on="1"/>
        <pt x="1530" y="1380" on="0"/>
        <pt x="1530" y="1320" on="1"/>
        <pt x="1530" y="1286" on="0"/>
        <pt x="1613" y="1231" on="1"/>
        <pt x="1650" y="1273" on="0"/>
      </contour>
      <contour>
        <pt x="880" y="761" on="1"/>
        <pt x="830" y="761" on="0"/>
        <pt x="830" y="710" on="1"/>
        <pt x="830" y="650" on="0"/>
        <pt x="880" y="650" on="1"/>
      </contour>
      <contour>
        <pt x="1600" y="260" on="1"/>
        <pt x="1600" y="900" on="1"/>
        <pt x="1600" y="988" on="0"/>
        <pt x="1564" y="1045" on="0"/>
        <pt x="1528" y="1069" on="1"/>
        <pt x="1376" y="1000" on="0"/>
        <pt x="1290" y="1000" on="1"/>
        <pt x="1052" y="1000" on="0"/>
        <pt x="969" y="1069" on="1"/>
        <pt x="880" y="1144" on="0"/>
        <pt x="880" y="1260" on="1"/>
        <pt x="880" y="1325" on="0"/>
        <pt x="930" y="1460" on="0"/>
        <pt x="930" y="1530" on="1"/>
        <pt x="930" y="1600" on="0"/>
        <pt x="830" y="1600" on="1"/>
        <pt x="830" y="1700" on="0"/>
        <pt x="1020" y="1700" on="1"/>
        <pt x="1210" y="1700" on="0"/>
        <pt x="1210" y="1530" on="1"/>
        <pt x="1210" y="1445" on="0"/>
        <pt x="1160" y="1330" on="0"/>
        <pt x="1160" y="1260" on="1"/>
        <pt x="1160" y="1201" on="0"/>
        <pt x="1220" y="1120" on="0"/>
        <pt x="1290" y="1120" on="1"/>
        <pt x="1364" y="1120" on="0"/>
        <pt x="1465" y="1156" on="1"/>
        <pt x="1360" y="1244" on="0"/>
        <pt x="1360" y="1320" on="1"/>
        <pt x="1360" y="1500" on="0"/>
        <pt x="1600" y="1500" on="1"/>
        <pt x="1780" y="1500" on="0"/>
        <pt x="1780" y="1320" on="1"/>
        <pt x="1780" y="1243" on="0"/>
        <pt x="1712" y="1172" on="1"/>
        <pt x="1733" y="1161" on="0"/>
        <pt x="1755" y="1150" on="1"/>
        <pt x="1880" y="1083" on="0"/>
        <pt x="1880" y="900" on="1"/>
        <pt x="1880" y="100" on="1"/>
        <pt x="1880" y="0" on="0"/>
        <pt x="1780" y="0" on="1"/>
        <pt x="1688" y="0" on="0"/>
        <pt x="1613" y="77" on="1"/>
        <pt x="1380" y="310" on="1"/>
        <pt x="1123" y="47" on="1"/>
        <pt x="1071" y="0" on="0"/>
        <pt x="980" y="0" on="1"/>
        <pt x="880" y="0" on="0"/>
        <pt x="880" y="100" on="1"/>
        <pt x="880" y="550" on="1"/>
        <pt x="730" y="550" on="0"/>
        <pt x="730" y="710" on="1"/>
        <pt x="730" y="900" on="0"/>
        <pt x="945" y="900" on="1"/>
        <pt x="1160" y="900" on="0"/>
        <pt x="1160" y="800" on="1"/>
        <pt x="1160" y="259" on="1"/>
        <pt x="1296" y="395" on="1"/>
        <pt x="1338" y="438" on="0"/>
        <pt x="1381" y="438" on="1"/>
        <pt x="1423" y="438" on="0"/>
        <pt x="1466" y="395" on="1"/>
      </contour>
      <contour>
        <pt x="480" y="170" on="1"/>
        <pt x="530" y="170" on="0"/>
        <pt x="530" y="300" on="1"/>
        <pt x="530" y="400" on="0"/>
        <pt x="480" y="400" on="1"/>
      </contour>
      <contour>
        <pt x="200" y="963" on="1"/>
        <pt x="200" y="1069" on="0"/>
        <pt x="20" y="1101" on="1"/>
        <pt x="40" y="1232" on="0"/>
        <pt x="221" y="1500" on="0"/>
        <pt x="275" y="1500" on="1"/>
        <pt x="319" y="1500" on="0"/>
        <pt x="390" y="1457" on="1"/>
        <pt x="460" y="1414" on="1"/>
        <pt x="491" y="1395" on="0"/>
        <pt x="533" y="1395" on="1"/>
        <pt x="555" y="1395" on="0"/>
        <pt x="580" y="1400" on="1"/>
        <pt x="570" y="1330" on="0"/>
        <pt x="509" y="1191" on="0"/>
        <pt x="458" y="1186" on="1"/>
        <pt x="453" y="1185" on="0"/>
        <pt x="448" y="1185" on="1"/>
        <pt x="398" y="1185" on="0"/>
        <pt x="313" y="1238" on="1"/>
        <pt x="287" y="1253" on="0"/>
        <pt x="265" y="1253" on="1"/>
        <pt x="202" y="1253" on="0"/>
        <pt x="186" y="1158" on="1"/>
        <pt x="480" y="1100" on="0"/>
        <pt x="480" y="970" on="1"/>
        <pt x="480" y="500" on="1"/>
        <pt x="630" y="500" on="0"/>
        <pt x="630" y="300" on="1"/>
        <pt x="630" y="200" on="0"/>
        <pt x="525" y="0" on="0"/>
        <pt x="377" y="0" on="1"/>
        <pt x="200" y="0" on="0"/>
        <pt x="200" y="100" on="1"/>
      </contour>
    </TTGlyph>
    <TTGlyph name="glyph259" xMin="20" yMin="0" xMax="1980" yMax="1500">
      <contour>
        <pt x="1600" y="861" on="1"/>
        <pt x="1530" y="861" on="0"/>
        <pt x="1530" y="810" on="1"/>
        <pt x="1530" y="750" on="0"/>
        <pt x="1600" y="750" on="1"/>
      </contour>
      <contour>
        <pt x="1160" y="1068" on="1"/>
        <pt x="1160" y="240" on="1"/>
        <pt x="1220" y="120" on="0"/>
        <pt x="1380" y="120" on="1"/>
        <pt x="1540" y="120" on="0"/>
        <pt x="1600" y="240" on="1"/>
        <pt x="1600" y="650" on="1"/>
        <pt x="1430" y="650" on="0"/>
        <pt x="1430" y="810" on="1"/>
        <pt x="1430" y="1000" on="0"/>
        <pt x="1655" y="1000" on="1"/>
        <pt x="1880" y="1000" on="0"/>
        <pt x="1880" y="900" on="1"/>
        <pt x="1880" y="200" on="1"/>
        <pt x="1780" y="0" on="0"/>
        <pt x="1380" y="0" on="1"/>
        <pt x="980" y="0" on="0"/>
        <pt x="880" y="200" on="1"/>
        <pt x="880" y="1054" on="1"/>
        <pt x="853" y="1068" on="0"/>
        <pt x="832" y="1089" on="1"/>
        <pt x="780" y="1137" on="0"/>
        <pt x="780" y="1206" on="1"/>
        <pt x="780" y="1275" on="0"/>
        <pt x="1014" y="1500" on="1"/>
        <pt x="1224" y="1500" on="0"/>
        <pt x="1397" y="1366" on="1"/>
        <pt x="1596" y="1500" on="0"/>
        <pt x="1643" y="1500" on="1"/>
        <pt x="1729" y="1500" on="0"/>
        <pt x="1828" y="1409" on="1"/>
        <pt x="1890" y="1351" on="0"/>
        <pt x="1934" y="1351" on="1"/>
        <pt x="1960" y="1351" on="0"/>
        <pt x="1980" y="1371" on="1"/>
        <pt x="1980" y="1288" on="0"/>
        <pt x="1947" y="1231" on="1"/>
        <pt x="1913" y="1174" on="0"/>
        <pt x="1836" y="1174" on="1"/>
        <pt x="1749" y="1174" on="0"/>
        <pt x="1607" y="1272" on="1"/>
        <pt x="1606" y="1272" on="1"/>
        <pt x="1536" y="1272" on="0"/>
        <pt x="1341" y="1145" on="1"/>
        <pt x="1181" y="1249" on="0"/>
        <pt x="1084" y="1269" on="0"/>
        <pt x="1014" y="1274" on="1"/>
        <pt x="944" y="1200" on="1"/>
        <pt x="952" y="1133" on="0"/>
        <pt x="1083" y="1091" on="1"/>
      </contour>
      <contour>
        <pt x="480" y="170" on="1"/>
        <pt x="530" y="170" on="0"/>
        <pt x="530" y="300" on="1"/>
        <pt x="530" y="400" on="0"/>
        <pt x="480" y="400" on="1"/>
      </contour>
      <contour>
        <pt x="200" y="963" on="1"/>
        <pt x="200" y="1069" on="0"/>
        <pt x="20" y="1101" on="1"/>
        <pt x="40" y="1232" on="0"/>
        <pt x="221" y="1500" on="0"/>
        <pt x="275" y="1500" on="1"/>
        <pt x="319" y="1500" on="0"/>
        <pt x="390" y="1457" on="1"/>
        <pt x="460" y="1414" on="1"/>
        <pt x="491" y="1395" on="0"/>
        <pt x="533" y="1395" on="1"/>
        <pt x="555" y="1395" on="0"/>
        <pt x="580" y="1400" on="1"/>
        <pt x="570" y="1330" on="0"/>
        <pt x="509" y="1191" on="0"/>
        <pt x="458" y="1186" on="1"/>
        <pt x="453" y="1185" on="0"/>
        <pt x="448" y="1185" on="1"/>
        <pt x="398" y="1185" on="0"/>
        <pt x="313" y="1238" on="1"/>
        <pt x="287" y="1253" on="0"/>
        <pt x="265" y="1253" on="1"/>
        <pt x="202" y="1253" on="0"/>
        <pt x="186" y="1158" on="1"/>
        <pt x="480" y="1100" on="0"/>
        <pt x="480" y="970" on="1"/>
        <pt x="480" y="500" on="1"/>
        <pt x="630" y="500" on="0"/>
        <pt x="630" y="300" on="1"/>
        <pt x="630" y="200" on="0"/>
        <pt x="525" y="0" on="0"/>
        <pt x="377" y="0" on="1"/>
        <pt x="200" y="0" on="0"/>
        <pt x="200" y="100" on="1"/>
      </contour>
    </TTGlyph>
    <TTGlyph name="glyph260" xMin="20" yMin="0" xMax="1980" yMax="1500">
      <contour>
        <pt x="880" y="380" on="1"/>
        <pt x="830" y="360" on="0"/>
        <pt x="830" y="300" on="1"/>
        <pt x="830" y="150" on="0"/>
        <pt x="880" y="150" on="1"/>
      </contour>
      <contour>
        <pt x="1600" y="861" on="1"/>
        <pt x="1530" y="861" on="0"/>
        <pt x="1530" y="810" on="1"/>
        <pt x="1530" y="750" on="0"/>
        <pt x="1600" y="750" on="1"/>
      </contour>
      <contour>
        <pt x="1600" y="650" on="1"/>
        <pt x="1430" y="650" on="0"/>
        <pt x="1430" y="810" on="1"/>
        <pt x="1430" y="1000" on="0"/>
        <pt x="1655" y="1000" on="1"/>
        <pt x="1880" y="1000" on="0"/>
        <pt x="1880" y="900" on="1"/>
        <pt x="1880" y="250" on="1"/>
        <pt x="1880" y="0" on="0"/>
        <pt x="1515" y="0" on="1"/>
        <pt x="1280" y="0" on="0"/>
        <pt x="1280" y="250" on="1"/>
        <pt x="1280" y="380" on="0"/>
        <pt x="1160" y="380" on="1"/>
        <pt x="1160" y="100" on="1"/>
        <pt x="1160" y="0" on="0"/>
        <pt x="930" y="0" on="1"/>
        <pt x="830" y="0" on="0"/>
        <pt x="730" y="190" on="0"/>
        <pt x="730" y="300" on="1"/>
        <pt x="730" y="470" on="0"/>
        <pt x="880" y="500" on="1"/>
        <pt x="880" y="1054" on="1"/>
        <pt x="853" y="1068" on="0"/>
        <pt x="832" y="1089" on="1"/>
        <pt x="780" y="1137" on="0"/>
        <pt x="780" y="1206" on="1"/>
        <pt x="780" y="1275" on="0"/>
        <pt x="1014" y="1500" on="1"/>
        <pt x="1224" y="1500" on="0"/>
        <pt x="1397" y="1366" on="1"/>
        <pt x="1596" y="1500" on="0"/>
        <pt x="1643" y="1500" on="1"/>
        <pt x="1729" y="1500" on="0"/>
        <pt x="1828" y="1409" on="1"/>
        <pt x="1890" y="1351" on="0"/>
        <pt x="1934" y="1351" on="1"/>
        <pt x="1960" y="1351" on="0"/>
        <pt x="1980" y="1371" on="1"/>
        <pt x="1980" y="1288" on="0"/>
        <pt x="1947" y="1231" on="1"/>
        <pt x="1913" y="1174" on="0"/>
        <pt x="1836" y="1174" on="1"/>
        <pt x="1749" y="1174" on="0"/>
        <pt x="1607" y="1272" on="1"/>
        <pt x="1606" y="1272" on="1"/>
        <pt x="1536" y="1272" on="0"/>
        <pt x="1341" y="1145" on="1"/>
        <pt x="1181" y="1249" on="0"/>
        <pt x="1084" y="1269" on="0"/>
        <pt x="1014" y="1274" on="1"/>
        <pt x="944" y="1200" on="1"/>
        <pt x="952" y="1133" on="0"/>
        <pt x="1083" y="1091" on="1"/>
        <pt x="1160" y="1068" on="1"/>
        <pt x="1160" y="500" on="1"/>
        <pt x="1430" y="500" on="0"/>
        <pt x="1430" y="250" on="1"/>
        <pt x="1430" y="120" on="0"/>
        <pt x="1515" y="120" on="1"/>
        <pt x="1600" y="120" on="0"/>
        <pt x="1600" y="250" on="1"/>
      </contour>
      <contour>
        <pt x="480" y="170" on="1"/>
        <pt x="530" y="170" on="0"/>
        <pt x="530" y="300" on="1"/>
        <pt x="530" y="400" on="0"/>
        <pt x="480" y="400" on="1"/>
      </contour>
      <contour>
        <pt x="200" y="963" on="1"/>
        <pt x="200" y="1069" on="0"/>
        <pt x="20" y="1101" on="1"/>
        <pt x="40" y="1232" on="0"/>
        <pt x="221" y="1500" on="0"/>
        <pt x="275" y="1500" on="1"/>
        <pt x="319" y="1500" on="0"/>
        <pt x="390" y="1457" on="1"/>
        <pt x="460" y="1414" on="1"/>
        <pt x="491" y="1395" on="0"/>
        <pt x="533" y="1395" on="1"/>
        <pt x="555" y="1395" on="0"/>
        <pt x="580" y="1400" on="1"/>
        <pt x="570" y="1330" on="0"/>
        <pt x="509" y="1191" on="0"/>
        <pt x="458" y="1186" on="1"/>
        <pt x="453" y="1185" on="0"/>
        <pt x="448" y="1185" on="1"/>
        <pt x="398" y="1185" on="0"/>
        <pt x="313" y="1238" on="1"/>
        <pt x="287" y="1253" on="0"/>
        <pt x="265" y="1253" on="1"/>
        <pt x="202" y="1253" on="0"/>
        <pt x="186" y="1158" on="1"/>
        <pt x="480" y="1100" on="0"/>
        <pt x="480" y="970" on="1"/>
        <pt x="480" y="500" on="1"/>
        <pt x="630" y="500" on="0"/>
        <pt x="630" y="300" on="1"/>
        <pt x="630" y="200" on="0"/>
        <pt x="525" y="0" on="0"/>
        <pt x="377" y="0" on="1"/>
        <pt x="200" y="0" on="0"/>
        <pt x="200" y="100" on="1"/>
      </contour>
    </TTGlyph>
    <TTGlyph name="glyph261" xMin="20" yMin="0" xMax="1880" yMax="1700">
      <contour>
        <pt x="1600" y="260" on="1"/>
        <pt x="1600" y="1000" on="1"/>
        <pt x="1880" y="1000" on="1"/>
        <pt x="1880" y="100" on="1"/>
        <pt x="1880" y="0" on="0"/>
        <pt x="1780" y="0" on="1"/>
        <pt x="1690" y="0" on="0"/>
        <pt x="1613" y="77" on="1"/>
        <pt x="1380" y="310" on="1"/>
        <pt x="1148" y="77" on="1"/>
        <pt x="1071" y="0" on="0"/>
        <pt x="980" y="0" on="1"/>
        <pt x="880" y="0" on="0"/>
        <pt x="880" y="100" on="1"/>
        <pt x="880" y="1010" on="1"/>
        <pt x="809" y="1076" on="0"/>
        <pt x="780" y="1127" on="0"/>
        <pt x="780" y="1165" on="1"/>
        <pt x="780" y="1202" on="0"/>
        <pt x="795" y="1228" on="1"/>
        <pt x="809" y="1254" on="0"/>
        <pt x="1042" y="1500" on="0"/>
        <pt x="1079" y="1500" on="1"/>
        <pt x="1165" y="1500" on="0"/>
        <pt x="1320" y="1393" on="1"/>
        <pt x="1524" y="1250" on="0"/>
        <pt x="1620" y="1250" on="1"/>
        <pt x="1710" y="1250" on="0"/>
        <pt x="1710" y="1330" on="1"/>
        <pt x="1710" y="1380" on="0"/>
        <pt x="1640" y="1470" on="0"/>
        <pt x="1570" y="1470" on="1"/>
        <pt x="1440" y="1470" on="0"/>
        <pt x="1440" y="1585" on="1"/>
        <pt x="1440" y="1700" on="0"/>
        <pt x="1570" y="1700" on="1"/>
        <pt x="1710" y="1700" on="0"/>
        <pt x="1880" y="1540" on="0"/>
        <pt x="1880" y="1390" on="1"/>
        <pt x="1880" y="1248" on="0"/>
        <pt x="1719" y="1126" on="0"/>
        <pt x="1590" y="1126" on="1"/>
        <pt x="1333" y="1126" on="0"/>
        <pt x="1081" y="1245" on="0"/>
        <pt x="1040" y="1245" on="1"/>
        <pt x="998" y="1245" on="0"/>
        <pt x="949" y="1201" on="0"/>
        <pt x="949" y="1168" on="1"/>
        <pt x="949" y="1134" on="0"/>
        <pt x="1160" y="1041" on="1"/>
        <pt x="1160" y="259" on="1"/>
        <pt x="1296" y="395" on="1"/>
        <pt x="1338" y="438" on="0"/>
        <pt x="1381" y="438" on="1"/>
        <pt x="1423" y="438" on="0"/>
        <pt x="1466" y="395" on="1"/>
      </contour>
      <contour>
        <pt x="480" y="170" on="1"/>
        <pt x="530" y="170" on="0"/>
        <pt x="530" y="300" on="1"/>
        <pt x="530" y="400" on="0"/>
        <pt x="480" y="400" on="1"/>
      </contour>
      <contour>
        <pt x="200" y="963" on="1"/>
        <pt x="200" y="1069" on="0"/>
        <pt x="20" y="1101" on="1"/>
        <pt x="40" y="1232" on="0"/>
        <pt x="221" y="1500" on="0"/>
        <pt x="275" y="1500" on="1"/>
        <pt x="319" y="1500" on="0"/>
        <pt x="390" y="1457" on="1"/>
        <pt x="460" y="1414" on="1"/>
        <pt x="491" y="1395" on="0"/>
        <pt x="533" y="1395" on="1"/>
        <pt x="555" y="1395" on="0"/>
        <pt x="580" y="1400" on="1"/>
        <pt x="570" y="1330" on="0"/>
        <pt x="509" y="1191" on="0"/>
        <pt x="458" y="1186" on="1"/>
        <pt x="453" y="1185" on="0"/>
        <pt x="448" y="1185" on="1"/>
        <pt x="398" y="1185" on="0"/>
        <pt x="313" y="1238" on="1"/>
        <pt x="287" y="1253" on="0"/>
        <pt x="265" y="1253" on="1"/>
        <pt x="202" y="1253" on="0"/>
        <pt x="186" y="1158" on="1"/>
        <pt x="480" y="1100" on="0"/>
        <pt x="480" y="970" on="1"/>
        <pt x="480" y="500" on="1"/>
        <pt x="630" y="500" on="0"/>
        <pt x="630" y="300" on="1"/>
        <pt x="630" y="200" on="0"/>
        <pt x="525" y="0" on="0"/>
        <pt x="377" y="0" on="1"/>
        <pt x="200" y="0" on="0"/>
        <pt x="200" y="100" on="1"/>
      </contour>
    </TTGlyph>
    <TTGlyph name="glyph262" xMin="20" yMin="0" xMax="3380" yMax="1500">
      <contour>
        <pt x="1160" y="200" on="1"/>
        <pt x="1230" y="200" on="0"/>
        <pt x="1230" y="400" on="1"/>
        <pt x="1230" y="500" on="0"/>
        <pt x="1160" y="500" on="1"/>
      </contour>
      <contour>
        <pt x="1580" y="1260" on="1"/>
        <pt x="1520" y="1380" on="0"/>
        <pt x="1370" y="1380" on="1"/>
        <pt x="1220" y="1380" on="0"/>
        <pt x="1160" y="1260" on="1"/>
        <pt x="1160" y="600" on="1"/>
        <pt x="1330" y="600" on="0"/>
        <pt x="1330" y="400" on="1"/>
        <pt x="1330" y="200" on="0"/>
        <pt x="1205" y="0" on="0"/>
        <pt x="1043" y="0" on="1"/>
        <pt x="880" y="0" on="0"/>
        <pt x="880" y="100" on="1"/>
        <pt x="880" y="1300" on="1"/>
        <pt x="980" y="1500" on="0"/>
        <pt x="1370" y="1500" on="1"/>
        <pt x="1760" y="1500" on="0"/>
        <pt x="1860" y="1300" on="1"/>
        <pt x="1860" y="240" on="1"/>
        <pt x="1920" y="120" on="0"/>
        <pt x="2050" y="120" on="1"/>
        <pt x="2230" y="120" on="0"/>
        <pt x="2290" y="240" on="1"/>
        <pt x="2290" y="963" on="1"/>
        <pt x="2290" y="1069" on="0"/>
        <pt x="2110" y="1101" on="1"/>
        <pt x="2130" y="1232" on="0"/>
        <pt x="2311" y="1500" on="0"/>
        <pt x="2365" y="1500" on="1"/>
        <pt x="2409" y="1500" on="0"/>
        <pt x="2480" y="1457" on="1"/>
        <pt x="2550" y="1414" on="1"/>
        <pt x="2581" y="1395" on="0"/>
        <pt x="2623" y="1395" on="1"/>
        <pt x="2645" y="1395" on="0"/>
        <pt x="2670" y="1400" on="1"/>
        <pt x="2660" y="1330" on="0"/>
        <pt x="2599" y="1191" on="0"/>
        <pt x="2548" y="1186" on="1"/>
        <pt x="2543" y="1185" on="0"/>
        <pt x="2538" y="1185" on="1"/>
        <pt x="2488" y="1185" on="0"/>
        <pt x="2403" y="1238" on="1"/>
        <pt x="2377" y="1253" on="0"/>
        <pt x="2355" y="1253" on="1"/>
        <pt x="2292" y="1253" on="0"/>
        <pt x="2276" y="1158" on="1"/>
        <pt x="2570" y="1100" on="0"/>
        <pt x="2570" y="970" on="1"/>
        <pt x="2570" y="240" on="1"/>
        <pt x="2630" y="120" on="0"/>
        <pt x="2810" y="120" on="1"/>
        <pt x="2940" y="120" on="0"/>
        <pt x="3000" y="240" on="1"/>
        <pt x="3000" y="963" on="1"/>
        <pt x="3000" y="1069" on="0"/>
        <pt x="2820" y="1101" on="1"/>
        <pt x="2840" y="1232" on="0"/>
        <pt x="3021" y="1500" on="0"/>
        <pt x="3075" y="1500" on="1"/>
        <pt x="3119" y="1500" on="0"/>
        <pt x="3190" y="1457" on="1"/>
        <pt x="3260" y="1414" on="1"/>
        <pt x="3291" y="1395" on="0"/>
        <pt x="3333" y="1395" on="1"/>
        <pt x="3355" y="1395" on="0"/>
        <pt x="3380" y="1400" on="1"/>
        <pt x="3370" y="1330" on="0"/>
        <pt x="3309" y="1191" on="0"/>
        <pt x="3258" y="1186" on="1"/>
        <pt x="3253" y="1185" on="0"/>
        <pt x="3248" y="1185" on="1"/>
        <pt x="3198" y="1185" on="0"/>
        <pt x="3113" y="1238" on="1"/>
        <pt x="3087" y="1253" on="0"/>
        <pt x="3065" y="1253" on="1"/>
        <pt x="3002" y="1253" on="0"/>
        <pt x="2986" y="1158" on="1"/>
        <pt x="3280" y="1100" on="0"/>
        <pt x="3280" y="970" on="1"/>
        <pt x="3280" y="200" on="1"/>
        <pt x="3180" y="0" on="0"/>
        <pt x="2810" y="0" on="1"/>
        <pt x="2557" y="0" on="0"/>
        <pt x="2430" y="94" on="1"/>
        <pt x="2303" y="0" on="0"/>
        <pt x="2050" y="0" on="1"/>
        <pt x="1680" y="0" on="0"/>
        <pt x="1580" y="200" on="1"/>
      </contour>
      <contour>
        <pt x="480" y="170" on="1"/>
        <pt x="530" y="170" on="0"/>
        <pt x="530" y="300" on="1"/>
        <pt x="530" y="400" on="0"/>
        <pt x="480" y="400" on="1"/>
      </contour>
      <contour>
        <pt x="200" y="963" on="1"/>
        <pt x="200" y="1069" on="0"/>
        <pt x="20" y="1101" on="1"/>
        <pt x="40" y="1232" on="0"/>
        <pt x="221" y="1500" on="0"/>
        <pt x="275" y="1500" on="1"/>
        <pt x="319" y="1500" on="0"/>
        <pt x="390" y="1457" on="1"/>
        <pt x="460" y="1414" on="1"/>
        <pt x="491" y="1395" on="0"/>
        <pt x="533" y="1395" on="1"/>
        <pt x="555" y="1395" on="0"/>
        <pt x="580" y="1400" on="1"/>
        <pt x="570" y="1330" on="0"/>
        <pt x="509" y="1191" on="0"/>
        <pt x="458" y="1186" on="1"/>
        <pt x="453" y="1185" on="0"/>
        <pt x="448" y="1185" on="1"/>
        <pt x="398" y="1185" on="0"/>
        <pt x="313" y="1238" on="1"/>
        <pt x="287" y="1253" on="0"/>
        <pt x="265" y="1253" on="1"/>
        <pt x="202" y="1253" on="0"/>
        <pt x="186" y="1158" on="1"/>
        <pt x="480" y="1100" on="0"/>
        <pt x="480" y="970" on="1"/>
        <pt x="480" y="500" on="1"/>
        <pt x="630" y="500" on="0"/>
        <pt x="630" y="300" on="1"/>
        <pt x="630" y="200" on="0"/>
        <pt x="525" y="0" on="0"/>
        <pt x="377" y="0" on="1"/>
        <pt x="200" y="0" on="0"/>
        <pt x="200" y="100" on="1"/>
      </contour>
    </TTGlyph>
    <TTGlyph name="glyph263" xMin="20" yMin="-570" xMax="2580" yMax="1500">
      <contour>
        <pt x="2185" y="-200" on="1"/>
        <pt x="2185" y="-150" on="0"/>
        <pt x="2215" y="-125" on="1"/>
        <pt x="2246" y="-100" on="0"/>
        <pt x="2370" y="-100" on="1"/>
        <pt x="2493" y="-100" on="0"/>
        <pt x="2536" y="-150" on="1"/>
        <pt x="2580" y="-200" on="0"/>
        <pt x="2580" y="-300" on="1"/>
        <pt x="2580" y="-410" on="0"/>
        <pt x="2368" y="-570" on="0"/>
        <pt x="2145" y="-570" on="1"/>
        <pt x="1960" y="-570" on="0"/>
        <pt x="1853" y="-532" on="1"/>
        <pt x="1746" y="-495" on="0"/>
        <pt x="1523" y="-357" on="1"/>
        <pt x="1300" y="-220" on="0"/>
        <pt x="1233" y="-220" on="1"/>
        <pt x="1142" y="-220" on="0"/>
        <pt x="1004" y="-275" on="0"/>
        <pt x="930" y="-340" on="1"/>
        <pt x="930" y="-280" on="0"/>
        <pt x="1004" y="-185" on="0"/>
        <pt x="1172" y="-100" on="0"/>
        <pt x="1283" y="-100" on="1"/>
        <pt x="1442" y="-100" on="0"/>
        <pt x="1668" y="-194" on="0"/>
        <pt x="1801" y="-291" on="1"/>
        <pt x="2053" y="-466" on="0"/>
        <pt x="2165" y="-466" on="1"/>
        <pt x="2235" y="-466" on="0"/>
        <pt x="2300" y="-400" on="0"/>
        <pt x="2300" y="-300" on="1"/>
        <pt x="2300" y="-273" on="1"/>
        <pt x="2276" y="-276" on="0"/>
        <pt x="2258" y="-276" on="1"/>
        <pt x="2234" y="-276" on="0"/>
        <pt x="2224" y="-270" on="1"/>
        <pt x="2205" y="-259" on="0"/>
        <pt x="2185" y="-221" on="0"/>
      </contour>
      <contour>
        <pt x="1160" y="150" on="1"/>
        <pt x="1230" y="150" on="0"/>
        <pt x="1230" y="400" on="1"/>
        <pt x="1230" y="500" on="0"/>
        <pt x="1160" y="500" on="1"/>
      </contour>
      <contour>
        <pt x="1799" y="1385" on="1"/>
        <pt x="1909" y="1500" on="0"/>
        <pt x="2090" y="1500" on="1"/>
        <pt x="2580" y="1500" on="0"/>
        <pt x="2580" y="1081" on="1"/>
        <pt x="2580" y="0" on="1"/>
        <pt x="2300" y="0" on="1"/>
        <pt x="2300" y="1081" on="1"/>
        <pt x="2300" y="1380" on="0"/>
        <pt x="2090" y="1380" on="1"/>
        <pt x="1880" y="1380" on="0"/>
        <pt x="1880" y="1081" on="1"/>
        <pt x="1880" y="0" on="1"/>
        <pt x="1600" y="0" on="1"/>
        <pt x="1600" y="1200" on="1"/>
        <pt x="1600" y="1304" on="0"/>
        <pt x="1550" y="1304" on="1"/>
        <pt x="1500" y="1304" on="0"/>
        <pt x="1380" y="1200" on="1"/>
        <pt x="1261" y="1304" on="0"/>
        <pt x="1211" y="1304" on="1"/>
        <pt x="1160" y="1304" on="0"/>
        <pt x="1160" y="1200" on="1"/>
        <pt x="1160" y="600" on="1"/>
        <pt x="1330" y="600" on="0"/>
        <pt x="1330" y="400" on="1"/>
        <pt x="1330" y="200" on="0"/>
        <pt x="1205" y="0" on="0"/>
        <pt x="1130" y="0" on="1"/>
        <pt x="880" y="0" on="0"/>
        <pt x="880" y="100" on="1"/>
        <pt x="880" y="1200" on="1"/>
        <pt x="880" y="1322" on="0"/>
        <pt x="990" y="1411" on="1"/>
        <pt x="1100" y="1500" on="0"/>
        <pt x="1159" y="1500" on="1"/>
        <pt x="1209" y="1500" on="0"/>
        <pt x="1380" y="1366" on="1"/>
        <pt x="1552" y="1500" on="0"/>
        <pt x="1602" y="1500" on="1"/>
        <pt x="1661" y="1500" on="0"/>
        <pt x="1770" y="1411" on="1"/>
      </contour>
      <contour>
        <pt x="480" y="170" on="1"/>
        <pt x="530" y="170" on="0"/>
        <pt x="530" y="300" on="1"/>
        <pt x="530" y="400" on="0"/>
        <pt x="480" y="400" on="1"/>
      </contour>
      <contour>
        <pt x="200" y="963" on="1"/>
        <pt x="200" y="1069" on="0"/>
        <pt x="20" y="1101" on="1"/>
        <pt x="40" y="1232" on="0"/>
        <pt x="221" y="1500" on="0"/>
        <pt x="275" y="1500" on="1"/>
        <pt x="319" y="1500" on="0"/>
        <pt x="390" y="1457" on="1"/>
        <pt x="460" y="1414" on="1"/>
        <pt x="491" y="1395" on="0"/>
        <pt x="533" y="1395" on="1"/>
        <pt x="555" y="1395" on="0"/>
        <pt x="580" y="1400" on="1"/>
        <pt x="570" y="1330" on="0"/>
        <pt x="509" y="1191" on="0"/>
        <pt x="458" y="1186" on="1"/>
        <pt x="453" y="1185" on="0"/>
        <pt x="448" y="1185" on="1"/>
        <pt x="398" y="1185" on="0"/>
        <pt x="313" y="1238" on="1"/>
        <pt x="287" y="1253" on="0"/>
        <pt x="265" y="1253" on="1"/>
        <pt x="202" y="1253" on="0"/>
        <pt x="186" y="1158" on="1"/>
        <pt x="480" y="1100" on="0"/>
        <pt x="480" y="970" on="1"/>
        <pt x="480" y="500" on="1"/>
        <pt x="630" y="500" on="0"/>
        <pt x="630" y="300" on="1"/>
        <pt x="630" y="200" on="0"/>
        <pt x="525" y="0" on="0"/>
        <pt x="377" y="0" on="1"/>
        <pt x="200" y="0" on="0"/>
        <pt x="200" y="100" on="1"/>
      </contour>
    </TTGlyph>
</ttFont>
